<svg xmlns="http://www.w3.org/2000/svg" viewBox="0 0 113.65 102.62">
  <g>
    <g>
      <path d="M20,48.23a9.33,9.33,0,0,1-2.43-2,6.85,6.85,0,0,1-1.35-2.39,5.24,5.24,0,0,1-.2-2.47,4.78,4.78,0,0,1,1.05-2.26,6,6,0,0,1,2.12-1.61A8.19,8.19,0,0,1,22,36.8,10.18,10.18,0,0,1,25,37a10.8,10.8,0,0,1,3,1.15,9.49,9.49,0,0,1,2.39,1.93,7,7,0,0,1,1.39,2.33,5.31,5.31,0,0,1,.27,2.45,4.84,4.84,0,0,1-1,2.3A5.92,5.92,0,0,1,29,48.85a8,8,0,0,1-2.79.76,10.06,10.06,0,0,1-3.12-.19A10.68,10.68,0,0,1,20,48.23m8.52-15.15a1.64,1.64,0,0,1-.22-.14l-.19-.15a1.53,1.53,0,0,1-.18-.18,1.39,1.39,0,0,1-.15-.19,1.46,1.46,0,0,1-.26-.61,1.12,1.12,0,0,1,.05-.58,1.07,1.07,0,0,1,.33-.49,1.48,1.48,0,0,1,.58-.32,1.71,1.71,0,0,1,.49-.1,2.9,2.9,0,0,1,.51,0,2.36,2.36,0,0,1,.51.12,2.18,2.18,0,0,1,.47.21l.22.13.19.16a1.45,1.45,0,0,1,.18.17l.15.19a1.46,1.46,0,0,1,.26.61A1.16,1.16,0,0,1,31.14,33a1.54,1.54,0,0,1-.59.33,2.66,2.66,0,0,1-.49.1,3,3,0,0,1-.52,0,2.36,2.36,0,0,1-.51-.12,2.18,2.18,0,0,1-.47-.21m-19-.31A8.82,8.82,0,0,1,7.94,31.6a8.07,8.07,0,0,1-1.23-1.4A6.09,6.09,0,0,1,6,28.64,4.89,4.89,0,0,1,5.71,27a4.49,4.49,0,0,1,.7-2.25,5.27,5.27,0,0,1,1.75-1.66,7.38,7.38,0,0,1,2.52-.95,10,10,0,0,1,3.05-.06,9,9,0,0,1,1,.18c.34.08.67.17,1,.28a9.66,9.66,0,0,1,.94.37c.31.14.61.29.89.45a9.64,9.64,0,0,1,1.59,1.12,8.27,8.27,0,0,1,1.23,1.36,6,6,0,0,1,.79,1.52A4.84,4.84,0,0,1,21.5,29a4.42,4.42,0,0,1-.62,2.27A5.23,5.23,0,0,1,19.19,33a7.19,7.19,0,0,1-2.54,1,9.43,9.43,0,0,1-3.11.1,9.18,9.18,0,0,1-1.07-.18c-.35-.08-.7-.18-1-.29a10.47,10.47,0,0,1-1-.38c-.31-.14-.61-.3-.9-.46m23.55,2.87a3.13,3.13,0,0,1-.42-.29,2.17,2.17,0,0,1-.32-.36,1.71,1.71,0,0,1-.21-.4,1.26,1.26,0,0,1-.08-.43,1,1,0,0,1,.14-.58,1.23,1.23,0,0,1,.42-.43,1.56,1.56,0,0,1,.62-.25,2.45,2.45,0,0,1,.77,0l.26.05.26.07.24.1.23.11a3.3,3.3,0,0,1,.41.29,1.86,1.86,0,0,1,.33.36,1.71,1.71,0,0,1,.21.4,1.5,1.5,0,0,1,.09.42,1.31,1.31,0,0,1-.14.59,1.43,1.43,0,0,1-.41.44,2,2,0,0,1-.63.25,2.19,2.19,0,0,1-.77,0l-.27,0-.25-.07-.25-.09-.23-.12m8,14.92A9.9,9.9,0,0,1,40.2,50a10.19,10.19,0,0,1-.8-.64,9.93,9.93,0,0,1-.73-.72c-.22-.26-.43-.52-.62-.79A6.69,6.69,0,0,1,37,45.31a4.73,4.73,0,0,1,1.37-4.4,6.25,6.25,0,0,1,2.28-1.35,8.26,8.26,0,0,1,1.93-.39,10.43,10.43,0,0,1,2,0,10.88,10.88,0,0,1,3.88,1.31,8.78,8.78,0,0,1,.86.54c.27.19.53.4.79.62a7.71,7.71,0,0,1,.71.69,7.44,7.44,0,0,1,1.78,3.25,5.11,5.11,0,0,1,0,2.4,4.77,4.77,0,0,1-1.18,2,5.87,5.87,0,0,1-2.26,1.42,7.54,7.54,0,0,1-2,.43,9.48,9.48,0,0,1-2.06,0A11.26,11.26,0,0,1,43,51.43a11.62,11.62,0,0,1-1.94-.87M28.46,29.09h0a2.18,2.18,0,0,1-.59-.47,1.69,1.69,0,0,1-.34-.57,1.16,1.16,0,0,1-.06-.58,1.14,1.14,0,0,1,.24-.54,1.48,1.48,0,0,1,.51-.38,1.94,1.94,0,0,1,.68-.16,2.76,2.76,0,0,1,.75.05,3.07,3.07,0,0,1,.74.29h0a2.66,2.66,0,0,1,.6.47,2,2,0,0,1,.34.56,1.21,1.21,0,0,1,.06.59,1.19,1.19,0,0,1-.24.54,1.39,1.39,0,0,1-.51.38,2.06,2.06,0,0,1-.67.17,2.71,2.71,0,0,1-1.51-.35m9,5.07h0a2.7,2.7,0,0,1-.61-.48,2,2,0,0,1-.35-.57,1.39,1.39,0,0,1-.07-.6,1.14,1.14,0,0,1,.24-.54,1.28,1.28,0,0,1,.5-.39,2,2,0,0,1,.67-.17,2.57,2.57,0,0,1,1.49.34h0a2.44,2.44,0,0,1,.6.48,1.73,1.73,0,0,1,.35.57,1.22,1.22,0,0,1,.07.59,1.05,1.05,0,0,1-.22.55,1.28,1.28,0,0,1-.5.39,1.85,1.85,0,0,1-.67.18,2.7,2.7,0,0,1-1.5-.35m-4.67-6.48a3,3,0,0,1-.41-.29,1.69,1.69,0,0,1-.31-.35,1.58,1.58,0,0,1-.21-.38,1.25,1.25,0,0,1-.08-.42,1,1,0,0,1,.14-.56,1.26,1.26,0,0,1,.41-.42A1.65,1.65,0,0,1,33,25a2.13,2.13,0,0,1,.76,0l.26,0,.25.07.23.09.23.11a3,3,0,0,1,.41.29,2,2,0,0,1,.31.34,1.47,1.47,0,0,1,.21.39,1.43,1.43,0,0,1,.09.41,1.08,1.08,0,0,1-.14.56,1.15,1.15,0,0,1-.4.42,1.61,1.61,0,0,1-.62.24,2.13,2.13,0,0,1-.76,0l-.26,0-.25-.08a1.17,1.17,0,0,1-.24-.09l-.23-.11m4.49,2.5-.22-.13-.19-.16a1,1,0,0,1-.18-.17.9.9,0,0,1-.15-.19,1.53,1.53,0,0,1-.27-.6,1.09,1.09,0,0,1,0-.57,1,1,0,0,1,.31-.47,1.44,1.44,0,0,1,.57-.32,1.86,1.86,0,0,1,.48-.09,2.12,2.12,0,0,1,.5,0,3,3,0,0,1,.5.11,3.82,3.82,0,0,1,.46.21l.22.13.19.16a1.45,1.45,0,0,1,.18.17.9.9,0,0,1,.15.19,1.4,1.4,0,0,1,.27.6,1.08,1.08,0,0,1-.34,1,1.5,1.5,0,0,1-.57.33,3.41,3.41,0,0,1-.48.09,2.83,2.83,0,0,1-.5,0,2.15,2.15,0,0,1-.5-.12,2,2,0,0,1-.47-.21M19.77,20.56A8.73,8.73,0,0,1,19,20c-.26-.18-.51-.38-.75-.58s-.45-.43-.66-.66a7.38,7.38,0,0,1-.57-.71A5.36,5.36,0,0,1,16,15.81a4,4,0,0,1,.22-2.13,4.4,4.4,0,0,1,1.3-1.76,6.25,6.25,0,0,1,2.26-1.15,7.78,7.78,0,0,1,1.87-.31,9.7,9.7,0,0,1,1.94.08,10.42,10.42,0,0,1,1.91.46,10.54,10.54,0,0,1,1.79.78c.27.15.54.32.8.5s.5.37.74.57.45.41.66.63a6.44,6.44,0,0,1,.57.7,5.59,5.59,0,0,1,1,2.23,4.17,4.17,0,0,1-.15,2.14,4.31,4.31,0,0,1-1.23,1.8,6.19,6.19,0,0,1-2.25,1.21,8.06,8.06,0,0,1-1.9.34,9.47,9.47,0,0,1-2-.07,11.15,11.15,0,0,1-2-.46,10.38,10.38,0,0,1-1.83-.81m30.6,17a10.8,10.8,0,0,1-1.63-1.15A8.85,8.85,0,0,1,47.44,35a7.46,7.46,0,0,1-.87-1.55,5.19,5.19,0,0,1-.36-1.64,4.25,4.25,0,0,1,.46-2.23A4.55,4.55,0,0,1,48.19,28,6.43,6.43,0,0,1,50.51,27a8.65,8.65,0,0,1,2.89-.08,8.54,8.54,0,0,1,1,.18c.33.08.66.17,1,.28a7.45,7.45,0,0,1,.93.36,9,9,0,0,1,.88.44,9.32,9.32,0,0,1,1.61,1.1,9.09,9.09,0,0,1,1.29,1.35A6.44,6.44,0,0,1,61,32.15a5.17,5.17,0,0,1,.42,1.62A4.31,4.31,0,0,1,61,36a4.61,4.61,0,0,1-1.46,1.72,6.48,6.48,0,0,1-2.33,1,9,9,0,0,1-2.95.11c-.35-.05-.7-.11-1-.18s-.67-.18-1-.29a10,10,0,0,1-1-.37c-.31-.14-.61-.29-.91-.45M39.58,23a9.25,9.25,0,0,1-2.31-1.8,6.62,6.62,0,0,1-1.33-2.13,4.52,4.52,0,0,1-.28-2.19,3.93,3.93,0,0,1,.87-2,5,5,0,0,1,1.89-1.39,7.45,7.45,0,0,1,2.51-.59,9.63,9.63,0,0,1,2.8.24,10.36,10.36,0,0,1,2.81,1.07A9.09,9.09,0,0,1,48.82,16a6.81,6.81,0,0,1,1.37,2.08,4.62,4.62,0,0,1,.34,2.17,3.86,3.86,0,0,1-.8,2,4.89,4.89,0,0,1-1.86,1.45,7.3,7.3,0,0,1-2.53.63,9.82,9.82,0,0,1-2.88-.22A10.81,10.81,0,0,1,39.58,23m9.3-11.45A45.33,45.33,0,0,0,37.06,7.07,43.18,43.18,0,0,0,25.13,6,34.11,34.11,0,0,0,14.19,8.43a24.13,24.13,0,0,0-8.7,5.93A18.64,18.64,0,0,0,.92,23.1a20.15,20.15,0,0,0,.47,10A28.09,28.09,0,0,0,6.88,43a38.93,38.93,0,0,0,10.3,8.53,45.57,45.57,0,0,0,13.22,5.1,41.9,41.9,0,0,0,13.26.77,32.05,32.05,0,0,0,11.48-3.36A22.1,22.1,0,0,0,63.24,47a18.34,18.34,0,0,0,3.17-9.34,21.76,21.76,0,0,0-1.8-9.7,30.38,30.38,0,0,0-6-9,40.52,40.52,0,0,0-9.7-7.38" style="fill: #fff;stroke: #263238;stroke-miterlimit: 10"/>
      <path d="M20.67,46.9a9.33,9.33,0,0,1-2.43-2,7,7,0,0,1-1.35-2.39,5.23,5.23,0,0,1-.19-2.47,4.76,4.76,0,0,1,1-2.26,6.06,6.06,0,0,1,2.12-1.61,8.26,8.26,0,0,1,2.75-.71,10.15,10.15,0,0,1,3,.21,10.68,10.68,0,0,1,3,1.15,9.55,9.55,0,0,1,2.4,1.93,7.21,7.21,0,0,1,1.38,2.33,5.32,5.32,0,0,1,.28,2.45,4.85,4.85,0,0,1-1,2.3,5.92,5.92,0,0,1-2.08,1.68,7.89,7.89,0,0,1-2.79.76,10.06,10.06,0,0,1-3.12-.19,10.68,10.68,0,0,1-3.08-1.19m8.52-15.15L29,31.61l-.2-.15-.18-.18-.15-.19a1.61,1.61,0,0,1-.26-.61,1.24,1.24,0,0,1,0-.58,1.07,1.07,0,0,1,.33-.49,1.45,1.45,0,0,1,.59-.32,1.94,1.94,0,0,1,.49-.1,2.94,2.94,0,0,1,.51,0,2.15,2.15,0,0,1,.5.12,2,2,0,0,1,.47.21l.22.13.2.16a1.37,1.37,0,0,1,.17.17c.06.06.11.13.16.19a1.61,1.61,0,0,1,.26.61,1.2,1.2,0,0,1-.37,1.07,1.47,1.47,0,0,1-.59.33,2.5,2.5,0,0,1-.49.1,2.9,2.9,0,0,1-.51,0,2.11,2.11,0,0,1-.51-.12,2.06,2.06,0,0,1-.48-.21m-19-.31a8.75,8.75,0,0,1-1.61-1.17,7.57,7.57,0,0,1-1.23-1.39,6,6,0,0,1-.77-1.57,4.85,4.85,0,0,1-.23-1.65A4.38,4.38,0,0,1,7,23.41a5.36,5.36,0,0,1,1.75-1.66,7.17,7.17,0,0,1,2.52-.94,9.65,9.65,0,0,1,3-.07,9,9,0,0,1,1,.18c.34.08.68.18,1,.28s.64.24,1,.37.6.29.88.45a9.23,9.23,0,0,1,1.59,1.12,7.84,7.84,0,0,1,1.23,1.36,6.33,6.33,0,0,1,.8,1.52,5.09,5.09,0,0,1,.28,1.64,4.51,4.51,0,0,1-.61,2.27,5.26,5.26,0,0,1-1.7,1.72,7.21,7.21,0,0,1-2.53,1,9.48,9.48,0,0,1-3.12.1,9.55,9.55,0,0,1-1.07-.18c-.35-.08-.7-.18-1-.29a10.28,10.28,0,0,1-1-.38c-.32-.14-.62-.3-.91-.46m23.55,2.87a2,2,0,0,1-.41-.29,1.86,1.86,0,0,1-.33-.36,1.71,1.71,0,0,1-.21-.4,1.26,1.26,0,0,1-.08-.43,1.13,1.13,0,0,1,.56-1,1.62,1.62,0,0,1,.62-.25,2.45,2.45,0,0,1,.77,0l.27.05.25.07a1.33,1.33,0,0,1,.24.1l.23.11a3.19,3.19,0,0,1,.42.3,1.78,1.78,0,0,1,.32.35,2.24,2.24,0,0,1,.22.4,1.2,1.2,0,0,1,.08.42,1.08,1.08,0,0,1-.14.59,1.22,1.22,0,0,1-.41.44,2,2,0,0,1-.63.25,2.18,2.18,0,0,1-.77,0l-.27,0-.25-.08L34,34.43l-.23-.12m8,14.92a8.76,8.76,0,0,1-.88-.56A10.19,10.19,0,0,1,40,48a8.15,8.15,0,0,1-.72-.72,9.08,9.08,0,0,1-.63-.79A6.69,6.69,0,0,1,37.58,44a4.91,4.91,0,0,1,.13-2.39,4.7,4.7,0,0,1,1.25-2,6.12,6.12,0,0,1,2.27-1.35,8.37,8.37,0,0,1,1.93-.39,10.41,10.41,0,0,1,2,0,10.75,10.75,0,0,1,2,.47,10.57,10.57,0,0,1,1.88.84,7.73,7.73,0,0,1,.86.54,10.14,10.14,0,0,1,1.51,1.31,7.73,7.73,0,0,1,.62.77,6.61,6.61,0,0,1,1.15,2.48,5,5,0,0,1,0,2.4,4.67,4.67,0,0,1-1.18,2,5.87,5.87,0,0,1-2.26,1.42,7.55,7.55,0,0,1-2,.43,9.47,9.47,0,0,1-2.06,0,10.64,10.64,0,0,1-4-1.34M29.1,27.77h0a2.54,2.54,0,0,1-.59-.47,1.69,1.69,0,0,1-.34-.57,1.16,1.16,0,0,1-.06-.58,1.14,1.14,0,0,1,.24-.54,1.43,1.43,0,0,1,.52-.38,2.06,2.06,0,0,1,.67-.16,2.73,2.73,0,0,1,.75.05,2.92,2.92,0,0,1,.74.29h0a2.84,2.84,0,0,1,.59.47,1.75,1.75,0,0,1,.34.56A1.21,1.21,0,0,1,32,27a1.09,1.09,0,0,1-.24.54,1.36,1.36,0,0,1-.5.38,2.19,2.19,0,0,1-.68.17,2.4,2.4,0,0,1-.75-.06,2.62,2.62,0,0,1-.75-.28m9,5.07h0a2.44,2.44,0,0,1-.6-.48,1.83,1.83,0,0,1-.35-.57,1.24,1.24,0,0,1-.07-.6,1,1,0,0,1,.23-.54,1.28,1.28,0,0,1,.5-.39,2.06,2.06,0,0,1,.67-.17,2.76,2.76,0,0,1,.75.05,2.71,2.71,0,0,1,.74.29h0a2.44,2.44,0,0,1,.6.48,1.73,1.73,0,0,1,.35.57,1.36,1.36,0,0,1,.08.59,1.16,1.16,0,0,1-.23.55,1.28,1.28,0,0,1-.5.39,1.85,1.85,0,0,1-.67.18,2.4,2.4,0,0,1-.75-.06,2.62,2.62,0,0,1-.75-.28m-4.66-6.49a2.5,2.5,0,0,1-.41-.29,1.75,1.75,0,0,1-.32-.35,1.58,1.58,0,0,1-.21-.38,1.25,1.25,0,0,1-.08-.42,1.08,1.08,0,0,1,.14-.56,1.49,1.49,0,0,1,.41-.42,1.65,1.65,0,0,1,.61-.23,2.4,2.4,0,0,1,.76,0l.26.05.25.07.24.09.22.11a2.5,2.5,0,0,1,.41.29,2.05,2.05,0,0,1,.32.34,1.47,1.47,0,0,1,.21.39,1.15,1.15,0,0,1,.08.41,1,1,0,0,1-.14.56,1.15,1.15,0,0,1-.4.42,1.55,1.55,0,0,1-.62.24,2.13,2.13,0,0,1-.76,0l-.26,0-.25-.08a1.17,1.17,0,0,1-.24-.09,1.51,1.51,0,0,1-.22-.11M38,28.85a1.48,1.48,0,0,1-.21-.13,1.56,1.56,0,0,1-.2-.16l-.18-.17-.15-.19a1.53,1.53,0,0,1-.27-.6A1.21,1.21,0,0,1,37,27a1,1,0,0,1,.31-.47,1.44,1.44,0,0,1,.57-.32,1.94,1.94,0,0,1,.48-.09,2.1,2.1,0,0,1,.5,0,2.78,2.78,0,0,1,.5.11,4,4,0,0,1,.47.21l.21.13.2.16a1.37,1.37,0,0,1,.17.17,1.46,1.46,0,0,1,.16.19,1.53,1.53,0,0,1,.27.6,1.37,1.37,0,0,1,0,.57,1.21,1.21,0,0,1-.31.47,1.59,1.59,0,0,1-.57.33,2.65,2.65,0,0,1-.49.09,2.83,2.83,0,0,1-.5,0,2.15,2.15,0,0,1-.5-.12,2.18,2.18,0,0,1-.47-.21M20.4,19.23a8.73,8.73,0,0,1-.82-.52,8.61,8.61,0,0,1-.74-.58,8.36,8.36,0,0,1-.67-.66c-.2-.23-.39-.46-.57-.71a5.62,5.62,0,0,1-1-2.28,4.13,4.13,0,0,1,.23-2.13,4.37,4.37,0,0,1,1.29-1.76,6.33,6.33,0,0,1,2.26-1.15,7.78,7.78,0,0,1,1.87-.31,9.8,9.8,0,0,1,1.95.08,10.83,10.83,0,0,1,1.91.46,10.11,10.11,0,0,1,1.78.78,9,9,0,0,1,.8.5,8.52,8.52,0,0,1,.74.57q.35.3.66.63a5.45,5.45,0,0,1,.57.7,5.32,5.32,0,0,1,1,2.23,4.07,4.07,0,0,1-.15,2.14A4.31,4.31,0,0,1,30.33,19a6.15,6.15,0,0,1-2.24,1.21,8,8,0,0,1-1.91.34,9.52,9.52,0,0,1-2-.07,11.15,11.15,0,0,1-2-.46,10.71,10.71,0,0,1-1.83-.81M51,36.23a10.42,10.42,0,0,1-1.64-1.15,8.77,8.77,0,0,1-1.29-1.38,6.65,6.65,0,0,1-.87-1.55,5.21,5.21,0,0,1-.37-1.64,4.16,4.16,0,0,1,.47-2.23,4.52,4.52,0,0,1,1.51-1.66,6.43,6.43,0,0,1,2.32-.94A8.65,8.65,0,0,1,54,25.6a8.19,8.19,0,0,1,1,.18,10.09,10.09,0,0,1,1,.28,7.45,7.45,0,0,1,.93.36,9.2,9.2,0,0,1,.89.44A10.15,10.15,0,0,1,59.45,28a9,9,0,0,1,1.28,1.35,7.09,7.09,0,0,1,.9,1.51A5.44,5.44,0,0,1,62,32.44a4.21,4.21,0,0,1-.38,2.25,4.73,4.73,0,0,1-1.47,1.72,6.35,6.35,0,0,1-2.32,1,9,9,0,0,1-3,.11c-.35-.05-.7-.11-1-.18s-.67-.18-1-.29a10,10,0,0,1-1-.37q-.46-.21-.9-.45M40.22,21.68a9.07,9.07,0,0,1-2.31-1.8,6.48,6.48,0,0,1-1.34-2.13,4.65,4.65,0,0,1-.28-2.19,3.93,3.93,0,0,1,.87-2,5,5,0,0,1,1.89-1.39,7.45,7.45,0,0,1,2.51-.59,9.73,9.73,0,0,1,2.81.24,10.42,10.42,0,0,1,2.8,1.07,9.09,9.09,0,0,1,2.28,1.74,6.63,6.63,0,0,1,1.37,2.08,4.62,4.62,0,0,1,.34,2.17,3.86,3.86,0,0,1-.8,2,4.85,4.85,0,0,1-1.85,1.45A7.35,7.35,0,0,1,46,23a9.75,9.75,0,0,1-2.87-.22,10.56,10.56,0,0,1-2.88-1.1m9.29-11.45A45.4,45.4,0,0,0,37.7,5.74a43.22,43.22,0,0,0-11.94-1A34.38,34.38,0,0,0,14.82,7.1,24,24,0,0,0,6.13,13a18.66,18.66,0,0,0-4.58,8.74,20,20,0,0,0,.48,10,27.78,27.78,0,0,0,5.49,10,38.87,38.87,0,0,0,10.29,8.53A45.57,45.57,0,0,0,31,55.32a41.93,41.93,0,0,0,13.26.77,32.05,32.05,0,0,0,11.48-3.36,22.16,22.16,0,0,0,8.1-7.07A18.4,18.4,0,0,0,67,36.31a21.76,21.76,0,0,0-1.8-9.7,30.19,30.19,0,0,0-6-9,40.33,40.33,0,0,0-9.7-7.38" style="fill: #d9d9d9;stroke: #252d31;stroke-miterlimit: 10;stroke-width: 0.200000002980232px"/>
    </g>
    <g>
      <path d="M60.14,27.72a30.48,30.48,0,0,0-5.24-3.55,45.63,45.63,0,0,0-10.78-4.08l-1.24,7.25a44.66,44.66,0,0,1,10.78,4.07A31.06,31.06,0,0,1,58.9,35l1.24-7.24" style="fill: #fff"/>
      <path d="M65.35,49.49a14.09,14.09,0,0,0,0-2.91,15.21,15.21,0,0,0-1.55-5.49,18.9,18.9,0,0,0-4.21-5.48l1.24-7.24a19.08,19.08,0,0,1,4.21,5.48,15.36,15.36,0,0,1,1.55,5.48,14.18,14.18,0,0,1,0,2.92l-1.24,7.24" style="fill: #fff"/>
      <g>
        <path d="M43.8,29.43,43,29.22l.22-1.28.84.21-.22,1.28" style="fill: #fff"/>
        <path d="M47.49,30.6c-.6-.22-1.17-.41-1.69-.58L46,28.74c.52.17,1.09.36,1.69.58l-.22,1.28" style="fill: #fff"/>
        <path d="M52.54,32.78c-.7-.36-1.41-.7-2.09-1l.22-1.28c.68.31,1.38.64,2.09,1l-.22,1.28" style="fill: #fff"/>
        <path d="M55.6,34.53l-1.06-.65.22-1.28,1.06.66-.22,1.27" style="fill: #fff"/>
        <path d="M58.26,36.48c-.34-.29-.69-.56-1-.83l.22-1.27c.36.26.71.53,1,.82l-.22,1.28" style="fill: #fff"/>
        <path d="M60.75,38.84c-.31-.35-.63-.68-1-1L60,36.57q.5.48,1,1l-.22,1.28" style="fill: #fff"/>
        <path d="M62.85,41.64q-.36-.6-.78-1.17l.22-1.28c.27.38.54.77.78,1.17l-.22,1.28" style="fill: #fff"/>
        <path d="M64.19,44.4c-.13-.35-.26-.68-.41-1L64,42.11c.14.33.28.66.41,1l-.22,1.28" style="fill: #fff"/>
        <path d="M45.44,19.86l-.84-.22.22-1.28.84.22-.22,1.28" style="fill: #fff"/>
        <path d="M49.13,21c-.6-.21-1.17-.41-1.69-.57l.22-1.28c.52.17,1.08.36,1.69.58L49.13,21" style="fill: #fff"/>
        <path d="M54.18,23.2q-1.07-.54-2.1-1l.22-1.28c.69.3,1.39.63,2.1,1l-.22,1.27" style="fill: #fff"/>
        <path d="M57.24,25l-1.06-.66L56.39,23c.36.2.71.42,1.06.65L57.24,25" style="fill: #fff"/>
        <path d="M59.9,26.9c-.35-.28-.7-.56-1-.82l.22-1.28c.35.26.7.54,1,.82L59.9,26.9" style="fill: #fff"/>
        <path d="M62.38,29.26c-.31-.34-.62-.67-1-1L61.65,27c.32.32.64.65,1,1l-.22,1.28" style="fill: #fff"/>
        <path d="M64.49,32.07q-.37-.6-.78-1.17l.22-1.28q.41.57.78,1.17l-.22,1.28" style="fill: #fff"/>
        <path d="M65.83,34.82c-.13-.34-.27-.68-.42-1l.22-1.28c.15.33.29.66.42,1l-.22,1.28" style="fill: #fff"/>
        <path d="M66.56,37.55c-.06-.38-.14-.75-.23-1.12l.22-1.27c.09.36.17.73.23,1.11l-.22,1.28" style="fill: #fff"/>
        <path d="M66.77,40.49c0-.39,0-.77,0-1.16L67,38.05c0,.39,0,.78,0,1.16l-.22,1.28" style="fill: #fff"/>
        <path d="M66.8,41.14l0-.23-.21,1.28a1.85,1.85,0,0,0,0,.23l.22-1.28" style="fill: #fff"/>
        <path d="M66.71,43.53c-.07.3-.15.59-.24.88l.21-1.22c.09-.29.17-.59.24-.89l-.21,1.23" style="fill: #fff"/>
      </g>
      <path d="M56.05,59.69c-1.85,2.26-3.3,4.45-3.69,6.74l-1.19,6.95c.39-2.29,1.84-4.48,3.69-6.74l1.19-7" style="fill: #fff"/>
      <path d="M62.91,56.77a54.18,54.18,0,0,1-5.46,6.87c-.73.83-1.44,1.63-2.11,2.42l1.19-7c.67-.79,1.38-1.6,2.11-2.42a54.83,54.83,0,0,0,5.45-6.87l-1.18,7" style="fill: #fff"/>
      <path d="M94.32,55.22a11.59,11.59,0,0,0-7.72,2,6.92,6.92,0,0,0-2.75,4.69l-1.23,7.24a6.87,6.87,0,0,1,2.74-4.69,11.55,11.55,0,0,1,7.72-2l1.24-7.25" style="fill: #fff"/>
      <path d="M108.35,72.26a21.83,21.83,0,0,0-8.44-7.79,18.18,18.18,0,0,0-5.76-1.89l1.23-7.24a18.24,18.24,0,0,1,5.77,1.89A21.76,21.76,0,0,1,109.59,65l-1.24,7.24" style="fill: #fff"/>
      <path d="M111.64,84.6a22.15,22.15,0,0,0-.81-6.77,21,21,0,0,0-1.43-3.7c-.18-.36-.36-.71-.56-1l1.24-7.25c.19.35.38.7.56,1.06a22.66,22.66,0,0,1,1.43,3.7,22.17,22.17,0,0,1,.8,6.77l-1.23,7.24" style="fill: #fff"/>
      <g>
        <polygon points="65.07 51.23 65.16 50.72 65.16 50.72 65.07 51.23" style="fill: #263238"/>
        <polygon points="65.61 50.12 65.61 50.12 66.2 46.64 65.61 50.12" style="fill: #263238"/>
        <polygon points="82.3 68.96 83.49 62.01 83.49 62.01 82.3 68.96 82.3 68.96" style="fill: #263238"/>
        <path d="M81.86,79.78,81.66,81h0l.21-1.22Z" style="fill: #263238"/>
        <polygon points="82.82 76.24 82.26 79.51 82.26 79.51 82.82 76.24" style="fill: #263238"/>
        <polygon points="52.04 66.23 52.04 66.23 51.5 69.38 52.04 66.23" style="fill: #263238"/>
        <polygon points="52.01 68.44 52.01 68.44 51.82 69.57 52.01 68.44" style="fill: #263238"/>
        <polygon points="83.71 62.78 83.71 62.78 83.72 62.73 83.71 62.78" style="fill: #263238"/>
        <polygon points="51.82 69.57 51.17 73.38 51.17 73.38 51.82 69.57" style="fill: #263238"/>
        <path d="M44.61,17.36l-.06.22-1,5.86.57-3.35A45.63,45.63,0,0,1,54.9,24.17a30.48,30.48,0,0,1,5.24,3.55L58.9,35a31.06,31.06,0,0,0-5.24-3.55,44.66,44.66,0,0,0-10.78-4.07l-.43,2.51a44.5,44.5,0,0,1,10.78,4.07c3.66,2,7.92,5.12,10.18,9.68a14.65,14.65,0,0,1,1.11,3,51.34,51.34,0,0,1-5.72,7.32c-3,3.43-5.8,6.56-6.34,9.91,0,0,0-.06,0-.08L52,66.23a7.46,7.46,0,0,0-.1,1.16L50.7,74.63a7.46,7.46,0,0,1,.1-1.16l.7-4.09L50.38,76a7.34,7.34,0,0,0,.73,4.64A10,10,0,0,0,52,82.14c3.75,5.25,8,8.32,12.67,9.12,4.41.77,9.05-.5,13.78-3.77A7.83,7.83,0,0,0,81.83,82l.43-2.51a7.92,7.92,0,0,1-2.81,5.07l1.24-7.24a7.9,7.9,0,0,0,1-1v.23a27.45,27.45,0,0,1-.18,5.23L82,79.3a20.83,20.83,0,0,0,.22-3.56,7.66,7.66,0,0,0,.55-1L82,79.3h0l.77-4.52a9.46,9.46,0,0,0,.78-2.52l-.68,4,1.11-6.49a.43.43,0,0,0,0,.11,17.47,17.47,0,0,0,.22-2.19,7.79,7.79,0,0,1,.8-.69c3.73-2.72,9.3-2.72,14.55,0A21.77,21.77,0,0,1,109,76.64a21,21,0,0,1,1.43,3.7,21.44,21.44,0,0,1,.73,4A37.41,37.41,0,0,1,108,90.23l-2.09,12.27.31.12,0-.16a32.27,32.27,0,0,0,5-12.17l2-12a27.62,27.62,0,0,1-1.06,4.13v0a24.11,24.11,0,0,0,.6-14.37,22,22,0,0,0-11.08-13.53c-5.4-2.8-11.14-2.79-15,0a7.22,7.22,0,0,0-2.88,5.15l0-.18L83.49,62a18.23,18.23,0,0,0-.21,3.27c0,.53,0,1.08,0,1.63a8.17,8.17,0,0,0-.69,2.25l.55-3.26-1,5.78a7.6,7.6,0,0,1,1-2.85l-.66,3.86a6.88,6.88,0,0,1-.44.66A23.3,23.3,0,0,1,82.3,69l-.42,2.5a15.9,15.9,0,0,0-.21,2.42,7.7,7.7,0,0,1-1.34,1.17c-4.65,3.21-9.19,4.46-13.49,3.72-4.53-.79-8.71-3.81-12.41-9l-.24-.35c.87-1.08,1.84-2.18,2.83-3.31,3.44-3.88,7.25-8.18,8.16-13.52l.43-2.5a18.33,18.33,0,0,1-2.36,6.09l1.19-7,.45-.82c0,.22.06.43.07.65a13.65,13.65,0,0,1-.14,3.63l.12-.72.13-.77-.13.76a1.57,1.57,0,0,0,0-.23l.22-1.28c0,.08,0,.16,0,.24l.76-4.46a17.8,17.8,0,0,0,.88-3.09l-.6,3.47,1-6a15.39,15.39,0,0,1-.87,3.09l0-.14a15,15,0,0,0,1-6.77,15.54,15.54,0,0,0-1.57-5.56c-2.3-4.62-6.62-7.8-10.33-9.81A45.15,45.15,0,0,0,44.61,17.36ZM66.47,44.41l.21-1.22c.09-.29.17-.59.24-.89l-.21,1.23C66.64,43.83,66.56,44.12,66.47,44.41Zm-.24.08L66,45.72v0l.21-1.23Zm-.88,5a13.52,13.52,0,0,0,.09-2.12c.17-.36.32-.7.45-1Zm0-1.87c0,.39,0,.78,0,1.16l-.22,1.28c0-.38,0-.77,0-1.16Zm.54-2.29c.11-.24.21-.49.31-.73L66,45.82c-.1.25-.2.49-.31.73Zm-1,8.28.21-1.23c.09-.29.17-.59.24-.89l-.21,1.23C65.07,53,65,53.31,64.9,53.61Zm-.59.91c.12-.28.24-.56.35-.84l-.21,1.23c-.11.28-.22.56-.35.84Zm-1.05,2c.15-.26.3-.53.44-.8L63.49,57c-.14.27-.29.53-.44.8ZM82.89,68.94l.22-1.28.21-.43c0,.27,0,.54,0,.81v.07A6.59,6.59,0,0,0,82.89,68.94Zm.53-1.72,0-.24.13-.23-.16,1C83.43,67.54,83.43,67.38,83.42,67.22Zm-.79,1.93-.22,1.28c0,.17-.07.35-.1.53l.22-1.28C82.56,69.5,82.59,69.32,82.63,69.15Zm1-3.16c0,.11,0,.21,0,.32l-.09.15Zm0-2.42c0,.32,0,.64,0,1l-.21,1.23c0-.33,0-.65,0-1Zm.08-2.35c0,.31,0,.61-.06.92l-.21,1.23c0-.31,0-.62.06-.92Zm.22-1.44a21.84,21.84,0,0,0-.15,2.84v0c0,.61,0,1.23,0,1.85s0,1.06,0,1.58l0,0,0-1.47c0-.63,0-1.25,0-1.85h0A19.46,19.46,0,0,1,83.88,59.78Zm.39-.2,0,.3a.34.34,0,0,1,0-.1A1.18,1.18,0,0,1,84.27,59.58ZM85,58.46a7.15,7.15,0,0,0-.48.91l.22-1.28a5.27,5.27,0,0,1,.48-.91Zm2-2-.3.21a6.67,6.67,0,0,0-.64.53l.22-1.28a6.93,6.93,0,0,1,.64-.53l.3-.21Zm3-1.39a11.2,11.2,0,0,0-1.27.44L89,54.25a11.2,11.2,0,0,1,1.27-.44Zm3.49-.44a11.09,11.09,0,0,0-1.42.06l.22-1.28a13.26,13.26,0,0,1,1.42-.06Zm3.76.51c-.51-.13-1-.24-1.52-.32L96,53.56c.5.08,1,.19,1.51.32Zm3.82,1.45c-.51-.25-1-.48-1.52-.69l.22-1.28c.51.21,1,.44,1.52.7ZM104,58.37c-.35-.26-.72-.51-1.09-.74l.22-1.28c.37.24.74.48,1.09.74Zm2.53,2.14c-.31-.31-.63-.61-1-.89l.21-1.28c.34.29.66.59,1,.89ZM108.67,63q-.39-.53-.81-1l.21-1.28c.29.33.56.67.82,1Zm1.77,2.79c-.2-.38-.42-.76-.65-1.14l.22-1.28c.23.38.44.76.65,1.14Zm1.21,2.71c-.13-.36-.27-.72-.42-1.07l.22-1.28c.15.35.29.71.42,1.07Zm.93,1-.22,1.28-.18-.7.22-1.27Zm.16,3.19c0-.27-.09-.53-.14-.79l.22-1.28c.05.26.09.52.13.79Zm.21,2.14-.06-.88.22-1.28.06.88Zm0,2.34q0-.48,0-1L113.2,75c0,.31,0,.63,0,1Zm-.18,1.94.06-.42.21-1.28c0,.32-.08.65-.13,1S112.82,78.9,112.77,79.14Zm-.38,1.55.45-2.63c0,.43-.07.87-.12,1.31S112.51,80.24,112.39,80.69Zm-.43,2.5c.1-.25.19-.51.27-.76v0c-.08.25-.17.51-.26.76Zm-.32.84c.06-.13.11-.27.16-.4h0c0,.14-.1.27-.16.41ZM110.32,87q.47-.93.87-1.83h0Q110.79,86,110.32,87Zm1.15-4.68q0,.42.06.87l0,.31c-.06.16-.13.33-.2.5l0-.41Zm-.28-2c0,.26.09.52.13.79l-.22,1.28c0-.27-.08-.54-.13-.79Zm-.43-1.82.18.69-.22,1.28a7,7,0,0,0-.18-.69Zm-1-2.68c.15.35.29.7.43,1.06L110,78.07c-.13-.36-.28-.71-.43-1.06Zm-.41-1.6c-.18-.36-.36-.71-.56-1l1.24-7.25c.19.35.38.7.56,1.06a22.66,22.66,0,0,1,1.43,3.7,22.17,22.17,0,0,1,.8,6.77l-.69,4c-.16.54-.34,1.08-.55,1.63a21.37,21.37,0,0,0-.8-5.21A21,21,0,0,0,109.4,74.13Zm-1-1.18q.34.55.66,1.14l-.22,1.28q-.32-.59-.66-1.14Zm-1.93-2.68c.28.33.55.68.81,1L107,72.58c-.27-.35-.54-.7-.82-1Zm-2.32-2.36q.5.44,1,.9l-.21,1.28c-.32-.31-.64-.61-1-.9Zm-2.66-2c.37.24.74.49,1.1.75L102.34,68c-.36-.26-.72-.51-1.1-.75Zm-3.3-1.7a15.82,15.82,0,0,1,1.52.69l-.22,1.28c-.5-.26-1-.49-1.52-.7Zm-3.81-1.08c.5.08,1,.18,1.51.31l-.22,1.28c-.51-.13-1-.24-1.51-.32Zm1-7.8a18.24,18.24,0,0,1,5.77,1.89A21.76,21.76,0,0,1,109.59,65l-1.24,7.24a21.83,21.83,0,0,0-8.44-7.79,18.18,18.18,0,0,0-5.76-1.89ZM90.68,63c.47,0,.94-.06,1.43-.06l-.22,1.28c-.49,0-1,0-1.43.06Zm-3.33.82a12.65,12.65,0,0,1,1.27-.44l-.22,1.28a10.56,10.56,0,0,0-1.27.44Zm-2,.65a6.4,6.4,0,0,0-1.22,1.15l0-1.12c0-1.29-.07-2.55,0-3.75a6.5,6.5,0,0,1,2.47-3.52,11.59,11.59,0,0,1,7.72-2h0l-1.24,7.25A11.55,11.55,0,0,0,85.36,64.47Zm-.73,1c.2-.18.41-.36.64-.53l.3-.21-.22,1.28-.29.21a7.1,7.1,0,0,0-.65.53Zm-1.06,4.27a15.52,15.52,0,0,0,.18-1.7l0,0A16.16,16.16,0,0,1,83.57,69.78Zm-.18.68c0-.3,0-.6,0-.91l.21-1.23c0,.31,0,.61,0,.92Zm.12,1.27c.1-.33.18-.67.25-1L83.54,72c-.07.35-.15.69-.25,1Zm-1.44,5.78c0,.31,0,.61,0,.92l-.21,1.22c0-.3,0-.6,0-.91Zm-.16-1.42.17-.22v.24l-.21,1.23c0-.31,0-.62,0-.93Zm.55-2.15a8,8,0,0,0,.45-.73l-.22,1.28a6.24,6.24,0,0,1-.45.73Zm-.06-.44v0h0Zm.33-1.14.62-3.65c0,.76,0,1.51-.06,2.25A8,8,0,0,1,82.73,72.36Zm-.85,1.75L82,74h0ZM43.8,29.43,43,29.22l.22-1.28.84.21Zm3.69,1.17c-.6-.22-1.17-.41-1.69-.58L46,28.74c.52.17,1.09.36,1.69.58Zm5,2.18c-.7-.36-1.41-.7-2.09-1l.22-1.28c.68.31,1.38.64,2.09,1Zm3.06,1.75-1.06-.65.22-1.28,1.06.66Zm2.66,1.95c-.34-.29-.69-.56-1-.83l.22-1.27c.36.26.71.53,1,.82Zm4.12-7.22c-.31-.34-.62-.67-1-1L61.65,27c.32.32.64.65,1,1Zm2.11,2.81q-.37-.6-.78-1.17l.22-1.28q.41.57.78,1.17Zm1.34,2.75c-.13-.34-.27-.68-.42-1l.22-1.28c.15.33.29.66.42,1Zm.73,2.73c-.06-.38-.14-.75-.23-1.12l.22-1.27c.09.36.17.73.23,1.11ZM67,39.21l-.22,1.28c0-.39,0-.77,0-1.16L67,38.05C67,38.44,67,38.83,67,39.21Zm-.67,4.62a18.48,18.48,0,0,1-1,2.11v0a21,21,0,0,0,1-2.21Zm-1.7,4.76.15-.91c0,.16.06.32.08.49ZM62,58.48l.51-.75L62.31,59l-.51.76Zm-1.39,1.85.56-.72L61,60.84l-.56.72ZM59.15,62.1l.59-.69-.21,1.23-.59.69Zm-1.49,1.71.59-.67L58,64.37l-.59.67Zm-1.75,2,.71-.81-.21,1.23L55.7,67ZM54,69l.21-1.23c.21-.26.42-.53.64-.79l-.21,1.22Zm-.19,2.89-.05-.07a11,11,0,0,1-.64-1l0-.08c.16-.23.34-.46.51-.69l.33.48.05.07ZM56.38,75c-.34-.37-.69-.75-1-1.16l.21-1.28c.34.41.68.8,1,1.17Zm2.68,2.49c-.36-.29-.72-.59-1.08-.91l.22-1.28c.36.32.71.63,1.08.91Zm2.81,1.85c-.38-.2-.76-.42-1.13-.66L61,77.43c.37.24.75.46,1.13.66Zm2.93,1.21c-.39-.12-.79-.25-1.18-.4l.22-1.28c.39.15.78.28,1.18.4Zm3.11.57c-.43,0-.85-.09-1.28-.15l.22-1.28c.43.07.85.12,1.28.15ZM71.16,81c-.43.06-.87.1-1.3.13l.22-1.28c.43,0,.86-.07,1.3-.13Zm3.32-.82c-.45.15-.89.29-1.33.41l.22-1.28c.44-.12.88-.25,1.32-.41Zm3.36-1.52c-.45.25-.9.48-1.34.69l.22-1.28c.44-.21.89-.44,1.34-.69Zm4-6.13c0-.31,0-.61.06-.92l.21-1.22c0,.3,0,.6-.06.91Zm.2.91-.17.21.16-.92C82,73,82,73.23,82,73.47Zm-.35.86h0l-.08.07ZM80.25,77.2l-.36.24.22-1.28.36-.24c.25-.18.49-.36.71-.55L81,76.65C80.74,76.84,80.5,77,80.25,77.2Zm1.4,5.39.22-1.28a9.09,9.09,0,0,0,.25-1l-.22,1.28A9.09,9.09,0,0,1,81.65,82.59Zm-.94,1.1a7.18,7.18,0,0,0,.56-.91l-.22,1.28a8,8,0,0,1-.56.91Zm-2.24,2,.36-.25a7.87,7.87,0,0,0,.71-.55l-.22,1.28a8.3,8.3,0,0,1-.71.55l-.36.25Zm-3.39,1.93c.45-.21.89-.44,1.34-.68l-.22,1.28c-.44.24-.89.47-1.34.68Zm-3.35,1.24c.44-.11.88-.25,1.33-.41l-.22,1.28c-.44.16-.89.29-1.33.41Zm-3.29.54a11.45,11.45,0,0,0,1.3-.13l-.21,1.28c-.44.06-.87.11-1.31.13Zm-3.22-.16c.42.07.85.12,1.27.15l-.22,1.28c-.42,0-.85-.08-1.27-.15Zm-3-.82c.39.15.78.29,1.18.4l-.22,1.28c-.4-.11-.79-.25-1.18-.4Zm.14-.49,1.23-7.24a14.74,14.74,0,0,0,2.8.77c4.33.75,8.89-.46,13.53-3.61l-1.24,7.25c-4.64,3.14-9.19,4.35-13.53,3.6A14.44,14.44,0,0,1,62.35,88Zm-3-1c.38.23.75.45,1.13.66l-.22,1.27c-.38-.2-.75-.42-1.13-.65Zm-2.76-2.1c.36.32.72.62,1.08.91l-.22,1.27c-.36-.28-.72-.59-1.08-.91Zm-2.62-2.74c.34.4.68.79,1,1.16l-.21,1.28c-.35-.37-.69-.76-1-1.16Zm-2.2-3a10.41,10.41,0,0,0,.64,1l0,.06-.21,1.28-.05-.07a11,11,0,0,1-.64-1Zm-1-2.58a7.74,7.74,0,0,0,.28,1l-.22,1.28a7.74,7.74,0,0,1-.28-1Zm0-.86a12.26,12.26,0,0,1,2.14-4.58,11.67,11.67,0,0,0,.78,1.26,23.27,23.27,0,0,0,9,8l-1.24,7.24a23.27,23.27,0,0,1-9-8,10.8,10.8,0,0,1-.92-1.52A7.75,7.75,0,0,1,50.78,75.71ZM52.61,71l.06-.38.08.17C52.7,70.87,52.65,70.94,52.61,71Zm-.87.75c.11-.26.24-.53.38-.79l-.21,1.23a8.17,8.17,0,0,0-.38.79Zm-.65,2.43a7.16,7.16,0,0,0-.19.8l.21-1.23a7.73,7.73,0,0,1,.19-.8Zm-.48.88-.22,1.28a7.93,7.93,0,0,1,.09-1l.22-1.28A8.11,8.11,0,0,0,50.61,75.07Zm1.36-7c0,.11,0,.22,0,.33h0a7.67,7.67,0,0,0,.42,1.63,10.21,10.21,0,0,0-1.26,3.31l-.39,2.3c0-.11,0-.22-.05-.33Zm.68-.09-.21,1.27a8.05,8.05,0,0,1-.28-1L52.38,67A8.59,8.59,0,0,0,52.65,68Zm-.21-2a.09.09,0,0,1,0,.05.06.06,0,0,0,0,0Zm.87-3.42c.11-.26.24-.53.38-.79L53.48,63a8.17,8.17,0,0,0-.38.79Zm-.62,2.23c0-.14,0-.27,0-.41s.1-.41.16-.62Zm-.36-.28a6.35,6.35,0,0,0-.08,1L52,66.77a7.77,7.77,0,0,1,.09-1Zm2.26-4.8a11.38,11.38,0,0,0-1.81,4.2l-.06.39A10,10,0,0,1,54.59,59.72ZM54.71,61c-.19.26-.37.53-.53.79l.21-1.23c.16-.26.34-.52.53-.79Zm1.53-2-.64.8.21-1.23c.21-.26.42-.53.64-.79Zm-.19.65-1.19,7c-.47.57-.91,1.14-1.31,1.7l0,0a7.58,7.58,0,0,1-.84-3.17A18.33,18.33,0,0,1,56.05,59.69Zm.48-.58c.67-.79,1.38-1.6,2.11-2.42a54.83,54.83,0,0,0,5.45-6.87l-1.18,7a54.18,54.18,0,0,1-5.46,6.87c-.73.83-1.44,1.63-2.11,2.42Zm8.32-12.34v0l.2-.36v.06ZM58,57l-.71.81.21-1.23.71-.81Zm1.63-1.84c-.2.22-.4.44-.59.67l.21-1.23.59-.67Zm1.49-1.74-.59.7.21-1.23.59-.69Zm1.44-1.8c-.18.25-.37.49-.56.73l.21-1.23.56-.72Zm1-2.35.51-.75-.21,1.22-.51.76Zm1.07-2.21v0c-.21.35-.44.69-.67,1C64.21,47.78,64.44,47.44,64.65,47.08Zm.26-2.35c.07.28.12.56.18.85l-.35.63c0-.06,0-.13,0-.2ZM64,42.11c.14.33.28.66.41,1l-.22,1.28c-.13-.35-.26-.68-.41-1Zm-1.71-2.92c.27.38.54.77.78,1.17l-.22,1.28q-.36-.6-.78-1.17ZM60,36.57q.5.48,1,1l-.22,1.28c-.31-.35-.63-.68-1-1Zm.86-8.2a19.08,19.08,0,0,1,4.21,5.48,15.36,15.36,0,0,1,1.55,5.48,14.69,14.69,0,0,1,0,2.39,17.94,17.94,0,0,1-1.41,3.6,15.57,15.57,0,0,0-1.39-4.23,18.9,18.9,0,0,0-4.21-5.48Zm-1.8-3.57c.35.26.7.54,1,.82L59.9,26.9c-.35-.28-.7-.56-1-.82ZM56.39,23c.36.2.71.42,1.06.65L57.24,25l-1.06-.66Zm-4.09-2.1c.69.3,1.39.63,2.1,1l-.22,1.27q-1.07-.54-2.1-1Zm-4.64-1.76c.52.17,1.08.36,1.69.58L49.13,21c-.6-.21-1.17-.41-1.69-.57Zm-2.84-.81.84.22-.22,1.28-.84-.22Z" style="fill: #263238"/>
      </g>
      <path d="M61.51,87.63a23.27,23.27,0,0,1-9-8,10.8,10.8,0,0,1-.92-1.52,7.71,7.71,0,0,1-.81-2.76L52,68.11a7.77,7.77,0,0,0,.81,2.76,11.4,11.4,0,0,0,.92,1.52,23.27,23.27,0,0,0,9,8l-1.24,7.24" style="fill: #fff"/>
      <path d="M78.67,85.15c-4.64,3.14-9.19,4.35-13.53,3.6A14.44,14.44,0,0,1,62.35,88l1.23-7.24a14.74,14.74,0,0,0,2.8.77c4.33.75,8.89-.46,13.53-3.6l-1.24,7.24" style="fill: #fff"/>
      <path d="M83.5,72.26a7.94,7.94,0,0,1-2.81,5.08l-1.24,7.24a7.92,7.92,0,0,0,2.81-5.07l1.24-7.25" style="fill: #fff"/>
      <path d="M112.33,83.2a33.85,33.85,0,0,1-4.5,9.81L106.64,100a34.73,34.73,0,0,0,4.5-9.81l1.19-7" style="fill: #fff"/>
      <path d="M66.8,43.17a17.75,17.75,0,0,1-2.36,6.09l-1.19,7a18.33,18.33,0,0,0,2.36-6.09l1.19-6.95" style="fill: #fff"/>
      <g>
        <path d="M64.73,46.47c-.06-.38,0-.1,0-.46l.22-1.28c.09.36.17.74.24,1.12l-.42.62" style="fill: #fff"/>
        <path d="M54.67,68.23,54,69l.21-1.23c.21-.26.42-.53.64-.79l-.21,1.22" style="fill: #fff"/>
        <path d="M56.41,66.21,55.7,67l.21-1.23.71-.81-.21,1.23" style="fill: #fff"/>
        <path d="M58,64.37l-.59.67.21-1.23.59-.67L58,64.37" style="fill: #fff"/>
        <path d="M59.53,62.64l-.59.69.21-1.23.59-.69-.21,1.23" style="fill: #fff"/>
        <path d="M61,60.84l-.56.72.21-1.23.56-.72L61,60.84" style="fill: #fff"/>
        <path d="M62.31,59l-.51.76L62,58.48l.51-.75L62.31,59" style="fill: #fff"/>
        <path d="M63.49,57c-.14.27-.29.53-.44.8l.21-1.23c.15-.26.3-.53.44-.8L63.49,57" style="fill: #fff"/>
        <path d="M64.45,54.91c-.11.28-.22.56-.35.84l.21-1.23c.12-.28.24-.56.35-.84l-.21,1.23" style="fill: #fff"/>
        <path d="M65.14,52.72c-.07.3-.15.59-.24.89l.21-1.23c.09-.29.17-.59.24-.89l-.21,1.23" style="fill: #fff"/>
        <path d="M53.48,63a8.17,8.17,0,0,0-.38.79l.21-1.23c.11-.26.24-.53.38-.79L53.48,63" style="fill: #fff"/>
        <path d="M54.71,61c-.19.26-.37.53-.53.79l.21-1.23c.16-.26.34-.52.53-.79L54.71,61" style="fill: #fff"/>
        <path d="M56.24,59l-.64.8.21-1.23c.21-.26.42-.53.64-.79L56.24,59" style="fill: #fff"/>
        <path d="M58,57l-.71.81.21-1.23.71-.81L58,57" style="fill: #fff"/>
        <path d="M59.61,55.18c-.2.22-.4.44-.59.67l.21-1.23.59-.67-.21,1.23" style="fill: #fff"/>
        <path d="M61.1,53.44l-.59.7.21-1.23.59-.69-.21,1.22" style="fill: #fff"/>
        <path d="M62.54,51.64c-.18.25-.37.49-.56.73l.21-1.23.56-.72-.21,1.22" style="fill: #fff"/>
        <path d="M63.88,49.76l-.51.76.21-1.23.51-.75-.21,1.22" style="fill: #fff"/>
        <path d="M65.06,47.79c-.14.27-.29.53-.44.8l.21-1.23c.15-.26.3-.53.44-.8l-.21,1.23" style="fill: #fff"/>
        <path d="M66,45.72c-.11.28-.22.56-.35.83l.21-1.22c.13-.28.24-.56.35-.84L66,45.72" style="fill: #fff"/>
        <path d="M82.63,69.15c0,.17-.07.35-.1.53L82.31,71c0-.18.06-.36.1-.53l.22-1.28" style="fill: #fff"/>
        <path d="M83.38,68a6.66,6.66,0,0,0-.49.91l.22-1.28a8.82,8.82,0,0,1,.48-.91L83.38,68" style="fill: #fff"/>
        <path d="M85.35,66.05l-.29.21a7.1,7.1,0,0,0-.65.53l.22-1.28c.2-.18.41-.36.64-.53l.3-.21-.22,1.28" style="fill: #fff"/>
        <path d="M88.4,64.66a10.56,10.56,0,0,0-1.27.44l.22-1.28a12.65,12.65,0,0,1,1.27-.44l-.22,1.28" style="fill: #fff"/>
        <path d="M91.89,64.22c-.49,0-1,0-1.43.06L90.68,63c.47,0,.94-.06,1.43-.06l-.22,1.28" style="fill: #fff"/>
        <path d="M95.64,64.73c-.51-.13-1-.24-1.51-.32l.22-1.27c.5.08,1,.18,1.51.31l-.22,1.28" style="fill: #fff"/>
        <path d="M99.46,66.19c-.5-.26-1-.49-1.52-.7l.22-1.27a15.82,15.82,0,0,1,1.52.69l-.22,1.28" style="fill: #fff"/>
        <path d="M102.34,68c-.36-.26-.72-.51-1.1-.75l.22-1.28c.37.24.74.49,1.1.75L102.34,68" style="fill: #fff"/>
        <path d="M104.87,70.09c-.32-.31-.64-.61-1-.9l.22-1.28q.5.44,1,.9l-.21,1.28" style="fill: #fff"/>
        <path d="M107,72.58c-.27-.35-.54-.7-.82-1l.22-1.28c.28.33.55.68.81,1L107,72.58" style="fill: #fff"/>
        <path d="M108.81,75.37q-.32-.59-.66-1.14l.22-1.28q.34.55.66,1.14l-.22,1.28" style="fill: #fff"/>
        <path d="M110,78.07c-.13-.36-.28-.71-.43-1.06l.22-1.28c.15.35.29.7.43,1.06L110,78.07" style="fill: #fff"/>
        <path d="M110.72,80.38a7,7,0,0,0-.18-.69l.22-1.28.18.69-.22,1.28" style="fill: #fff"/>
        <path d="M111.1,82.3c0-.27-.08-.54-.13-.79l.22-1.28c0,.26.09.52.13.79l-.22,1.28" style="fill: #fff"/>
        <path d="M111.31,84.43c0-.3,0-.59-.06-.88l.22-1.27q0,.42.06.87l-.22,1.28" style="fill: #fff"/>
        <path d="M111.31,86.78q0-.5,0-1l.22-1.28q0,.46,0,1l-.22,1.28" style="fill: #fff"/>
        <path d="M111.05,89.33c0-.35.1-.7.14-1l.22-1.28c0,.34-.09.69-.14,1l-.22,1.28" style="fill: #fff"/>
        <path d="M84.27,59.58c0,.17-.08.35-.11.52L84,61.38c0-.18.06-.35.1-.52l.22-1.28" style="fill: #fff"/>
        <path d="M85,58.46a7.15,7.15,0,0,0-.48.91l.22-1.28a5.27,5.27,0,0,1,.48-.91L85,58.46" style="fill: #fff"/>
        <path d="M87,56.48l-.3.21a6.67,6.67,0,0,0-.64.53l.22-1.28a6.93,6.93,0,0,1,.64-.53l.3-.21L87,56.48" style="fill: #fff"/>
        <path d="M90,55.09a11.2,11.2,0,0,0-1.27.44L89,54.25a11.2,11.2,0,0,1,1.27-.44L90,55.09" style="fill: #fff"/>
        <path d="M93.52,54.65a11.09,11.09,0,0,0-1.42.06l.22-1.28a13.26,13.26,0,0,1,1.42-.06l-.22,1.28" style="fill: #fff"/>
        <path d="M97.28,55.16c-.51-.13-1-.24-1.52-.32L96,53.56c.5.08,1,.19,1.51.32l-.21,1.28" style="fill: #fff"/>
        <path d="M101.1,56.61c-.51-.25-1-.48-1.52-.69l.22-1.28c.51.21,1,.44,1.52.7l-.22,1.27" style="fill: #fff"/>
        <path d="M104,58.37c-.35-.26-.72-.51-1.09-.74l.22-1.28c.37.24.74.48,1.09.74L104,58.37" style="fill: #fff"/>
        <path d="M106.5,60.51c-.31-.31-.63-.61-1-.89l.21-1.28c.34.29.66.59,1,.89l-.22,1.28" style="fill: #fff"/>
        <path d="M108.67,63q-.39-.53-.81-1l.21-1.28c.29.33.56.67.82,1L108.67,63" style="fill: #fff"/>
        <path d="M110.44,65.79c-.2-.38-.42-.76-.65-1.14l.22-1.28c.23.38.44.76.65,1.14l-.22,1.28" style="fill: #fff"/>
        <path d="M111.65,68.5c-.13-.36-.27-.72-.42-1.07l.22-1.28c.15.35.29.71.42,1.07l-.22,1.28" style="fill: #fff"/>
        <path d="M112.36,70.81l-.18-.7.22-1.27.18.69-.22,1.28" style="fill: #fff"/>
        <path d="M112.74,72.72c0-.27-.09-.53-.14-.79l.22-1.28c.05.26.09.52.13.79l-.21,1.28" style="fill: #fff"/>
        <path d="M113,74.86l-.06-.88.22-1.28.06.88L113,74.86" style="fill: #fff"/>
        <path d="M113,77.2q0-.48,0-1L113.2,75c0,.31,0,.63,0,1L113,77.2" style="fill: #fff"/>
        <path d="M112.69,79.75c0-.35.1-.69.14-1l.21-1.28c0,.34-.08.68-.14,1l-.21,1.27" style="fill: #fff"/>
        <path d="M81.82,72.56c0-.31,0-.61.06-.92l.21-1.22c0,.3,0,.6-.06.91l-.21,1.23" style="fill: #fff"/>
        <path d="M83.39,63.37c0-.31,0-.62.06-.92l.21-1.23c0,.31,0,.61-.06.92l-.21,1.23" style="fill: #fff"/>
        <path d="M83.38,65.77c0-.33,0-.65,0-1l.21-1.23c0,.32,0,.64,0,1l-.21,1.23" style="fill: #fff"/>
        <path d="M83.44,68.15c0-.31,0-.62,0-.93L83.63,66c0,.31,0,.62,0,.93l-.21,1.23" style="fill: #fff"/>
        <path d="M83.39,70.46c0-.3,0-.6,0-.91l.21-1.23c0,.31,0,.61,0,.92l-.21,1.22" style="fill: #fff"/>
        <path d="M83.43,70.61v0l-.21,1.23h0l.21-1.22" style="fill: #fff"/>
        <path d="M50.8,78.87a7.74,7.74,0,0,1-.28-1l.22-1.28a7.74,7.74,0,0,0,.28,1l-.22,1.28" style="fill: #fff"/>
        <path d="M52.21,81.49l-.05-.07a11,11,0,0,1-.64-1l.22-1.28a10.41,10.41,0,0,0,.64,1l0,.06-.21,1.28" style="fill: #fff"/>
        <path d="M54.75,84.61c-.35-.37-.69-.76-1-1.16l.22-1.28c.34.4.68.79,1,1.16l-.21,1.28" style="fill: #fff"/>
        <path d="M57.42,87.09c-.36-.28-.72-.59-1.08-.91l.22-1.27c.36.32.72.62,1.08.91l-.22,1.27" style="fill: #fff"/>
        <path d="M60.23,88.94c-.38-.2-.75-.42-1.13-.65L59.32,87c.38.23.75.45,1.13.66l-.22,1.27" style="fill: #fff"/>
        <path d="M63.17,90.15c-.4-.11-.79-.25-1.18-.4l.22-1.28c.39.15.78.29,1.18.4l-.22,1.28" style="fill: #fff"/>
        <path d="M66.27,90.72c-.42,0-.85-.08-1.27-.15l.22-1.28c.42.07.85.12,1.27.15l-.22,1.28" style="fill: #fff"/>
        <path d="M69.53,90.6c-.44.06-.87.11-1.31.13l.22-1.28a11.45,11.45,0,0,0,1.3-.13l-.21,1.28" style="fill: #fff"/>
        <path d="M72.84,89.78c-.44.16-.89.29-1.33.41l.22-1.28c.44-.11.88-.25,1.33-.41l-.22,1.28" style="fill: #fff"/>
        <path d="M76.2,88.27c-.44.24-.89.47-1.34.68l.22-1.28c.45-.21.89-.44,1.34-.68l-.22,1.28" style="fill: #fff"/>
        <path d="M79.32,86.22a8.3,8.3,0,0,1-.71.55l-.36.25.22-1.28.36-.25a7.87,7.87,0,0,0,.71-.55l-.22,1.28" style="fill: #fff"/>
        <path d="M81.05,84.06a8,8,0,0,1-.56.91l.22-1.28a7.18,7.18,0,0,0,.56-.91l-.22,1.28" style="fill: #fff"/>
        <path d="M81.9,81.56a9.09,9.09,0,0,1-.25,1l.22-1.28a9.09,9.09,0,0,0,.25-1l-.22,1.28" style="fill: #fff"/>
        <path d="M52.44,69.29a8.05,8.05,0,0,1-.28-1L52.38,67a8.59,8.59,0,0,0,.27,1l-.21,1.27" style="fill: #fff"/>
        <path d="M53.84,71.92l-.05-.07a11,11,0,0,1-.64-1l.22-1.28a11,11,0,0,0,.64,1l.05.07-.22,1.28" style="fill: #fff"/>
        <path d="M56.38,75c-.34-.37-.69-.75-1-1.16l.21-1.28c.34.41.68.8,1,1.17L56.38,75" style="fill: #fff"/>
        <path d="M59.06,77.52c-.36-.29-.72-.59-1.08-.91l.22-1.28c.36.32.71.63,1.08.91l-.22,1.28" style="fill: #fff"/>
        <path d="M61.87,79.37c-.38-.2-.76-.42-1.13-.66L61,77.43c.37.24.75.46,1.13.66l-.22,1.28" style="fill: #fff"/>
        <path d="M64.8,80.58c-.39-.12-.79-.25-1.18-.4l.22-1.28c.39.15.78.28,1.18.4l-.22,1.28" style="fill: #fff"/>
        <path d="M67.91,81.15c-.43,0-.85-.09-1.28-.15l.22-1.28c.43.07.85.12,1.28.15l-.22,1.28" style="fill: #fff"/>
        <path d="M71.16,81c-.43.06-.87.1-1.3.13l.22-1.28c.43,0,.86-.07,1.3-.13L71.16,81" style="fill: #fff"/>
        <path d="M74.48,80.21c-.45.15-.89.29-1.33.41l.22-1.28c.44-.12.88-.25,1.32-.41l-.21,1.28" style="fill: #fff"/>
        <path d="M77.84,78.69c-.45.25-.9.48-1.34.69l.22-1.28c.44-.21.89-.44,1.34-.69l-.22,1.28" style="fill: #fff"/>
        <path d="M81,76.65c-.22.19-.46.37-.71.55l-.36.24.22-1.28.36-.24c.25-.18.49-.36.71-.55L81,76.65" style="fill: #fff"/>
        <path d="M82.69,74.49a7.16,7.16,0,0,1-.57.9l.22-1.28a7.16,7.16,0,0,0,.57-.9l-.22,1.28" style="fill: #fff"/>
        <path d="M83.54,72c-.07.35-.15.69-.25,1l.22-1.28c.1-.33.18-.67.25-1L83.54,72" style="fill: #fff"/>
        <path d="M107,100.62q-.26.43-.54.87l.21-1.23q.28-.44.54-.87l-.21,1.23" style="fill: #fff"/>
        <path d="M108.23,98.49c-.15.28-.3.56-.46.84L108,98.1c.16-.28.31-.56.46-.84l-.21,1.23" style="fill: #fff"/>
        <path d="M109.23,96.42c-.12.27-.24.54-.37.81l.21-1.22.37-.82-.21,1.23" style="fill: #fff"/>
        <path d="M110,94.42c-.09.26-.19.52-.3.79L110,94q.17-.39.3-.78L110,94.42" style="fill: #fff"/>
        <path d="M110.67,92.5c-.07.25-.14.5-.23.76l.21-1.23c.09-.26.16-.51.23-.76l-.21,1.23" style="fill: #fff"/>
        <path d="M111.14,90.65c0,.24-.1.48-.16.73l.21-1.23c.06-.24.11-.48.16-.72l-.21,1.22" style="fill: #fff"/>
        <path d="M111.58,88.28l0,.07-.21,1.23,0-.07.21-1.23" style="fill: #fff"/>
        <path d="M108.58,91.43q-.26.43-.54.87l.21-1.23q.28-.43.54-.87l-.21,1.23" style="fill: #fff"/>
        <path d="M109.8,89.3c-.15.28-.3.56-.46.84l.21-1.23c.16-.28.31-.56.46-.84l-.21,1.23" style="fill: #fff"/>
        <path d="M110.8,87.23c-.12.27-.24.54-.37.81l.21-1.23c.13-.27.25-.54.37-.81l-.21,1.23" style="fill: #fff"/>
        <path d="M111.61,85.23c-.09.26-.19.52-.3.79l.21-1.23q.17-.39.3-.78l-.21,1.22" style="fill: #fff"/>
        <path d="M112.25,83.31c-.08.25-.15.5-.24.75l.21-1.22c.09-.26.16-.51.23-.76l-.2,1.23" style="fill: #fff"/>
        <path d="M112.71,81.46c0,.24-.1.48-.16.73l.21-1.23c.06-.24.11-.48.16-.72l-.21,1.22" style="fill: #fff"/>
        <path d="M113.15,79.09l0,.07-.21,1.23,0-.07.21-1.23" style="fill: #fff"/>
      </g>
      <path d="M83.6,69.24c0-.92.06-2,.05-2.32a53.47,53.47,0,0,1,.24-7.23L82.3,69a15.57,15.57,0,0,0-.45,4.72c0,.3.94-1.39.94-1.09l.5-1.63" style="fill: #fff"/>
    </g>
    <g>
      <path d="M29.7,39.76c11.11,4.73,22.72,2.45,25.93-5.09L53.2,40.38C50,47.92,38.39,50.2,27.27,45.47S9.74,30.8,13,23.26l2.43-5.71C12.17,25.09,18.58,35,29.7,39.76Z" style="fill: #575757"/>
      <ellipse cx="35.5" cy="26.11" rx="14.83" ry="21.87" transform="translate(-2.42 48.56) rotate(-66.96)" style="fill: #263238"/>
    </g>
    <g>
      <path d="M22,43.69a9.35,9.35,0,0,1-2.43-2,7,7,0,0,1-1.35-2.39A5.21,5.21,0,0,1,18,36.83a4.73,4.73,0,0,1,1-2.25A5.84,5.84,0,0,1,21.16,33a8,8,0,0,1,2.75-.71,9.84,9.84,0,0,1,3,.21,10.39,10.39,0,0,1,3,1.15,8.91,8.91,0,0,1,2.39,1.93,6.93,6.93,0,0,1,1.39,2.32A5.22,5.22,0,0,1,34,40.33a4.67,4.67,0,0,1-1,2.29A5.81,5.81,0,0,1,31,44.3a8.11,8.11,0,0,1-2.79.77,10.06,10.06,0,0,1-3.12-.19A10.68,10.68,0,0,1,22,43.69m8.52-15.15-.21-.14a1.56,1.56,0,0,1-.2-.16l-.18-.17-.15-.19a1.65,1.65,0,0,1-.26-.62,1.25,1.25,0,0,1,.05-.58,1.1,1.1,0,0,1,.33-.48,1.6,1.6,0,0,1,.59-.33,1.93,1.93,0,0,1,.49-.09,2.92,2.92,0,0,1,.51,0,4.05,4.05,0,0,1,.5.12,4,4,0,0,1,.47.21,1.64,1.64,0,0,1,.22.14l.19.15.18.18a.9.9,0,0,1,.15.19,1.49,1.49,0,0,1,.27.61,1.13,1.13,0,0,1,0,.58,1.19,1.19,0,0,1-.32.49,1.6,1.6,0,0,1-.59.33,1.93,1.93,0,0,1-.49.09,2.18,2.18,0,0,1-.51,0,3.81,3.81,0,0,1-.51-.12,3.48,3.48,0,0,1-.48-.21m-19-.32a9.19,9.19,0,0,1-1.61-1.16,7.31,7.31,0,0,1-1.23-1.4,6,6,0,0,1-.77-1.56,5.15,5.15,0,0,1-.24-1.65,4.45,4.45,0,0,1,.7-2.25,5.39,5.39,0,0,1,1.75-1.67,7.58,7.58,0,0,1,2.52-.94,10,10,0,0,1,3.05-.07c.35.05.7.11,1,.19s.68.17,1,.28a9.85,9.85,0,0,1,.95.37,9,9,0,0,1,.88.44,9.28,9.28,0,0,1,1.59,1.13,7.79,7.79,0,0,1,1.23,1.35,6.19,6.19,0,0,1,.79,1.53,4.83,4.83,0,0,1,.29,1.63,4.48,4.48,0,0,1-.61,2.27,5.29,5.29,0,0,1-1.7,1.73,7.38,7.38,0,0,1-2.54,1,9.7,9.7,0,0,1-3.11.1,9.58,9.58,0,0,1-1.07-.19,8.7,8.7,0,0,1-1-.29,10.22,10.22,0,0,1-1-.37c-.32-.15-.62-.3-.91-.47M35,31.1a2.55,2.55,0,0,1-.41-.3,2.15,2.15,0,0,1-.33-.35,1.93,1.93,0,0,1-.21-.4,1.31,1.31,0,0,1-.08-.43,1.24,1.24,0,0,1,.14-.58,1.35,1.35,0,0,1,.42-.44,2,2,0,0,1,.62-.25,2.19,2.19,0,0,1,.77,0l.27.05.25.07.24.09.23.12a2.42,2.42,0,0,1,.42.29,2.17,2.17,0,0,1,.32.36,1.47,1.47,0,0,1,.21.39,1.27,1.27,0,0,1,.09.43,1,1,0,0,1-.14.58,1.32,1.32,0,0,1-.41.44,1.78,1.78,0,0,1-.63.26,2.78,2.78,0,0,1-.77,0l-.27-.05-.25-.07-.25-.1L35,31.1M43,46a9.9,9.9,0,0,1-.87-.56,8.3,8.3,0,0,1-.8-.64,8.15,8.15,0,0,1-.72-.72A6.82,6.82,0,0,1,40,43.3a6.58,6.58,0,0,1-1.1-2.53,4.84,4.84,0,0,1,.13-2.4,4.61,4.61,0,0,1,1.25-2A6,6,0,0,1,42.53,35a7.87,7.87,0,0,1,1.93-.39,9,9,0,0,1,2,0,10.73,10.73,0,0,1,2,.46,10.9,10.9,0,0,1,1.88.84c.3.17.58.35.86.54s.54.4.79.62a7.82,7.82,0,0,1,.71.7,7.47,7.47,0,0,1,.63.76,6.72,6.72,0,0,1,1.15,2.49,5,5,0,0,1,0,2.4,4.77,4.77,0,0,1-1.18,2A6.11,6.11,0,0,1,51,47a8.48,8.48,0,0,1-1.95.43,9.48,9.48,0,0,1-2.06,0,9.76,9.76,0,0,1-2.06-.47A10.2,10.2,0,0,1,43,46M30.4,24.55h0a2.38,2.38,0,0,1-.59-.48,1.65,1.65,0,0,1-.34-.56,1.21,1.21,0,0,1-.06-.59,1.11,1.11,0,0,1,.24-.53,1.43,1.43,0,0,1,.52-.38,2.06,2.06,0,0,1,.67-.17,2.4,2.4,0,0,1,.75.06,2.71,2.71,0,0,1,.74.29h0a2.31,2.31,0,0,1,.59.47,1.75,1.75,0,0,1,.34.56,1.2,1.2,0,0,1,.06.59,1,1,0,0,1-.24.53,1.38,1.38,0,0,1-.5.39,1.94,1.94,0,0,1-.68.16,2.48,2.48,0,0,1-.76-.05,2.71,2.71,0,0,1-.74-.29m9,5.07h0a2.46,2.46,0,0,1-.6-.49,1.63,1.63,0,0,1-.35-.57,1.22,1.22,0,0,1-.07-.59,1.07,1.07,0,0,1,.23-.55,1.36,1.36,0,0,1,.5-.38,1.84,1.84,0,0,1,.67-.17,2.41,2.41,0,0,1,.75.05,3,3,0,0,1,.74.28h0a2.44,2.44,0,0,1,.6.48,1.73,1.73,0,0,1,.35.57,1.34,1.34,0,0,1,.08.59,1.2,1.2,0,0,1-.23.55,1.5,1.5,0,0,1-.5.39,2.06,2.06,0,0,1-.67.17,2.73,2.73,0,0,1-.75-.05,2.65,2.65,0,0,1-.75-.29m-4.66-6.49a2.46,2.46,0,0,1-.41-.28,2.07,2.07,0,0,1-.32-.35,1.47,1.47,0,0,1-.21-.39,1.15,1.15,0,0,1-.08-.41,1,1,0,0,1,.14-.56,1.27,1.27,0,0,1,.41-.42,1.85,1.85,0,0,1,.61-.24,2.41,2.41,0,0,1,.76,0l.26,0,.25.07.24.1.22.11a2.46,2.46,0,0,1,.41.28,2.11,2.11,0,0,1,.32.35,1.58,1.58,0,0,1,.21.38,1.19,1.19,0,0,1,.08.41,1,1,0,0,1-.14.57,1.23,1.23,0,0,1-.4.42,1.91,1.91,0,0,1-.62.24,2.39,2.39,0,0,1-.76,0l-.26-.05-.25-.07L35,23.25a1.55,1.55,0,0,1-.22-.12m4.48,2.51-.21-.14a1.49,1.49,0,0,1-.2-.15l-.18-.17L38.52,25a1.6,1.6,0,0,1-.27-.6,1.21,1.21,0,0,1,0-.57,1.14,1.14,0,0,1,.31-.48,1.73,1.73,0,0,1,.57-.32,2.54,2.54,0,0,1,.48-.09,2.79,2.79,0,0,1,.5,0,2.15,2.15,0,0,1,.5.12,2.18,2.18,0,0,1,.47.21l.21.13.2.15.17.17c.06.06.11.13.16.19a1.43,1.43,0,0,1,.26.6,1.09,1.09,0,0,1,0,.57,1.11,1.11,0,0,1-.3.48,1.44,1.44,0,0,1-.57.32,2,2,0,0,1-.49.09,2.8,2.8,0,0,1-.5,0,4.05,4.05,0,0,1-.5-.12,4,4,0,0,1-.47-.21M21.7,16a8.63,8.63,0,0,1-.82-.51,7.09,7.09,0,0,1-.74-.59,6.86,6.86,0,0,1-.67-.65,7.83,7.83,0,0,1-.57-.72A5.53,5.53,0,0,1,18,11.27a4.12,4.12,0,0,1,.23-2.13,4.37,4.37,0,0,1,1.29-1.76,6.19,6.19,0,0,1,2.26-1.16,8.91,8.91,0,0,1,1.87-.31A10.62,10.62,0,0,1,25.55,6a10.8,10.8,0,0,1,1.91.45,10.15,10.15,0,0,1,1.78.79,8.24,8.24,0,0,1,.8.5,6.84,6.84,0,0,1,.74.56,8,8,0,0,1,.66.64,6.13,6.13,0,0,1,.57.69,5.55,5.55,0,0,1,1,2.24A4,4,0,0,1,32.86,14a4.25,4.25,0,0,1-1.23,1.8A6,6,0,0,1,29.39,17a8.69,8.69,0,0,1-1.91.34,10.25,10.25,0,0,1-2-.07,11.15,11.15,0,0,1-2-.46A10.75,10.75,0,0,1,21.7,16M52.31,33a9.75,9.75,0,0,1-1.64-1.14,8.83,8.83,0,0,1-1.29-1.39,6.59,6.59,0,0,1-.87-1.54,5.33,5.33,0,0,1-.37-1.64,4.14,4.14,0,0,1,.47-2.23,4.52,4.52,0,0,1,1.51-1.66,6.27,6.27,0,0,1,2.32-.95,9.21,9.21,0,0,1,2.89-.08c.35.05.68.11,1,.19s.66.17,1,.27.63.23.93.36.6.28.89.44a10.92,10.92,0,0,1,1.61,1.11A8.5,8.5,0,0,1,62,26.09a7.34,7.34,0,0,1,.9,1.51,5.52,5.52,0,0,1,.41,1.62A4.33,4.33,0,0,1,63,31.48a4.63,4.63,0,0,1-1.47,1.71,6,6,0,0,1-2.32,1,8.51,8.51,0,0,1-3,.11,9,9,0,0,1-1-.18c-.34-.08-.67-.17-1-.28a10,10,0,0,1-1-.37,9.51,9.51,0,0,1-.9-.46M41.52,18.47a9.3,9.3,0,0,1-2.31-1.8,6.48,6.48,0,0,1-1.34-2.13,4.54,4.54,0,0,1-.28-2.19,4,4,0,0,1,.87-2A5.11,5.11,0,0,1,40.35,9a7.45,7.45,0,0,1,2.51-.58,10.07,10.07,0,0,1,2.81.23,10.77,10.77,0,0,1,2.8,1.07,9.36,9.36,0,0,1,2.28,1.75,6.63,6.63,0,0,1,1.37,2.08,4.61,4.61,0,0,1,.34,2.17,3.89,3.89,0,0,1-.8,2,4.85,4.85,0,0,1-1.85,1.45,7.35,7.35,0,0,1-2.54.63,9.75,9.75,0,0,1-2.87-.22,10.89,10.89,0,0,1-2.88-1.1M50.81,7A45.4,45.4,0,0,0,39,2.53a42.46,42.46,0,0,0-11.94-1A33.85,33.85,0,0,0,16.12,3.89,24,24,0,0,0,7.43,9.82a18.63,18.63,0,0,0-4.58,8.73,20.08,20.08,0,0,0,.48,10,27.86,27.86,0,0,0,5.49,10A38.85,38.85,0,0,0,19.11,47a45.32,45.32,0,0,0,13.22,5.11,42.21,42.21,0,0,0,13.26.76,32,32,0,0,0,11.48-3.35,22.19,22.19,0,0,0,8.1-7.08,18.34,18.34,0,0,0,3.17-9.35,21.79,21.79,0,0,0-1.8-9.7,30.15,30.15,0,0,0-6-9A40.07,40.07,0,0,0,50.81,7" style="fill: #fff;stroke: #252d31;stroke-miterlimit: 10;stroke-width: 0.200000002980232px"/>
      <path d="M22.6,42.36a9.3,9.3,0,0,1-2.42-2A6.88,6.88,0,0,1,18.82,38a5.21,5.21,0,0,1-.19-2.47,4.82,4.82,0,0,1,1-2.25,5.84,5.84,0,0,1,2.12-1.61,8,8,0,0,1,2.75-.71,9.82,9.82,0,0,1,3,.21,10.28,10.28,0,0,1,3,1.15A9.13,9.13,0,0,1,33,34.22a7.27,7.27,0,0,1,1.39,2.32A5.35,5.35,0,0,1,34.64,39a4.76,4.76,0,0,1-1,2.29A5.85,5.85,0,0,1,31.59,43a8.12,8.12,0,0,1-2.78.77,10,10,0,0,1-3.12-.19,10.63,10.63,0,0,1-3.09-1.19m8.52-15.15-.21-.14a1.56,1.56,0,0,1-.2-.16,1.37,1.37,0,0,1-.17-.17c-.06-.06-.11-.13-.16-.19a1.65,1.65,0,0,1-.26-.62,1.25,1.25,0,0,1,.05-.58,1.29,1.29,0,0,1,.33-.48,1.68,1.68,0,0,1,.59-.33,2,2,0,0,1,.49-.09,2.9,2.9,0,0,1,.51,0,4.05,4.05,0,0,1,.5.12,3.48,3.48,0,0,1,.48.21l.21.14.2.15.17.18a1.46,1.46,0,0,1,.16.19,1.61,1.61,0,0,1,.26.61,1.25,1.25,0,0,1,0,.58,1.22,1.22,0,0,1-.33.49,1.63,1.63,0,0,1-.58.33,2.1,2.1,0,0,1-.5.09,2.18,2.18,0,0,1-.51,0,4.7,4.7,0,0,1-.51-.12,3.48,3.48,0,0,1-.48-.21m-19-.32a9.58,9.58,0,0,1-1.61-1.16,7.67,7.67,0,0,1-1.23-1.4,6,6,0,0,1-.77-1.56,4.88,4.88,0,0,1-.23-1.65A4.36,4.36,0,0,1,9,18.87a5.46,5.46,0,0,1,1.74-1.67,7.63,7.63,0,0,1,2.53-.94,9.9,9.9,0,0,1,3-.07c.36,0,.7.11,1,.19a9.73,9.73,0,0,1,1,.28,9.85,9.85,0,0,1,1,.37,9.09,9.09,0,0,1,2.47,1.57A7.41,7.41,0,0,1,23,20a6.59,6.59,0,0,1,.8,1.53,5.08,5.08,0,0,1,.28,1.63,4.29,4.29,0,0,1-.61,2.27,5.2,5.2,0,0,1-1.7,1.73,7.41,7.41,0,0,1-2.53,1,9.76,9.76,0,0,1-3.12.1A9.58,9.58,0,0,1,15,28c-.35-.08-.69-.17-1-.28s-.66-.24-1-.38-.62-.3-.91-.47m23.56,2.88a2.25,2.25,0,0,1-.42-.3,2.6,2.6,0,0,1-.32-.35,2,2,0,0,1-.22-.4,1.63,1.63,0,0,1-.08-.43,1.14,1.14,0,0,1,.15-.58,1.32,1.32,0,0,1,.41-.44,2,2,0,0,1,.63-.25,2.44,2.44,0,0,1,.77,0l.26.05.25.07.25.09.23.12a2,2,0,0,1,.41.29,2.17,2.17,0,0,1,.32.36,1.69,1.69,0,0,1,.22.39,1.26,1.26,0,0,1,.08.43,1,1,0,0,1-.14.58,1.15,1.15,0,0,1-.41.44,1.73,1.73,0,0,1-.62.26,2.87,2.87,0,0,1-.78,0l-.26-.05L36.15,30l-.24-.1-.23-.11m8,14.91a9.28,9.28,0,0,1-.88-.56,9.75,9.75,0,0,1-.8-.64,8.15,8.15,0,0,1-.72-.72,6.82,6.82,0,0,1-.63-.79,6.58,6.58,0,0,1-1.1-2.53,5,5,0,0,1,.13-2.4,4.7,4.7,0,0,1,1.25-2,6,6,0,0,1,2.28-1.35,7.7,7.7,0,0,1,1.92-.39,9,9,0,0,1,2,.05,10.55,10.55,0,0,1,2,.46,11,11,0,0,1,1.89.84c.29.17.58.35.85.54a9.82,9.82,0,0,1,.79.62,9.49,9.49,0,0,1,.72.7c.22.24.43.5.63.76a6.88,6.88,0,0,1,1.15,2.49,5,5,0,0,1-.05,2.4,4.58,4.58,0,0,1-1.18,2.05,6,6,0,0,1-2.26,1.42,8,8,0,0,1-2,.43,9.48,9.48,0,0,1-2.06,0,10.64,10.64,0,0,1-4-1.34M31,23.22h0a2.44,2.44,0,0,1-.6-.48,1.83,1.83,0,0,1-.34-.56,1.51,1.51,0,0,1-.06-.59,1,1,0,0,1,.25-.53,1.39,1.39,0,0,1,.51-.38,2.06,2.06,0,0,1,.67-.17,2.75,2.75,0,0,1,.75.06,2.48,2.48,0,0,1,.74.29h0a2,2,0,0,1,.59.47,1.75,1.75,0,0,1,.34.56,1.33,1.33,0,0,1,.07.59,1.11,1.11,0,0,1-.24.53,1.51,1.51,0,0,1-.51.39,1.84,1.84,0,0,1-.68.16,2.39,2.39,0,0,1-.75,0,2.65,2.65,0,0,1-.75-.29m9,5.07h0a2.69,2.69,0,0,1-.6-.48,1.76,1.76,0,0,1-.35-.58,1.22,1.22,0,0,1-.07-.59,1.16,1.16,0,0,1,.23-.55,1.36,1.36,0,0,1,.5-.38,1.84,1.84,0,0,1,.67-.17,2.41,2.41,0,0,1,.75.05,2.71,2.71,0,0,1,.74.29h0a2.44,2.44,0,0,1,.6.48,1.73,1.73,0,0,1,.35.57,1.23,1.23,0,0,1,.08.59,1.1,1.1,0,0,1-.23.55,1.5,1.5,0,0,1-.5.39,2,2,0,0,1-.67.17,2.41,2.41,0,0,1-.75-.05,2.77,2.77,0,0,1-.75-.29M35.41,21.8a2.46,2.46,0,0,1-.41-.28,2.6,2.6,0,0,1-.32-.35,1.47,1.47,0,0,1-.21-.39,1.15,1.15,0,0,1-.08-.41,1.13,1.13,0,0,1,.14-.56,1.27,1.27,0,0,1,.41-.42,1.91,1.91,0,0,1,.62-.24,2.34,2.34,0,0,1,.75,0l.26,0,.25.07.24.1a1.51,1.51,0,0,1,.22.11,2.46,2.46,0,0,1,.41.28,2.6,2.6,0,0,1,.32.35,1.58,1.58,0,0,1,.21.38,1.19,1.19,0,0,1,.08.41,1.09,1.09,0,0,1-.13.57,1.37,1.37,0,0,1-.41.42,1.85,1.85,0,0,1-.61.24,2.14,2.14,0,0,1-.76,0l-.26-.05L35.87,22l-.24-.09a2.39,2.39,0,0,1-.22-.12m4.48,2.51-.21-.14a1,1,0,0,1-.2-.15l-.18-.17-.15-.19a1.43,1.43,0,0,1-.26-.6,1.09,1.09,0,0,1,0-.57,1.24,1.24,0,0,1,.31-.48,1.73,1.73,0,0,1,.57-.32,2.7,2.7,0,0,1,.48-.09,2.75,2.75,0,0,1,.5,0,2.8,2.8,0,0,1,.5.12,2.18,2.18,0,0,1,.47.21l.21.13.2.15c.06.06.12.11.18.18l.15.18a1.6,1.6,0,0,1,.27.6,1.09,1.09,0,0,1,0,.57,1.14,1.14,0,0,1-.31.48,1.44,1.44,0,0,1-.57.32,1.94,1.94,0,0,1-.48.09,2.18,2.18,0,0,1-.51,0,4.54,4.54,0,0,1-.5-.12,4,4,0,0,1-.47-.21M22.33,14.69c-.28-.16-.55-.34-.81-.52a6.29,6.29,0,0,1-.75-.59,6.86,6.86,0,0,1-.67-.65q-.3-.35-.57-.72a5.53,5.53,0,0,1-1-2.27,4.12,4.12,0,0,1,.23-2.13A4.47,4.47,0,0,1,20.1,6.05a6.35,6.35,0,0,1,2.26-1.16,9,9,0,0,1,1.88-.31,10.57,10.57,0,0,1,3.85.54,10.15,10.15,0,0,1,1.78.79,7.18,7.18,0,0,1,.8.5,6.84,6.84,0,0,1,.74.56,6.68,6.68,0,0,1,.66.64,7.56,7.56,0,0,1,.58.69,5.69,5.69,0,0,1,1,2.24,4.1,4.1,0,0,1-1.39,3.93A5.94,5.94,0,0,1,30,15.69a8,8,0,0,1-1.91.34,10.12,10.12,0,0,1-2-.07,11.05,11.05,0,0,1-2-.46,12,12,0,0,1-1.83-.81m30.61,17a9.75,9.75,0,0,1-1.64-1.14A8.41,8.41,0,0,1,50,29.15a6.59,6.59,0,0,1-.87-1.54A5.33,5.33,0,0,1,48.77,26a4.14,4.14,0,0,1,.47-2.23,4.52,4.52,0,0,1,1.51-1.66,6.27,6.27,0,0,1,2.32-.95,9.26,9.26,0,0,1,2.9-.08c.34.05.68.11,1,.19s.65.17,1,.27.63.23.94.36.59.28.88.44a10.92,10.92,0,0,1,1.61,1.11,8.57,8.57,0,0,1,1.29,1.34,6.87,6.87,0,0,1,.89,1.51A5.22,5.22,0,0,1,64,27.89a4.23,4.23,0,0,1-.38,2.26,4.45,4.45,0,0,1-1.47,1.71,6,6,0,0,1-2.32,1,8.5,8.5,0,0,1-3,.11,8.87,8.87,0,0,1-1-.18c-.34-.08-.68-.17-1-.28s-.64-.23-1-.37a9.51,9.51,0,0,1-.9-.46M42.15,17.14a9.3,9.3,0,0,1-2.31-1.8,6.65,6.65,0,0,1-1.34-2.13A4.53,4.53,0,0,1,38.23,11a3.87,3.87,0,0,1,.87-2A5.08,5.08,0,0,1,41,7.65a7.5,7.5,0,0,1,2.51-.58,10,10,0,0,1,2.81.23,10.77,10.77,0,0,1,2.8,1.07,9.42,9.42,0,0,1,2.29,1.75,6.77,6.77,0,0,1,1.36,2.08,4.61,4.61,0,0,1,.34,2.17,4,4,0,0,1-.79,2,4.89,4.89,0,0,1-1.86,1.45,7.3,7.3,0,0,1-2.53.63A9.82,9.82,0,0,1,45,18.24a10.89,10.89,0,0,1-2.88-1.1M51.44,5.69A45.27,45.27,0,0,0,39.63,1.2,42.42,42.42,0,0,0,27.7.17,33.91,33.91,0,0,0,16.75,2.56,24.18,24.18,0,0,0,8.06,8.49a18.63,18.63,0,0,0-4.58,8.73,20.08,20.08,0,0,0,.48,10,28,28,0,0,0,5.49,10,38.74,38.74,0,0,0,10.3,8.52A45.15,45.15,0,0,0,33,50.78a41.92,41.92,0,0,0,13.26.76A31.93,31.93,0,0,0,57.7,48.19a22.19,22.19,0,0,0,8.1-7.08A18.25,18.25,0,0,0,69,31.76a21.65,21.65,0,0,0-1.8-9.7,30.15,30.15,0,0,0-6-9,39.88,39.88,0,0,0-9.7-7.38" style="fill: #fff;stroke: #252d31;stroke-miterlimit: 10;stroke-width: 0.200000002980232px"/>
    </g>
  </g>
</svg>
