<svg xmlns="http://www.w3.org/2000/svg" viewBox="0 0 79.22 80.95">
  <g>
    <g>
      <g>
        <path d="M66.4,26.58c-6.54-9.33-22-9.78-34.53-1S14.49,49.05,21,58.38s22,9.78,34.53,1S73,35.91,66.4,26.58ZM49.94,23.43c3.35-1.8,7.2-1.16,8.59,1.44s-.19,6.16-3.54,8S47.79,34,46.4,31.39,46.59,25.23,49.94,23.43Zm-3.4,20.22a1.24,1.24,0,0,1,1.68.28,1.39,1.39,0,1,1-1.68-.28Zm1.66-5.76a1.07,1.07,0,1,1,1,1.83,1.07,1.07,0,1,1-1-1.83Zm-3.89,5a1.51,1.51,0,1,1-1.38-2.57,1.71,1.71,0,0,1,2.35.39A1.71,1.71,0,0,1,44.31,42.91ZM31,29.68c3.12-2.19,6.95-2.1,8.56.2S40,35.81,36.86,38s-6.95,2.09-8.56-.2S27.92,31.86,31,29.68Zm1.85,24.79c-2.69,2.68-6.56,3.17-8.64,1.08s-1.59-5.95,1.11-8.64,6.56-3.17,8.64-1.09S35.58,51.78,32.88,54.47Zm5.68-11.65a1.07,1.07,0,1,1-1-1.83,1.07,1.07,0,1,1,1,1.83Zm4-6.54a1.07,1.07,0,1,1,1,1.83,1.07,1.07,0,1,1-1-1.83Zm-1,11.14a1.08,1.08,0,1,1,.69-1.56A1.23,1.23,0,0,1,41.57,47.42ZM49.1,60.25c-3.35,1.8-7.2,1.15-8.6-1.44s.19-6.17,3.54-8,7.2-1.15,8.6,1.44S52.45,58.44,49.1,60.25Zm4.8-14.9c-1.39-2.6.19-6.16,3.54-8s7.2-1.16,8.6,1.44-.19,6.16-3.54,8S55.3,48,53.9,45.35Z" style="fill: #ff725e"/>
        <path d="M66.4,26.58c-6.54-9.33-22-9.78-34.53-1S14.49,49.05,21,58.38s22,9.78,34.53,1S73,35.91,66.4,26.58ZM49.94,23.43c3.35-1.8,7.2-1.16,8.59,1.44s-.19,6.16-3.54,8S47.79,34,46.4,31.39,46.59,25.23,49.94,23.43Zm-3.4,20.22a1.24,1.24,0,0,1,1.68.28,1.39,1.39,0,1,1-1.68-.28Zm1.66-5.76a1.07,1.07,0,1,1,1,1.83,1.07,1.07,0,1,1-1-1.83Zm-3.89,5a1.51,1.51,0,1,1-1.38-2.57,1.71,1.71,0,0,1,2.35.39A1.71,1.71,0,0,1,44.31,42.91ZM31,29.68c3.12-2.19,6.95-2.1,8.56.2S40,35.81,36.86,38s-6.95,2.09-8.56-.2S27.92,31.86,31,29.68Zm1.85,24.79c-2.69,2.68-6.56,3.17-8.64,1.08s-1.59-5.95,1.11-8.64,6.56-3.17,8.64-1.09S35.58,51.78,32.88,54.47Zm5.68-11.65a1.07,1.07,0,1,1-1-1.83,1.07,1.07,0,1,1,1,1.83Zm4-6.54a1.07,1.07,0,1,1,1,1.83,1.07,1.07,0,1,1-1-1.83Zm-1,11.14a1.08,1.08,0,1,1,.69-1.56A1.23,1.23,0,0,1,41.57,47.42ZM49.1,60.25c-3.35,1.8-7.2,1.15-8.6-1.44s.19-6.17,3.54-8,7.2-1.15,8.6,1.44S52.45,58.44,49.1,60.25Zm4.8-14.9c-1.39-2.6.19-6.16,3.54-8s7.2-1.16,8.6,1.44-.19,6.16-3.54,8S55.3,48,53.9,45.35Z" style="fill: #c1c1c1"/>
      </g>
      <g>
        <path d="M65.7,25.54c-6.54-9.33-22-9.78-34.53-1S13.78,48,20.32,57.34s22,9.78,34.54,1S72.24,34.87,65.7,25.54ZM49.23,22.39c3.35-1.8,7.2-1.16,8.6,1.44s-.19,6.16-3.54,8-7.2,1.16-8.6-1.44S45.88,24.19,49.23,22.39ZM45.84,42.61a1.07,1.07,0,1,1-.69,1.55A1.21,1.21,0,0,1,45.84,42.61Zm1.66-5.76a1.07,1.07,0,1,1,1,1.83,1.2,1.2,0,0,1-1.67-.28A1.22,1.22,0,0,1,47.5,36.85Zm-3.89,5a1.72,1.72,0,0,1-2.36-.39,2,2,0,0,1,3.33-1.79A1.72,1.72,0,0,1,43.61,41.87ZM30.32,28.64c3.12-2.19,7-2.1,8.56.2s.39,5.93-2.73,8.11-6.94,2.09-8.55-.2S27.21,30.82,30.32,28.64Zm1.86,24.79c-2.69,2.68-6.57,3.17-8.65,1.08S22,48.56,24.64,45.87s6.57-3.17,8.65-1.09S34.87,50.74,32.18,53.43Zm5.67-11.65a1.07,1.07,0,1,1-1-1.83,1.07,1.07,0,1,1,1,1.83Zm4-6.54a1.2,1.2,0,0,1,1.67.28,1.38,1.38,0,0,1-2.36,1.27A1.2,1.2,0,0,1,41.84,35.24Zm-1,11.14a1.08,1.08,0,1,1,.69-1.56A1.24,1.24,0,0,1,40.86,46.38Zm7.53,12.83C45,61,41.19,60.36,39.8,57.77s.19-6.17,3.54-8,7.2-1.15,8.59,1.44S51.74,57.4,48.39,59.21Zm4.81-14.9c-1.4-2.6.18-6.16,3.54-8s7.19-1.16,8.59,1.44-.19,6.16-3.54,8S54.59,46.91,53.2,44.31Z" style="fill: #747474"/>
        <g>
          <path d="M65.7,25.54c-6.54-9.33-22-9.78-34.53-1S13.78,48,20.32,57.34s22,9.78,34.54,1S72.24,34.87,65.7,25.54ZM49.23,22.39c3.35-1.8,7.2-1.16,8.6,1.44s-.19,6.16-3.54,8-7.2,1.16-8.6-1.44S45.88,24.19,49.23,22.39ZM45.84,42.61a1.07,1.07,0,1,1-.69,1.55A1.21,1.21,0,0,1,45.84,42.61Zm1.66-5.76a1.07,1.07,0,1,1,1,1.83,1.2,1.2,0,0,1-1.67-.28A1.22,1.22,0,0,1,47.5,36.85Zm-3.89,5a1.72,1.72,0,0,1-2.36-.39,2,2,0,0,1,3.33-1.79A1.72,1.72,0,0,1,43.61,41.87ZM30.32,28.64c3.12-2.19,7-2.1,8.56.2s.39,5.93-2.73,8.11-6.94,2.09-8.55-.2S27.21,30.82,30.32,28.64Zm1.86,24.79c-2.69,2.68-6.57,3.17-8.65,1.08S22,48.56,24.64,45.87s6.57-3.17,8.65-1.09S34.87,50.74,32.18,53.43Zm5.67-11.65a1.07,1.07,0,1,1-1-1.83,1.07,1.07,0,1,1,1,1.83Zm4-6.54a1.2,1.2,0,0,1,1.67.28,1.38,1.38,0,0,1-2.36,1.27A1.2,1.2,0,0,1,41.84,35.24Zm-1,11.14a1.08,1.08,0,1,1,.69-1.56A1.24,1.24,0,0,1,40.86,46.38Zm7.53,12.83C45,61,41.19,60.36,39.8,57.77s.19-6.17,3.54-8,7.2-1.15,8.59,1.44S51.74,57.4,48.39,59.21Zm4.81-14.9c-1.4-2.6.18-6.16,3.54-8s7.19-1.16,8.59,1.44-.19,6.16-3.54,8S54.59,46.91,53.2,44.31Z" style="fill: none"/>
          <path d="M53.2,44.31a5.35,5.35,0,0,0,1,1.15,5.12,5.12,0,0,0,1.52.88,6.36,6.36,0,0,0,2.29.37,8.46,8.46,0,0,0,6.66-3.56,7.29,7.29,0,0,0,.83-1.62,5.5,5.5,0,0,0,.28-1.85A4.06,4.06,0,0,0,64,36.4a5.27,5.27,0,0,0-1.7-.79,7.44,7.44,0,0,0-1.81-.2,8.11,8.11,0,0,0-1.73.24A8.64,8.64,0,0,0,53.83,39a6.48,6.48,0,0,0-1,2.12,4.91,4.91,0,0,0-.1,1.75,5.36,5.36,0,0,0,.43,1.44s0,0-.05-.09L53,44a2.25,2.25,0,0,1-.17-.45,3.9,3.9,0,0,1-.15-.63,5,5,0,0,1,.08-1.78,6.41,6.41,0,0,1,.95-2.16,8.63,8.63,0,0,1,5-3.44,8,8,0,0,1,1.77-.25,6.9,6.9,0,0,1,1.85.2,5.62,5.62,0,0,1,1.76.81,4.41,4.41,0,0,1,1.32,1.49,4.37,4.37,0,0,1,.51,1.92,5.53,5.53,0,0,1-.29,1.91,7.06,7.06,0,0,1-.86,1.66,8.45,8.45,0,0,1-1.18,1.34A8.73,8.73,0,0,1,58,46.83a6.6,6.6,0,0,1-2.33-.4,5.14,5.14,0,0,1-1.52-.92,3.83,3.83,0,0,1-.45-.47,2.44,2.44,0,0,1-.28-.39l-.15-.25C53.21,44.34,53.19,44.31,53.2,44.31Z" style="fill: #263238"/>
          <path d="M48.39,59.21l.08-.06.25-.16a9.62,9.62,0,0,0,.92-.64,8.5,8.5,0,0,0,1.25-1.24,7.2,7.2,0,0,0,1.16-2,5,5,0,0,0,.21-2.77,4.48,4.48,0,0,0-.63-1.42,4.62,4.62,0,0,0-1.18-1.15,5.84,5.84,0,0,0-1.59-.69,7.23,7.23,0,0,0-1.81-.19,8,8,0,0,0-1.86.28,9.39,9.39,0,0,0-1.81.73A8.6,8.6,0,0,0,41.78,51a8,8,0,0,0-1.27,1.4A7.07,7.07,0,0,0,39.67,54a5.75,5.75,0,0,0-.3,1.71,4.58,4.58,0,0,0,.31,1.62,4.26,4.26,0,0,0,.84,1.31A5,5,0,0,0,43,60a6.94,6.94,0,0,0,2.31.16A8.22,8.22,0,0,0,47,59.77a7.22,7.22,0,0,0,1-.41l.27-.12.09,0-.08,0-.26.13a6.72,6.72,0,0,1-1,.44,8,8,0,0,1-1.74.4,7.12,7.12,0,0,1-2.35-.13,5,5,0,0,1-2.5-1.37,4.45,4.45,0,0,1-.88-1.34,4.92,4.92,0,0,1-.33-1.68A6,6,0,0,1,39.52,54a7.45,7.45,0,0,1,.85-1.66,8.33,8.33,0,0,1,1.3-1.43,9.45,9.45,0,0,1,1.63-1.13A9.32,9.32,0,0,1,45.14,49a7.81,7.81,0,0,1,1.91-.28,6.69,6.69,0,0,1,1.85.2,6,6,0,0,1,1.64.71,4.61,4.61,0,0,1,1.21,1.2,4.36,4.36,0,0,1,.65,1.47,5.14,5.14,0,0,1-.24,2.84,7.22,7.22,0,0,1-1.19,2,8.4,8.4,0,0,1-1.29,1.23,8.54,8.54,0,0,1-.94.62l-.26.14Z" style="fill: #263238"/>
          <path d="M40.86,46.38s.08-.07.23-.19a1.57,1.57,0,0,0,.44-.63,1,1,0,0,0,0-.51.76.76,0,0,0-.33-.46,1.31,1.31,0,0,0-1.31,0,1.34,1.34,0,0,0-.76,1.08.78.78,0,0,0,.21.53.89.89,0,0,0,.44.25,1.48,1.48,0,0,0,.77,0c.18-.05.27-.1.28-.08a.94.94,0,0,1-.26.14,1.45,1.45,0,0,1-.82.08,1,1,0,0,1-.51-.28A.86.86,0,0,1,39,45.7a1.46,1.46,0,0,1,.83-1.23,1.43,1.43,0,0,1,1.47,0,.88.88,0,0,1,.39.56,1,1,0,0,1-.06.58,1.46,1.46,0,0,1-.51.64A1,1,0,0,1,40.86,46.38Z" style="fill: #263238"/>
          <path d="M41.84,35.24s-.09.06-.23.18a1.54,1.54,0,0,0-.44.63,1,1,0,0,0,0,.51.81.81,0,0,0,.33.47,1.33,1.33,0,0,0,1.31,0,1.31,1.31,0,0,0,.75-1.07.79.79,0,0,0-.2-.53.92.92,0,0,0-.44-.26,1.48,1.48,0,0,0-.77,0l-.28.09s.08-.08.26-.15a1.42,1.42,0,0,1,.81-.08,1.07,1.07,0,0,1,.52.28.91.91,0,0,1,.26.63,1.46,1.46,0,0,1-.83,1.22,1.48,1.48,0,0,1-1.48,0A1,1,0,0,1,41,36.6a1,1,0,0,1,.06-.59,1.39,1.39,0,0,1,.51-.64C41.73,35.26,41.83,35.23,41.84,35.24Z" style="fill: #263238"/>
          <path d="M37.85,41.78s.09-.06.23-.18a1.59,1.59,0,0,0,.44-.64,1,1,0,0,0,0-.51.82.82,0,0,0-.33-.46,1.45,1.45,0,0,0-2.06,1.11.7.7,0,0,0,.2.53.92.92,0,0,0,.44.26,1.48,1.48,0,0,0,.77,0l.28-.09s-.08.08-.26.15a1.37,1.37,0,0,1-.82.07,1,1,0,0,1-.51-.27A.87.87,0,0,1,36,41.1a1.46,1.46,0,0,1,.83-1.22,1.48,1.48,0,0,1,1.48,0,1,1,0,0,1,.38.56,1,1,0,0,1-.06.59,1.46,1.46,0,0,1-.51.64C38,41.76,37.86,41.79,37.85,41.78Z" style="fill: #263238"/>
          <path d="M32.18,53.43l.06-.08.19-.22a9.22,9.22,0,0,0,.7-.88A8.37,8.37,0,0,0,34,50.7a7,7,0,0,0,.53-2.26,4.9,4.9,0,0,0-.59-2.71,4.18,4.18,0,0,0-1-1.18,4.58,4.58,0,0,0-1.45-.77,5.82,5.82,0,0,0-1.73-.2,6.64,6.64,0,0,0-1.79.33,8,8,0,0,0-1.7.81,9.25,9.25,0,0,0-1.53,1.21,8.84,8.84,0,0,0-1.22,1.52,8.09,8.09,0,0,0-.81,1.71,7.46,7.46,0,0,0-.34,1.78,5.82,5.82,0,0,0,.2,1.73,5,5,0,0,0,.76,1.46,4.34,4.34,0,0,0,1.18,1,4.94,4.94,0,0,0,2.71.59,7.09,7.09,0,0,0,2.27-.51A9,9,0,0,0,31,54.37a8,8,0,0,0,.88-.69l.22-.19.08-.06-.07.07-.21.21a9.56,9.56,0,0,1-.86.72,8.31,8.31,0,0,1-1.55.87,7,7,0,0,1-2.3.55,5,5,0,0,1-2.79-.59,4.45,4.45,0,0,1-1.22-1,4.63,4.63,0,0,1-.79-1.51,5.48,5.48,0,0,1-.22-1.77,7.38,7.38,0,0,1,.35-1.84,8.1,8.1,0,0,1,.82-1.74,8.88,8.88,0,0,1,2.8-2.79,8.61,8.61,0,0,1,1.74-.82,7.36,7.36,0,0,1,1.84-.34,6.1,6.1,0,0,1,1.77.22,4.75,4.75,0,0,1,1.51.8,4.31,4.31,0,0,1,1,1.23,5,5,0,0,1,.59,2.79,7.12,7.12,0,0,1-.56,2.29,8.29,8.29,0,0,1-.88,1.55,8.12,8.12,0,0,1-.72.86l-.21.21Z" style="fill: #263238"/>
          <path d="M30.32,28.64l-.07.06-.22.18a9.5,9.5,0,0,0-.82.73A7.8,7.8,0,0,0,27.15,33,5.52,5.52,0,0,0,27,34.32a4.35,4.35,0,0,0,.21,1.41A3.87,3.87,0,0,0,27.93,37a4.28,4.28,0,0,0,1.3,1,5.91,5.91,0,0,0,3.43.35,9,9,0,0,0,6-4.2,5.83,5.83,0,0,0,.84-3.34A4.22,4.22,0,0,0,39,29.25a3.93,3.93,0,0,0-1-1.16,4.5,4.5,0,0,0-1.25-.68,5.69,5.69,0,0,0-1.3-.27,7.78,7.78,0,0,0-3.9.78,9,9,0,0,0-1,.52l-.25.15-.09.05s0,0,.08-.06l.24-.17a7.17,7.17,0,0,1,.95-.55A7.77,7.77,0,0,1,35.53,27a5.9,5.9,0,0,1,1.33.26,4.78,4.78,0,0,1,1.29.7,3.83,3.83,0,0,1,1,1.2,4.32,4.32,0,0,1,.48,1.6,6,6,0,0,1-.86,3.44,9,9,0,0,1-6.1,4.28,6,6,0,0,1-3.53-.37,4.45,4.45,0,0,1-1.34-1A4,4,0,0,1,27,35.77a4.32,4.32,0,0,1-.21-1.45A5.62,5.62,0,0,1,27,33a7.76,7.76,0,0,1,2.13-3.42,9.83,9.83,0,0,1,.85-.71l.23-.16C30.3,28.65,30.32,28.63,30.32,28.64Z" style="fill: #263238"/>
          <path d="M43.61,41.87s.12-.08.32-.25a2.11,2.11,0,0,0,.64-.89,1.48,1.48,0,0,0,0-.73,1.14,1.14,0,0,0-.48-.67,1.91,1.91,0,0,0-1.88,0,1.89,1.89,0,0,0-1.07,1.55,1.08,1.08,0,0,0,.3.76,1.27,1.27,0,0,0,.63.36,2.06,2.06,0,0,0,1.1,0c.25-.08.38-.15.39-.14s0,0-.09.07l-.28.13a2,2,0,0,1-1.14.09,1.45,1.45,0,0,1-.72-.38,1.34,1.34,0,0,1-.35-.86,2.21,2.21,0,0,1,3.2-1.72,1.25,1.25,0,0,1,.52.77,1.42,1.42,0,0,1-.07.8,2,2,0,0,1-.71.9,1.85,1.85,0,0,1-.26.16C43.64,41.86,43.61,41.88,43.61,41.87Z" style="fill: #263238"/>
          <path d="M47.5,36.85l-.23.19a1.47,1.47,0,0,0-.44.63,1,1,0,0,0,0,.51.76.76,0,0,0,.33.46,1.33,1.33,0,0,0,1.31,0,1.31,1.31,0,0,0,.75-1.08A.73.73,0,0,0,49,37a1,1,0,0,0-.44-.25,1.48,1.48,0,0,0-.77,0l-.28.08s.08-.07.26-.15a1.55,1.55,0,0,1,.82-.07,1.06,1.06,0,0,1,.51.27.9.9,0,0,1,.26.63,1.48,1.48,0,0,1-.83,1.23,1.45,1.45,0,0,1-1.48,0,1,1,0,0,1-.38-.56,1,1,0,0,1,.06-.58,1.4,1.4,0,0,1,.51-.64C47.39,36.88,47.49,36.84,47.5,36.85Z" style="fill: #263238"/>
          <path d="M45.84,42.61l-.23.19a1.47,1.47,0,0,0-.44.63,1,1,0,0,0,0,.51.72.72,0,0,0,.33.46,1.45,1.45,0,0,0,2.06-1.11.83.83,0,0,0-.2-.53,1,1,0,0,0-.44-.25,1.37,1.37,0,0,0-.77,0l-.28.08s.08-.07.26-.15a1.51,1.51,0,0,1,.81-.07,1,1,0,0,1,.52.27,1,1,0,0,1,.26.63,1.48,1.48,0,0,1-.83,1.23,1.45,1.45,0,0,1-1.48,0A.92.92,0,0,1,45,44a1,1,0,0,1,.06-.58,1.34,1.34,0,0,1,.51-.64C45.73,42.64,45.83,42.6,45.84,42.61Z" style="fill: #263238"/>
          <path d="M49.23,22.39l-.08.06-.25.15a10.39,10.39,0,0,0-.91.64,9,9,0,0,0-1.26,1.24,7.08,7.08,0,0,0-1.15,2,4.93,4.93,0,0,0-.21,2.77A4.16,4.16,0,0,0,46,30.69a4.46,4.46,0,0,0,1.18,1.15,5.52,5.52,0,0,0,1.59.69,6.79,6.79,0,0,0,1.81.19,8.06,8.06,0,0,0,1.87-.28,9.61,9.61,0,0,0,1.81-.72,10.11,10.11,0,0,0,1.6-1.11,8.31,8.31,0,0,0,1.26-1.4A6.75,6.75,0,0,0,58,27.59a5.35,5.35,0,0,0,.3-1.71,4.31,4.31,0,0,0-.31-1.61A4,4,0,0,0,57.1,23a4.91,4.91,0,0,0-2.42-1.35,7.26,7.26,0,0,0-2.32-.15,9.14,9.14,0,0,0-1.73.36,10.75,10.75,0,0,0-1,.41l-.26.12-.1,0,.09-.05.26-.14a8.44,8.44,0,0,1,1-.44,9,9,0,0,1,1.74-.4,7.18,7.18,0,0,1,2.36.13,5.15,5.15,0,0,1,2.5,1.37,4.41,4.41,0,0,1,1.2,3,5.67,5.67,0,0,1-.31,1.76,6.52,6.52,0,0,1-.85,1.66A8.37,8.37,0,0,1,56,30.74a9.85,9.85,0,0,1-1.63,1.13,9.75,9.75,0,0,1-1.85.73,7.82,7.82,0,0,1-1.91.29,7.09,7.09,0,0,1-1.85-.2A5.89,5.89,0,0,1,47.08,32a4.73,4.73,0,0,1-1.21-1.19,4.5,4.5,0,0,1-.64-1.48,5,5,0,0,1,.24-2.84,7,7,0,0,1,1.19-2A8.46,8.46,0,0,1,48,23.19a7.68,7.68,0,0,1,.94-.62l.25-.14Z" style="fill: #263238"/>
          <path d="M65.7,25.54l.22.33a10.31,10.31,0,0,1,.61,1A15.59,15.59,0,0,1,68.16,31a19,19,0,0,1,.29,7,25.54,25.54,0,0,1-3,8.79,33.48,33.48,0,0,1-7,8.8,37.09,37.09,0,0,1-11,6.85,32.46,32.46,0,0,1-6.76,1.9c-.59.11-1.19.17-1.79.25s-1.21.11-1.82.12a24.17,24.17,0,0,1-3.7-.12,22.54,22.54,0,0,1-3.7-.7,19.4,19.4,0,0,1-3.56-1.41,15.9,15.9,0,0,1-8.65-12.34,18.9,18.9,0,0,1-.11-3.83,24.24,24.24,0,0,1,.6-3.72,24.55,24.55,0,0,1,1.15-3.52c.22-.57.49-1.12.74-1.67s.53-1.08.84-1.6a32.52,32.52,0,0,1,4.09-5.7,37.2,37.2,0,0,1,10.18-8,33.94,33.94,0,0,1,10.67-3.61,25.7,25.7,0,0,1,9.29.2,19,19,0,0,1,6.49,2.66,15.9,15.9,0,0,1,3.32,2.94c.34.38.56.7.72.91l.23.32s-.09-.1-.25-.31-.38-.52-.72-.9a16.14,16.14,0,0,0-3.34-2.9,18.71,18.71,0,0,0-6.47-2.63,25.75,25.75,0,0,0-9.25-.17,33.71,33.71,0,0,0-10.62,3.62,37.11,37.11,0,0,0-10.14,7.94,33.13,33.13,0,0,0-4.06,5.68c-.3.52-.56,1.06-.84,1.59s-.51,1.1-.73,1.66a24.67,24.67,0,0,0-1.14,3.5,22.7,22.7,0,0,0-.59,3.69,18.61,18.61,0,0,0,.11,3.8,15.72,15.72,0,0,0,8.55,12.21,18.71,18.71,0,0,0,3.54,1.39,23.31,23.31,0,0,0,3.67.71,25.2,25.2,0,0,0,3.68.12c.6,0,1.21-.08,1.81-.12s1.19-.14,1.78-.25a32.86,32.86,0,0,0,6.72-1.88,37,37,0,0,0,10.93-6.81,33.69,33.69,0,0,0,7-8.76,25.81,25.81,0,0,0,3-8.75,18.63,18.63,0,0,0-.27-7,15.43,15.43,0,0,0-1.59-4.13c-.23-.46-.46-.77-.59-1Z" style="fill: #263238"/>
        </g>
      </g>
    </g>
    <g>
      <ellipse cx="41.61" cy="40.19" rx="19.17" ry="14.28" transform="translate(-15.53 31.16) rotate(-35.03)" style="fill: #263238"/>
      <g>
        <ellipse cx="40.45" cy="38.03" rx="19.17" ry="14.28" transform="translate(-14.5 30.1) rotate(-35.03)" style="fill: #263238"/>
        <path d="M34.24,54.19a12.56,12.56,0,0,1-9.62-5.06C22.4,46,22,41.83,23.4,37.49A23,23,0,0,1,32.16,26.2c8.73-6.12,19.55-5.79,24.12.73,2.22,3.17,2.65,7.3,1.22,11.64a23,23,0,0,1-8.76,11.29l-.1-.14.1.14a22.91,22.91,0,0,1-13.6,4.38C34.83,54.23,34.53,54.22,34.24,54.19Zm12.38-32a22.28,22.28,0,0,0-14.27,4.27,22.55,22.55,0,0,0-8.64,11.12c-1.4,4.24-1,8.27,1.17,11.35s5.81,4.85,10.27,5a22.57,22.57,0,0,0,13.4-4.33,22.6,22.6,0,0,0,8.64-11.12c1.4-4.24,1-8.27-1.18-11.35A12.29,12.29,0,0,0,46.62,22.2Z" style="fill: #455a64"/>
      </g>
    </g>
    <g>
      <path d="M71.34,40.39c1-3.5.51-12.67.51-12.67C69.09,38.94,63,45.16,63,45.16,58.67,50.1,53.54,53,45.69,55.21c-3.16.93-8.78,1.93-14.61,3.27a27.27,27.27,0,0,0,11.77,2.93v-.09l.09,0H43l.54-.09h0l.09,0,0,.17h-.09l-.54,0h0a26.19,26.19,0,0,0,11.89-2.6C68.36,52.37,69.49,46.59,71.34,40.39ZM31.89,58.72H31.8l0-.1.18,0h0l.54-.12,0,.13Zm1.35-.23-.18,0,0-.15.18,0h0l.53-.11,0,.18Zm1.26-.22-.18,0,0-.2.18,0h0L35,58l0,.23-.54.09Zm1.25-.21h0l-.18,0,0-.25.09,0h.09l.53-.11,0,.27ZM37,57.83l-.18,0,0-.28.09,0H37l.53-.11.06.29-.54.1Zm1.25-.23-.17,0L38,57.33l.09,0,.62-.13.06.33-.54.09Zm1.26-.22h-.09l-.09,0-.06-.34h.08l.63-.13.07.35-.54.1Zm1.25-.23-.18,0-.06-.36.08,0,.63-.12.07.37-.54.1ZM42,56.89h-.09l-.09,0-.09-.38.09,0h0l.62-.16.09.39-.53.13Zm1.24-.3-.08,0h0l-.09,0L43,56.24l.16,0,.54-.13.1.39-.53.13Zm1.24-.31h-.09l-.09,0-.1-.39.14,0,.56-.15.11.4ZM71.44,30.15l.08,0,0,.13-.09,0v-.05Zm-.21.66.11,0-.15.52h0v0l0,.05h0l0,.09-.13,0,0-.15Zm-.4,1.2.14.05-.17.52h0v.05l0,0h0l0,.08-.16,0,0-.13Zm-.44,1.2.18.06-.19.52h0v0l0,0h0l0,.09-.19-.07.05-.13Zm-.47,1.18.2.08-.2.51h0v0l0,.06h0l0,.09-.22-.09,0-.13Zm-.5,1.17.23.1-.22.5h0l0,.05,0,0h0l0,.09-.24-.11.06-.13Zm-.54,1.15.25.12-.23.49h0l0,0,0,0h0l0,.08-.26-.13.06-.12Zm-.56,1.14.26.13-.25.49h0l0,0,0,0h0l0,.08L68,38.49l0-.11ZM67.71,39l.28.15-.27.48h0l0,0,0,0h0l-.05.08-.28-.16.07-.12Zm-.64,1.09.29.17-.28.48h0l0,0,0,0h0l0,.08-.3-.18.08-.12Zm-.67,1.08.3.19-.3.46h0l0,0,0,0h0l0,.07-.3-.2.08-.11Zm-.71,1,.31.21-.32.45h0l0,0,0,0h0l0,.07-.31-.22.08-.11Zm-.75,1,.32.24-.33.44h0l0,0,0,0h0l-.06.07-.31-.24.08-.1Zm-.78,1,.31.25-.35.43h0l0,0,0,0h0L64,45l-.31-.26.09-.11Zm-2.09,2.26h0l.23-.22.14-.13,0,0,.29.29,0,0-.14.13a2.89,2.89,0,0,0-.25.24l0,0h0l-.06.06-.3-.3Zm-.52.5.29.3-.4.38h0l0,0,0,0h0l-.07.06L61,47.46l.11-.09Zm-.93.85.28.32-.41.36h0l0,0,0,0h0l-.07.06-.28-.32.11-.1Zm-2,1.6.26.35-.44.33h0l0,0,0,0h0l-.07.06-.26-.36.11-.08Zm-1,.74.25.37-.46.31h0l0,0,0,0h0l-.08,0L57,50.57l.11-.07ZM55.5,51.52l.23.39-.48.28h0l0,0,0,0h0l-.08.05-.23-.4.12-.07Zm-2.23,1.2.2.4-.5.24h0l0,0,0,0h0l-.08,0-.19-.4.12-.05Zm-1.14.54.18.4-.51.22h0l0,0,0,0h0l-.09,0-.17-.4.12,0ZM45.46,55.6l.14,0,.56-.16.11.4-.52.15h-.09l-.09,0Zm-.61,5.62-.55.06h0l-.18,0,0-.19.18,0h0l.54-.09h.09V61l0,.18Zm1.95-5.57-.12-.4.12,0,.58-.17.12.4L47,55.6h-.09Zm-.68,5.43-.55.07h-.18l0-.25.09,0h.09l.54-.09h.09v0l0,.24Zm2-5.83h0l-.09,0-.13-.4.14,0,.55-.19.14.41-.52.17h-.05Zm-.72,5.63-.54.1h-.18l-.06-.3.12,0,.59-.13h0l.09,0v0l.06.28-.09,0Zm1.94-6h0l-.09,0-.14-.41.11,0,.57-.2.15.4-.52.19h0Zm-.69,5.77-.54.12H48l-.09,0-.07-.33.12,0,.58-.14h0l.09,0v0l.08.3-.09,0Zm1.92-6.23,0,0h0l-.09,0L50.29,54l.13-.05.54-.21.16.4-.51.2h0Zm-.68,5.93h0l-.53.13h-.09l-.09,0-.09-.35.14,0,.56-.15h0l.09,0V60l.09.32ZM51.11,60l-.52.16h-.05l0,0h0l-.09,0-.11-.38.13,0,.56-.17h0l.09,0v.05l.11.34-.09,0Zm1.22-.4-.52.18h-.05l0,0h0l-.08,0-.13-.39.13,0,.55-.2h0l.08,0,0,0,.13.35-.09,0Zm1.79-6.76h0l0,0,0,0h0l-.08,0-.2-.4.12-.07.52-.27.21.4Zm-.59,6.3-.51.2h0l-.05,0h0l-.08,0L52.7,59l.12,0,.55-.22h0l.08,0,0,0,.15.34-.09,0Zm3-8.23.24.38-.46.29h0l0,0,0,0h0l-.08.05L56,51.25l.12-.08ZM54.21,58.8l0,0-.05,0h0l-.08,0-.17-.39.12-.06.54-.24.18.39-.5.22Zm1.16-.53h0l-.05,0h0l-.08,0L55,58l.12-.06.53-.27.2.4-.5.24Zm1.15-.58,0,0,0,0h0l-.08,0-.21-.39.12-.07.52-.28.21.4-.48.25Zm2.91-8.31h0l-.07,0-.27-.34L59.2,49l.46-.37.27.34-.43.34h0l0,0Zm-1.79,7.71,0,0,0,0h0l-.07,0-.22-.39.1-.06.53-.3.22.4-.48.27Zm1.11-.64,0,0,0,0h0l-.07,0-.23-.39.12-.06.51-.3.22.38-.47.28Zm1.1-.65h0l-.06,0h0l-.08,0-.22-.38.11-.06.51-.31.23.37-.47.29ZM63.15,46l-.3-.29.09-.09.4-.44.3.28-.37.4h0l0,0,0,0h0Zm-2.21,9.14-.16.1-.22-.37.11-.06.51-.32.22.37-.46.28ZM62,54.44l0,0,0,0h0l-.08,0-.23-.35.11-.08.47-.34.25.34-.45.32Zm1-.78,0,0,0,0h0l-.07.05-.26-.32.1-.08.46-.37.26.31-.42.35Zm.84-.7-.26-.31.07-.06h0l0,0,0,0h0l.43-.34.25.31-.44.36Zm1.51-1.27-.2.19,0,0-.09.08-.13.1-.09.07-.24-.3.07-.06h0l0,0,0,0h0l.07-.06.09-.08.2-.18,0,0,.26.26Zm.53-.58,0,0,0,0h0l-.06.07L65.54,51l.09-.1.4-.44.26.22-.36.42Zm.81-1,0,0,0,0h0l-.06.07-.26-.21.09-.1.36-.46.25.18-.33.44Zm.76-1,0,0,0,0h0l0,.07-.24-.17.08-.11.34-.48.23.16-.3.45ZM68.2,48l0,0,0,0h0l-.05.08L67.88,48l.08-.11.33-.5.2.13L68.2,48Zm.66-1.09,0,0,0,.05h0l0,.08L68.58,47l.07-.11.32-.51.16.09-.27.48Zm.62-1.12,0,0,0,0h0l0,.08-.14-.08,0-.08.32-.55.11.07-.25.48Z" style="fill: #252d31"/>
      <path d="M41.59,61.35l.55-.11,5.81-1c6.53-1.59,15-6.87,17.61-9.69,0,0,2.28-2.1,5.11-8A23.23,23.23,0,0,0,72,36.51a61.75,61.75,0,0,0-.07-7c-2.76,11.23-8.45,16.7-8.45,16.7-6.52,6.23-10.33,7.66-17.79,10A99.6,99.6,0,0,1,32,58.92a25.34,25.34,0,0,0,6.53,2A18.93,18.93,0,0,0,41.59,61.35Z" style="fill: #fff"/>
      <path d="M44,61.08A17.74,17.74,0,0,1,42.69,59a17.61,17.61,0,0,1-1.12-2.14,17.74,17.74,0,0,1,1.27,2.06A17.61,17.61,0,0,1,44,61.08Z" style="fill: #263238"/>
      <path d="M50.35,59.56a17.12,17.12,0,0,1-1-2.17,16.79,16.79,0,0,1-.86-2.23,14.94,14.94,0,0,1,1,2.17A14.5,14.5,0,0,1,50.35,59.56Z" style="fill: #263238"/>
      <path d="M55.82,57.38a17.25,17.25,0,0,1-.52-2.44,21.23,21.23,0,0,1-.36-2.47,17.25,17.25,0,0,1,.52,2.44A18.92,18.92,0,0,1,55.82,57.38Z" style="fill: #263238"/>
      <path d="M60.28,54.79a20.39,20.39,0,0,1-.36-2.7,21.41,21.41,0,0,1-.19-2.71,20.39,20.39,0,0,1,.36,2.7A21.41,21.41,0,0,1,60.28,54.79Z" style="fill: #263238"/>
      <path d="M64.21,52.21a4.2,4.2,0,0,1-.1-.91c0-.56-.12-1.34-.22-2.19s-.21-1.63-.3-2.19a6,6,0,0,1-.12-.91,4,4,0,0,1,.24.89c.11.56.25,1.33.35,2.19s.15,1.64.17,2.21A5.16,5.16,0,0,1,64.21,52.21Z" style="fill: #263238"/>
      <path d="M68,47.75s-.21-1.59-.37-3.56a35.62,35.62,0,0,1-.2-3.58s.21,1.59.37,3.56A35.74,35.74,0,0,1,68,47.75Z" style="fill: #263238"/>
      <path d="M70.68,42.93a10,10,0,0,1,0-1,16.32,16.32,0,0,0-.12-2.47A16.11,16.11,0,0,0,70.05,37c-.18-.61-.32-1-.3-1s.06.08.13.24a6.57,6.57,0,0,1,.28.71,11.85,11.85,0,0,1,.58,2.44,12.22,12.22,0,0,1,.08,2.5,7.18,7.18,0,0,1-.08.75A.87.87,0,0,1,70.68,42.93Z" style="fill: #263238"/>
    </g>
    <g>
      <g>
        <path d="M63.78,22c-6.54-9.33-22-9.78-34.53-1S11.86,44.43,18.4,53.76s22,9.78,34.53,1S70.32,31.29,63.78,22ZM47.31,18.81c3.35-1.8,7.2-1.16,8.6,1.44s-.19,6.16-3.54,8-7.2,1.16-8.6-1.44S44,20.61,47.31,18.81ZM43.91,39a1.07,1.07,0,1,1-.69,1.55A1.22,1.22,0,0,1,43.91,39Zm1.67-5.76a1.07,1.07,0,1,1-.69,1.55A1.21,1.21,0,0,1,45.58,33.27Zm-3.89,5a1.73,1.73,0,0,1-2.36-.39,2,2,0,0,1,3.33-1.79A1.72,1.72,0,0,1,41.69,38.29ZM28.4,25.05c3.12-2.18,7-2.09,8.56.21s.39,5.93-2.73,8.11-6.94,2.09-8.55-.2S25.29,27.24,28.4,25.05Zm1.86,24.8c-2.7,2.68-6.57,3.17-8.65,1.08S20,45,22.72,42.29s6.56-3.17,8.65-1.09S33,47.16,30.26,49.85ZM35.93,38.2a1.07,1.07,0,1,1-1-1.83,1.07,1.07,0,1,1,1,1.83Zm4-6.55a1.08,1.08,0,1,1-.69,1.56A1.22,1.22,0,0,1,39.92,31.65Zm-1,11.14A1.07,1.07,0,1,1,38,41a1.07,1.07,0,1,1,1,1.83Zm7.53,12.83c-3.35,1.81-7.2,1.16-8.59-1.44s.19-6.16,3.54-8,7.19-1.16,8.59,1.44S49.82,53.82,46.47,55.62Zm4.81-14.89c-1.4-2.6.18-6.16,3.53-8s7.2-1.15,8.6,1.44-.19,6.17-3.54,8S52.67,43.32,51.28,40.73Z" style="fill: #606060"/>
        <g style="opacity: 0.30000000000000004">
          <path d="M63.78,22c-6.54-9.33-22-9.78-34.53-1S11.86,44.43,18.4,53.76s22,9.78,34.53,1S70.32,31.29,63.78,22ZM47.31,18.81c3.35-1.8,7.2-1.16,8.6,1.44s-.19,6.16-3.54,8-7.2,1.16-8.6-1.44S44,20.61,47.31,18.81ZM43.91,39a1.07,1.07,0,1,1-.69,1.55A1.22,1.22,0,0,1,43.91,39Zm1.67-5.76a1.07,1.07,0,1,1-.69,1.55A1.21,1.21,0,0,1,45.58,33.27Zm-3.89,5a1.73,1.73,0,0,1-2.36-.39,2,2,0,0,1,3.33-1.79A1.72,1.72,0,0,1,41.69,38.29ZM28.4,25.05c3.12-2.18,7-2.09,8.56.21s.39,5.93-2.73,8.11-6.94,2.09-8.55-.2S25.29,27.24,28.4,25.05Zm1.86,24.8c-2.7,2.68-6.57,3.17-8.65,1.08S20,45,22.72,42.29s6.56-3.17,8.65-1.09S33,47.16,30.26,49.85ZM35.93,38.2a1.07,1.07,0,1,1-1-1.83,1.07,1.07,0,1,1,1,1.83Zm4-6.55a1.08,1.08,0,1,1-.69,1.56A1.22,1.22,0,0,1,39.92,31.65Zm-1,11.14A1.07,1.07,0,1,1,38,41a1.07,1.07,0,1,1,1,1.83Zm7.53,12.83c-3.35,1.81-7.2,1.16-8.59-1.44s.19-6.16,3.54-8,7.19-1.16,8.59,1.44S49.82,53.82,46.47,55.62Zm4.81-14.89c-1.4-2.6.18-6.16,3.53-8s7.2-1.15,8.6,1.44-.19,6.17-3.54,8S52.67,43.32,51.28,40.73Z" style="fill: #606060"/>
        </g>
      </g>
      <g>
        <path d="M63.07,20.92c-6.54-9.33-22-9.78-34.53-1S11.16,43.39,17.7,52.72s22,9.78,34.53,1S69.61,30.25,63.07,20.92ZM46.61,17.77C50,16,53.8,16.61,55.2,19.21s-.19,6.16-3.54,8-7.2,1.16-8.59-1.44S43.25,19.57,46.61,17.77ZM43.21,38a1.07,1.07,0,1,1-.69,1.55A1.22,1.22,0,0,1,43.21,38Zm1.66-5.76a1.07,1.07,0,1,1-.69,1.55A1.23,1.23,0,0,1,44.87,32.23Zm-3.89,5a1.73,1.73,0,0,1-2.36-.39A2,2,0,0,1,42,35.07,1.71,1.71,0,0,1,41,37.25ZM27.7,24c3.11-2.18,6.94-2.09,8.55.21s.39,5.93-2.72,8.11-7,2.09-8.56-.2S24.58,26.2,27.7,24Zm1.85,24.8C26.86,51.49,23,52,20.91,49.89s-1.59-6,1.1-8.64,6.57-3.17,8.65-1.09S32.25,46.12,29.55,48.81Zm5.68-11.65a1.07,1.07,0,1,1-1-1.83,1.07,1.07,0,1,1,1,1.83Zm4-6.55a1.24,1.24,0,0,1,1.68.28,1.39,1.39,0,0,1-2.37,1.28A1.23,1.23,0,0,1,39.21,30.61Zm-1,11.14a1.2,1.2,0,0,1-1.67-.28,1.38,1.38,0,0,1,2.36-1.27A1.2,1.2,0,0,1,38.23,41.75Zm7.54,12.83c-3.35,1.81-7.2,1.16-8.6-1.44s.19-6.16,3.54-8,7.2-1.16,8.6,1.44S49.12,52.78,45.77,54.58Zm4.8-14.89c-1.4-2.6.19-6.16,3.54-8s7.2-1.15,8.59,1.44-.19,6.17-3.54,8S52,42.28,50.57,39.69Z" style="fill: #fff;stroke: #252d31;stroke-miterlimit: 10;stroke-width: 0.200000002980232px"/>
        <g>
          <path d="M63.07,20.92c-6.54-9.33-22-9.78-34.53-1S11.16,43.39,17.7,52.72s22,9.78,34.53,1S69.61,30.25,63.07,20.92ZM46.61,17.77C50,16,53.8,16.61,55.2,19.21s-.19,6.16-3.54,8-7.2,1.16-8.59-1.44S43.25,19.57,46.61,17.77ZM43.21,38a1.07,1.07,0,1,1-.69,1.55A1.22,1.22,0,0,1,43.21,38Zm1.66-5.76a1.07,1.07,0,1,1-.69,1.55A1.23,1.23,0,0,1,44.87,32.23Zm-3.89,5a1.73,1.73,0,0,1-2.36-.39A2,2,0,0,1,42,35.07,1.71,1.71,0,0,1,41,37.25ZM27.7,24c3.11-2.18,6.94-2.09,8.55.21s.39,5.93-2.72,8.11-7,2.09-8.56-.2S24.58,26.2,27.7,24Zm1.85,24.8C26.86,51.49,23,52,20.91,49.89s-1.59-6,1.1-8.64,6.57-3.17,8.65-1.09S32.25,46.12,29.55,48.81Zm5.68-11.65a1.07,1.07,0,1,1-1-1.83,1.07,1.07,0,1,1,1,1.83Zm4-6.55a1.24,1.24,0,0,1,1.68.28,1.39,1.39,0,0,1-2.37,1.28A1.23,1.23,0,0,1,39.21,30.61Zm-1,11.14a1.2,1.2,0,0,1-1.67-.28,1.38,1.38,0,0,1,2.36-1.27A1.2,1.2,0,0,1,38.23,41.75Zm7.54,12.83c-3.35,1.81-7.2,1.16-8.6-1.44s.19-6.16,3.54-8,7.2-1.16,8.6,1.44S49.12,52.78,45.77,54.58Zm4.8-14.89c-1.4-2.6.19-6.16,3.54-8s7.2-1.15,8.59,1.44-.19,6.17-3.54,8S52,42.28,50.57,39.69Z" style="fill: #fff;stroke: #252d31;stroke-miterlimit: 10;stroke-width: 0.200000002980232px"/>
          <path d="M50.57,39.69a5.66,5.66,0,0,0,1,1.15,4.93,4.93,0,0,0,1.51.88,6.4,6.4,0,0,0,2.29.37A8.54,8.54,0,0,0,62,38.53a7.25,7.25,0,0,0,.82-1.62,5.27,5.27,0,0,0,.29-1.85,4.23,4.23,0,0,0-.49-1.86,4.16,4.16,0,0,0-1.28-1.42,5.27,5.27,0,0,0-1.7-.79,6.54,6.54,0,0,0-1.8-.2,7.69,7.69,0,0,0-1.74.24,8.6,8.6,0,0,0-4.91,3.35,6.48,6.48,0,0,0-1,2.12,5.42,5.42,0,0,0-.1,1.75,5.36,5.36,0,0,0,.43,1.44l0-.09-.13-.26a3.61,3.61,0,0,1-.17-.45,4.26,4.26,0,0,1-.14-.63,5,5,0,0,1,.07-1.78,6.33,6.33,0,0,1,1-2.16,8.73,8.73,0,0,1,5-3.45,8.58,8.58,0,0,1,1.77-.24,7,7,0,0,1,1.86.2,5.68,5.68,0,0,1,1.75.81,4.51,4.51,0,0,1,1.33,1.48,4.39,4.39,0,0,1,.5,1.93A5.31,5.31,0,0,1,63,37a7.43,7.43,0,0,1-.85,1.66A9,9,0,0,1,61,40a8.75,8.75,0,0,1-5.62,2.25,6.5,6.5,0,0,1-2.32-.4,5.07,5.07,0,0,1-1.53-.92,3.26,3.26,0,0,1-.45-.48,2.42,2.42,0,0,1-.28-.38l-.15-.25Z" style="fill: #fff;stroke: #252d31;stroke-miterlimit: 10;stroke-width: 0.200000002980232px"/>
          <path d="M45.77,54.58l.08,0,.24-.16a7.61,7.61,0,0,0,.92-.64,9,9,0,0,0,1.26-1.24,7.08,7.08,0,0,0,1.15-2,5,5,0,0,0,.21-2.77A4.45,4.45,0,0,0,49,46.28a4.79,4.79,0,0,0-1.18-1.15,5.81,5.81,0,0,0-1.59-.69,6.79,6.79,0,0,0-1.81-.19,8.06,8.06,0,0,0-1.87.28,9.66,9.66,0,0,0-1.81.73,9,9,0,0,0-1.6,1.11,7.66,7.66,0,0,0-1.27,1.4,7,7,0,0,0-.83,1.61,5.72,5.72,0,0,0-.31,1.71,4.58,4.58,0,0,0,.31,1.62,4.47,4.47,0,0,0,.84,1.3,4.91,4.91,0,0,0,2.43,1.35,6.71,6.71,0,0,0,2.32.15,8.42,8.42,0,0,0,1.73-.36,8.64,8.64,0,0,0,1-.41l.26-.12.1,0s0,0-.09.06l-.26.13a6.13,6.13,0,0,1-1,.44,8.32,8.32,0,0,1-1.74.4,7.18,7.18,0,0,1-2.36-.13,5.11,5.11,0,0,1-2.5-1.37,4.29,4.29,0,0,1-.87-1.35,4.4,4.4,0,0,1-.33-1.67,5.71,5.71,0,0,1,.3-1.76,7.09,7.09,0,0,1,.86-1.66A8.26,8.26,0,0,1,39,46.24a9.28,9.28,0,0,1,1.63-1.13,9.16,9.16,0,0,1,1.85-.74,8.33,8.33,0,0,1,1.9-.29,7.63,7.63,0,0,1,1.86.2,5.7,5.7,0,0,1,1.63.72,4.65,4.65,0,0,1,1.22,1.2,4.45,4.45,0,0,1,.64,1.47,5.06,5.06,0,0,1-.24,2.84,7,7,0,0,1-1.19,2,8.43,8.43,0,0,1-1.29,1.23,7.68,7.68,0,0,1-.94.62l-.25.14C45.8,54.57,45.77,54.59,45.77,54.58Z" style="fill: #fff;stroke: #252d31;stroke-miterlimit: 10;stroke-width: 0.200000002980232px"/>
          <path d="M38.23,41.75s.09-.06.23-.18a1.61,1.61,0,0,0,.44-.63,1,1,0,0,0,0-.51A.81.81,0,0,0,38.6,40a1.33,1.33,0,0,0-1.31,0,1.32,1.32,0,0,0-.75,1.07.79.79,0,0,0,.2.53.92.92,0,0,0,.44.26,1.47,1.47,0,0,0,.77,0l.28-.09s-.08.08-.26.15a1.4,1.4,0,0,1-.81.08,1.07,1.07,0,0,1-.52-.28.91.91,0,0,1-.26-.63,1.46,1.46,0,0,1,.83-1.22,1.48,1.48,0,0,1,1.48,0,.92.92,0,0,1,.38.56A1,1,0,0,1,39,41a1.39,1.39,0,0,1-.51.64C38.34,41.73,38.24,41.76,38.23,41.75Z" style="fill: #fff;stroke: #252d31;stroke-miterlimit: 10;stroke-width: 0.200000002980232px"/>
          <path d="M39.21,30.61s-.08.07-.23.19a1.57,1.57,0,0,0-.44.63,1,1,0,0,0,0,.51.8.8,0,0,0,.33.46,1.33,1.33,0,0,0,1.32,0,1.35,1.35,0,0,0,.75-1.08.78.78,0,0,0-.21-.53.89.89,0,0,0-.44-.25,1.48,1.48,0,0,0-.77,0c-.18,0-.27.1-.28.08a.94.94,0,0,1,.26-.14,1.45,1.45,0,0,1,.82-.08,1.07,1.07,0,0,1,.52.28.89.89,0,0,1,.25.62,1.47,1.47,0,0,1-.82,1.23,1.45,1.45,0,0,1-1.48,0,.88.88,0,0,1-.39-.56,1,1,0,0,1,.06-.58,1.46,1.46,0,0,1,.51-.64A1,1,0,0,1,39.21,30.61Z" style="fill: #fff;stroke: #252d31;stroke-miterlimit: 10;stroke-width: 0.200000002980232px"/>
          <path d="M35.23,37.16s.08-.07.22-.19a1.39,1.39,0,0,0,.44-.63.8.8,0,0,0,0-.51.72.72,0,0,0-.33-.46,1.45,1.45,0,0,0-2.06,1.11.79.79,0,0,0,.2.53,1,1,0,0,0,.45.26,1.6,1.6,0,0,0,.77,0,1.32,1.32,0,0,1,.28-.09.63.63,0,0,1-.26.15,1.38,1.38,0,0,1-.82.07,1,1,0,0,1-.52-.27,1,1,0,0,1-.26-.63,1.5,1.5,0,0,1,.83-1.23,1.48,1.48,0,0,1,1.48,0,.92.92,0,0,1,.38.56,1.1,1.1,0,0,1-.05.58,1.51,1.51,0,0,1-.52.65C35.33,37.14,35.23,37.17,35.23,37.16Z" style="fill: #fff;stroke: #252d31;stroke-miterlimit: 10;stroke-width: 0.200000002980232px"/>
          <path d="M29.55,48.81s0,0,.06-.08l.2-.22a11.06,11.06,0,0,0,.69-.88,9,9,0,0,0,.85-1.55,6.83,6.83,0,0,0,.52-2.26,5,5,0,0,0-.59-2.72,4.46,4.46,0,0,0-1-1.18,4.52,4.52,0,0,0-1.46-.76A5.8,5.8,0,0,0,27.1,39a7,7,0,0,0-1.79.34,8.29,8.29,0,0,0-1.71.8,9,9,0,0,0-2.74,2.74,8.26,8.26,0,0,0-.81,1.7,6.66,6.66,0,0,0-.34,1.79,5.51,5.51,0,0,0,.2,1.73,4.2,4.2,0,0,0,1.94,2.47,4.9,4.9,0,0,0,2.71.59,6.77,6.77,0,0,0,2.26-.52,8.37,8.37,0,0,0,1.55-.84,8.26,8.26,0,0,0,.88-.69l.22-.19c.05,0,.08-.07.08-.06s0,0-.06.07l-.21.2a7.32,7.32,0,0,1-.87.72,8.29,8.29,0,0,1-1.55.88,6.88,6.88,0,0,1-2.29.55,5,5,0,0,1-2.79-.59,4.48,4.48,0,0,1-1.23-1,4.73,4.73,0,0,1-.79-1.51,5.8,5.8,0,0,1-.21-1.78,6.94,6.94,0,0,1,.34-1.83,8.15,8.15,0,0,1,.83-1.74A8.7,8.7,0,0,1,22,41.19,9.17,9.17,0,0,1,23.51,40a8,8,0,0,1,1.75-.82,7.29,7.29,0,0,1,1.83-.34,6.1,6.1,0,0,1,1.77.22,4.47,4.47,0,0,1,1.51.8,4.34,4.34,0,0,1,1,1.23A5.07,5.07,0,0,1,32,43.82a7.19,7.19,0,0,1-.55,2.3,8.27,8.27,0,0,1-.89,1.55,7.06,7.06,0,0,1-.72.86l-.2.21Z" style="fill: #fff;stroke: #252d31;stroke-miterlimit: 10;stroke-width: 0.200000002980232px"/>
          <path d="M27.7,24l-.07.07-.23.18c-.2.15-.48.4-.82.72a7.79,7.79,0,0,0-2.06,3.41,6.08,6.08,0,0,0-.19,1.31,4.64,4.64,0,0,0,.21,1.41,3.9,3.9,0,0,0,.77,1.31,4.12,4.12,0,0,0,1.29.95,5.92,5.92,0,0,0,3.43.35,8.93,8.93,0,0,0,3.45-1.46A8.7,8.7,0,0,0,36,29.52a5.92,5.92,0,0,0,.85-3.34,4.42,4.42,0,0,0-.45-1.55,3.83,3.83,0,0,0-1-1.16,4.36,4.36,0,0,0-1.25-.68,5.58,5.58,0,0,0-1.3-.27,7.81,7.81,0,0,0-3.9.77,9.75,9.75,0,0,0-1,.53l-.24.15-.09,0,.08-.06.23-.16a10.51,10.51,0,0,1,.95-.56,7.73,7.73,0,0,1,3.94-.83,5.79,5.79,0,0,1,1.33.26,4.84,4.84,0,0,1,1.3.7,4.12,4.12,0,0,1,1,1.2,4.31,4.31,0,0,1,.47,1.6,6.06,6.06,0,0,1-.85,3.44,9.08,9.08,0,0,1-6.11,4.28,6,6,0,0,1-3.52-.37,4.49,4.49,0,0,1-1.35-1,4,4,0,0,1-.78-1.37,4.65,4.65,0,0,1-.21-1.46,5.14,5.14,0,0,1,.21-1.33,7.7,7.7,0,0,1,2.12-3.42,8,8,0,0,1,.85-.71l.24-.16Z" style="fill: #fff;stroke: #252d31;stroke-miterlimit: 10;stroke-width: 0.200000002980232px"/>
          <path d="M41,37.25s.12-.08.33-.25a2.1,2.1,0,0,0,.63-.89,1.29,1.29,0,0,0,.05-.73,1.1,1.1,0,0,0-.48-.67,1.87,1.87,0,0,0-1.87,0,1.92,1.92,0,0,0-1.08,1.54,1.13,1.13,0,0,0,.3.77,1.25,1.25,0,0,0,.64.36,2.12,2.12,0,0,0,1.09,0c.25-.07.38-.14.39-.13s0,0-.09.06a1.43,1.43,0,0,1-.28.14,2.09,2.09,0,0,1-1.14.09,1.42,1.42,0,0,1-.71-.38,1.27,1.27,0,0,1-.35-.87,2.2,2.2,0,0,1,3.19-1.71,1.22,1.22,0,0,1,.53.76,1.44,1.44,0,0,1-.08.81,2.08,2.08,0,0,1-.7.9,1.43,1.43,0,0,1-.27.16Z" style="fill: #fff;stroke: #252d31;stroke-miterlimit: 10;stroke-width: 0.200000002980232px"/>
          <path d="M44.87,32.23s-.08.07-.22.19a1.48,1.48,0,0,0-.45.63,1,1,0,0,0,0,.51.8.8,0,0,0,.33.46,1.45,1.45,0,0,0,2.07-1.11.79.79,0,0,0-.2-.53,1,1,0,0,0-.45-.26,1.6,1.6,0,0,0-.77,0,1.55,1.55,0,0,1-.28.09.8.8,0,0,1,.26-.15A1.38,1.38,0,0,1,46,32a1,1,0,0,1,.52.27.94.94,0,0,1,.25.63,1.58,1.58,0,0,1-2.3,1.24.88.88,0,0,1-.38-.56,1,1,0,0,1,.05-.58,1.47,1.47,0,0,1,.51-.64A.73.73,0,0,1,44.87,32.23Z" style="fill: #fff;stroke: #252d31;stroke-miterlimit: 10;stroke-width: 0.200000002980232px"/>
          <path d="M43.21,38a2.17,2.17,0,0,1-.23.19,1.57,1.57,0,0,0-.44.63,1,1,0,0,0,0,.51.76.76,0,0,0,.33.46,1.46,1.46,0,0,0,2.07-1.11.75.75,0,0,0-.21-.53.91.91,0,0,0-.44-.26,1.6,1.6,0,0,0-.77,0,1.55,1.55,0,0,1-.28.09s.08-.08.26-.15a1.37,1.37,0,0,1,.82-.07,1,1,0,0,1,.51.27.88.88,0,0,1,.26.63,1.48,1.48,0,0,1-.83,1.23,1.46,1.46,0,0,1-1.47,0,.94.94,0,0,1-.39-.56,1,1,0,0,1,.06-.58,1.5,1.5,0,0,1,.51-.65A.6.6,0,0,1,43.21,38Z" style="fill: #fff;stroke: #252d31;stroke-miterlimit: 10;stroke-width: 0.200000002980232px"/>
          <path d="M46.61,17.77l-.09.06-.24.15a9,9,0,0,0-.92.64,9.62,9.62,0,0,0-1.26,1.24,7.59,7.59,0,0,0-1.15,2,5,5,0,0,0-.21,2.77,4.18,4.18,0,0,0,.63,1.42,4.42,4.42,0,0,0,1.17,1.15,5.46,5.46,0,0,0,1.6.69,6.67,6.67,0,0,0,1.8.19,8,8,0,0,0,1.87-.28,10.34,10.34,0,0,0,1.81-.72A10.11,10.11,0,0,0,53.22,26a7.68,7.68,0,0,0,1.27-1.41A6.65,6.65,0,0,0,55.32,23a5.66,5.66,0,0,0,.31-1.71,4.58,4.58,0,0,0-.31-1.62,4.47,4.47,0,0,0-.84-1.3A5,5,0,0,0,52.05,17a7,7,0,0,0-2.32-.15A8.31,8.31,0,0,0,48,17.2a11.16,11.16,0,0,0-1,.41l-.26.12-.09,0s0,0,.08-.05l.26-.14a9.53,9.53,0,0,1,1-.44,8.06,8.06,0,0,1,1.73-.4,7.18,7.18,0,0,1,2.36.13,5.11,5.11,0,0,1,2.5,1.37,4.29,4.29,0,0,1,1.2,3,5.66,5.66,0,0,1-.3,1.76,6.9,6.9,0,0,1-.86,1.66,7.88,7.88,0,0,1-1.29,1.43A8.55,8.55,0,0,1,49.86,28a8.5,8.5,0,0,1-1.91.29,7,7,0,0,1-1.85-.2,5.64,5.64,0,0,1-1.64-.72,4.65,4.65,0,0,1-1.22-1.2,4.45,4.45,0,0,1-.64-1.47,5.15,5.15,0,0,1,.24-2.84,7.22,7.22,0,0,1,1.19-2,8.92,8.92,0,0,1,1.29-1.23,7.68,7.68,0,0,1,.94-.62l.26-.14S46.6,17.76,46.61,17.77Z" style="fill: #fff;stroke: #252d31;stroke-miterlimit: 10;stroke-width: 0.200000002980232px"/>
          <path d="M63.07,20.92l.22.32a9.7,9.7,0,0,1,.62,1,15.84,15.84,0,0,1,1.62,4.13,18.71,18.71,0,0,1,.3,7,25.8,25.8,0,0,1-3,8.8,33.53,33.53,0,0,1-7,8.8,36.83,36.83,0,0,1-11,6.85,32.54,32.54,0,0,1-6.75,1.9c-.59.11-1.19.17-1.79.25s-1.21.11-1.82.12a24.13,24.13,0,0,1-3.7-.12,22.89,22.89,0,0,1-3.71-.71,18.93,18.93,0,0,1-3.56-1.4,15.9,15.9,0,0,1-8.65-12.34,19.65,19.65,0,0,1-.1-3.83,22,22,0,0,1,.6-3.72,23.33,23.33,0,0,1,1.14-3.52c.22-.57.49-1.12.74-1.67s.54-1.08.84-1.6a33,33,0,0,1,4.09-5.7,37,37,0,0,1,10.18-8A33.83,33.83,0,0,1,43,13.89a25.64,25.64,0,0,1,9.28.2,18.83,18.83,0,0,1,6.49,2.66,15.7,15.7,0,0,1,3.33,2.94,9.57,9.57,0,0,1,.71.91c.16.21.23.32.23.32l-.24-.31c-.16-.21-.39-.52-.73-.9a15.87,15.87,0,0,0-3.34-2.9,18.63,18.63,0,0,0-6.47-2.63A25.52,25.52,0,0,0,43,14a33.77,33.77,0,0,0-10.62,3.61,37.16,37.16,0,0,0-10.13,8,32.64,32.64,0,0,0-4.07,5.68c-.3.51-.56,1.06-.83,1.59s-.52,1.09-.73,1.66A23.09,23.09,0,0,0,15.52,38a22.72,22.72,0,0,0-.6,3.69,19.35,19.35,0,0,0,.11,3.8A15.74,15.74,0,0,0,23.59,57.7a19,19,0,0,0,3.53,1.39,22.19,22.19,0,0,0,3.67.7,25.26,25.26,0,0,0,3.68.13c.61,0,1.21-.08,1.81-.12s1.19-.14,1.78-.25a32.68,32.68,0,0,0,6.72-1.88,37,37,0,0,0,10.93-6.81,33.65,33.65,0,0,0,7-8.76,25.6,25.6,0,0,0,3-8.75,18.92,18.92,0,0,0-.26-7,16.45,16.45,0,0,0-1.59-4.13c-.24-.45-.46-.76-.6-1Z" style="fill: #fff;stroke: #252d31;stroke-miterlimit: 10;stroke-width: 0.200000002980232px"/>
        </g>
      </g>
    </g>
    <g>
      <path d="M74.78,51.6A54.6,54.6,0,0,1,54.07,65.66c-7.41,2.92-20.54,5.32-32.68.59S3,52.25,3.24,51.89c-.17.1-.13,2.66,1.14,6.24l.12-.06.07.17.24.55.05.11L4.7,59h0C7,64.79,12.41,72.84,24.91,77.61a41.8,41.8,0,0,0,21.68,3A68.65,68.65,0,0,0,59.8,77.52a57.5,57.5,0,0,0,19.42-12C77.79,60.68,76.2,56.38,74.78,51.6ZM3.55,53.28l0-.09h0v0l0-.06h0L3.4,53l0-.08a.28.28,0,0,1,0-.13l.17.08h0l0,.07a.61.61,0,0,0,.05.12l0,.08,0,.08Zm.71,1.06-.07-.06-.05-.08h0l-.36-.53h0l0-.07.15-.1.06.07.05.07.35.51h0l.05.07Zm.75,1,0-.08H5l0-.06h0l-.28-.36h0l0-.07-.06-.07h0l0-.07.15-.13.11.14.34.43h0l.11.14Zm8.85,7.56L14,63l.54.34-.19.3-.45-.29h0l-.07,0-.08,0h0l-.07-.05Zm-1-.7.14.1.52.35-.18.28-.45-.31h0l-.07,0-.07-.05h0l-.08,0Zm-1-.74.14.11.51.37-.18.26-.43-.32h0l-.07,0-.08-.06h0l-.07,0Zm-1-.76.14.11.5.38-.19.25-.42-.34h0l-.07-.05L10.71,61h0L10.64,61ZM6.23,56.45l.12.14.43.46-.17.16-.36-.4h0l-.06-.07-.06-.06h0l-.06-.07Zm-.81-.59h0l-.06-.08-.06-.06h0l-.06-.07.16-.14.12.13.41.48-.16.15Zm-.18,4.28,0-.08h0l0-.06v0h0l-.32-.66L5,59.24l0,.07.28.57h0l.08.16Zm.6,1.12,0-.08h0l0,0,0,0h0l-.35-.64.18-.1L6,61l.07.12Zm1.27-3.52-.06-.07L7,57.61H7l-.06-.07.17-.17.12.12.45.45-.18.18-.38-.38Zm-.62,4.62,0-.08h0l0,0,0,0h0L6,61.58l.18-.12.41.67.06.1Zm1.32-3.92L8,58.25l.13.13.46.43L8.4,59,8,58.63H8l-.07-.07-.06-.05h0Zm-.63,5,0-.07h0l0-.05v0h0l-.4-.61.19-.12.43.65.07.1Zm.73,1-.06-.08h0l-.47-.67.19-.14.43.6.1.13Zm1.42-4.61-.4-.37h0l-.07-.07-.06-.06h0l-.07-.06.18-.2.13.12.47.41Zm-.65,5.62-.06-.08h0l0,0,0,0h0l-.44-.57.2-.16.44.57.11.14Zm1.2-5.15h0l-.07-.06-.07-.06h0l-.07-.06.18-.22.14.12.48.4-.18.23Zm-.4,6.13-.06-.07h0l-.52-.63.2-.17.5.6.08.09Zm.84,1-.07-.07h0v0l-.05,0h0l-.49-.55.2-.18.52.57.08.1Zm.87.92-.07-.06h0l0,0,0,0h0l-.5-.52.2-.2.51.52.11.12Zm.89.89L12,69.16h0l-.58-.57.2-.21.53.51.11.11Zm.94.86L13,70h0l-.06,0h0l-.53-.49.2-.23.57.52.09.08Zm1.94-6-.08,0-.07,0h0l-.08-.05.18-.3.15.09.54.32-.18.32L15,64.05ZM14,70.9l-.07-.06h0l-.05,0h0l-.55-.47.19-.25.6.5.09.08ZM16,64.7l-.08,0-.08,0h0l-.08,0,.17-.32.16.08.54.31-.17.33L16,64.69Zm-1.08,7-.07,0h0l-.05,0,0,0h0l-.57-.45.2-.26.6.48.1.07Zm2.18-6.38-.08,0-.08,0h0l-.08,0,.17-.34.16.09.55.28-.17.35-.47-.25ZM16,72.45l-.08-.06h0l-.65-.49.2-.27.6.44.12.08Zm2.29-7,.64.31-.17.37-.64-.32ZM17,73.17l-.07,0h0l0,0,0,0h0l-.59-.41.19-.29.63.42.11.08ZM19.38,66l.65.29-.16.38-.65-.3Zm-1.32,7.87-.08,0h0l0,0,0,0h0l-.61-.39.19-.3.6.38h0l.15.1Zm2.46-7.38.66.27-.15.41-.66-.28Zm-1.39,8-.08-.05h0l0,0,0,0h0l-.62-.37.19-.32.64.38.12.07ZM21.67,67l.67.24-.15.43-.67-.26Zm-1.44,8.18-.08,0h0l0,0,0,0h0l-.63-.35.18-.34.63.35h0l.15.08Zm2.61-7.76.67.23-.14.44-.67-.24Zm-1.5,8.34-.08,0h0l-.06,0h0l-.63-.33.17-.35.63.32h0l.16.08Zm2.68-8,.68.21-.13.45-.69-.21Zm-1.55,8.51-.08,0h0l-.07,0h0l-.65-.32.17-.36.64.3h0l.17.07Zm2.74-8.16.6.16,0,.09-.05.2h0l0,.09h0l0,.09-.61-.16Zm-1.59,8.68-.08,0h0l-.73-.33L23,76l.65.28h0l.16.07Zm3.48-8.22-.11.5-.69-.17.11-.48Zm-2.2,8.38-.12.31-.09,0h0l-.07,0h0L24,76.92l.15-.4.66.26h0l.17.07ZM74.19,52.6l.77.74-.49.53-.76-.75Zm-.85.91.75.76-.51.51L72.85,54Zm-.87.89.72.76-.53.5-.7-.77Zm-.89.86.69.78-.54.48-.67-.78Zm-.91.84.65.78-.55.47-.64-.78Zm-.94.82.63.78-.56.46-.62-.79Zm-1,.79.61.79-.57.44-.59-.79Zm-1,.77.57.79-.57.43-.57-.79Zm-1,.74.55.8-.59.41-.54-.79Zm-1,.72.52.8-.59.4-.52-.79Zm-1,.7.5.8-.6.39-.49-.8Zm-1,.68.48.8-.61.37-.47-.79Zm-1,.66.45.79-.62.36-.44-.79Zm-1.07.63.43.79-.62.35L61,63Zm-1.08.6.41.79-.63.34-.4-.79Zm-1.09.59.39.79-.65.32-.37-.79Zm-2.22,1.1.34.77L56.9,66l-.33-.77Zm-1.13.51.31.77-.66.27-.3-.77ZM55,65.88l.29.77-.68.25-.27-.77Zm-1.16.45.28.76-.68.24-.26-.75Zm-1.15.43.24.75-.67.23L52,67Zm-1.17.39.22.75-.68.2-.22-.74Zm-1.18.36.2.74-.69.19-.19-.73Zm-1.19.33.18.73-.69.17L48.42,68Zm-1.19.3.16.73-.7.15-.15-.72Zm-1.21.28.14.71-.7.13-.13-.7Zm-1.21.24.13.7-.71.12-.11-.69Zm-1.21.21.1.69-.7.11-.1-.69Zm-1.22.19.09.68-.71.08-.08-.67Zm-14.75-.25-.09.51-.7-.15.09-.5Zm-2.25,8.56L26,77.7l-.09,0h0l0,0h0l-.67-.25.15-.41.66.24h0l.17.06ZM29.53,69l-.08.52-.71-.12.09-.52Zm-2.4,9.11-.09,0h0l0,0H27l-.68-.24.15-.43.67.23h0l.17.06,0,.08Zm2.92-9,.7.09-.07.54-.7-.1Zm-1.73,9.42-.09,0h0l-.05,0h0l-.68-.22.13-.44.68.21h0l.17,0,0,.09Zm3-9.27.7.08-.05.55-.71-.08Zm-1.85,9.6-.77-.23.13-.46.68.2h0l.17,0-.12.48-.09,0Zm3.08-9.48.7.06,0,.57-.71-.06Zm-1.87,9.81h-.08l-.7-.19L30,78.5l.69.17h0l.17,0-.11.48-.09,0Zm3.1-9.72.7,0,0,.59-.71,0Zm-1.88,10h-.09l-.7-.17.12-.49.68.16h0l.18,0-.11.51-.08,0Zm3.11-10,.71,0v.6l-.72,0ZM33.08,79.74H33l-.7-.15.1-.51.7.14h0l.17,0-.09.52-.09,0ZM36.2,69.53h.71v.61H36.2ZM34.31,80l-.79-.14.09-.53.75.13.12,0L34.4,80l-.09,0Zm3.13-10.45.71,0,0,.63-.72,0ZM35.55,80.17h-.09l-.71-.1.08-.55.75.11h.13l-.07.56Zm3.12-10.7.71,0,0,.64-.72,0ZM36.79,80.32l-.8-.09.07-.56.73.08h.15l-.06.58-.09,0ZM39.9,69.39l.71,0,0,.65L40,70ZM38,80.44H38l-.71-.07,0-.57.71,0h0l.18,0,0,.58Zm3.09-11.15.71-.08.07.67L41.2,70ZM39.28,80.53H39.2l-.72,0,0-.59.73,0h.15l0,.6Zm1.26,0-.81,0,0-.61.77,0h.11v.61Zm1.25,0H41V80h.89v.62h-.09Zm1.25,0H43l-.71,0,0-.63.75,0h.13l0,.64Zm1.25-.06H44.2l-.71,0,0-.64.76,0h.12l.05.66Zm1.25-.09-.81.06,0-.66.74-.06.14,0,.07.67Zm1.24-.13H46.7l-.72.08-.07-.67.7-.08h0l.18,0,.08.68h-.09ZM48,80.08h-.08l-.71.1-.1-.68.7-.11h0l.18,0,.1.69Zm1.24-.21h0l-.06,0h0l-.7.13-.12-.69.7-.14.17,0,.13.7-.09,0Zm1.23-.25-.79.16-.14-.7.75-.17.11,0,.16.71-.09,0Zm1.22-.28h-.09l-.7.16-.16-.71.69-.17h0l.17,0,.17.72-.08,0Zm1.21-.3-.78.19L52,78.51l.74-.2.12,0L53,79l-.09,0Zm.52-.14-.19-.73.68-.19.2.74ZM57.7,64.67l.64-.31.36.78-.65.31ZM54.64,78.59l-.19-.75.68-.19.2.76Zm1.2-.32-.19-.76.68-.19.2.77Zm1.56-.4L57,78l-.19-.78.33-.09.3-.12.28.76Zm.86-.34L58,76.77l.66-.26.29.76Zm1.15-.43-.26-.78.66-.24.28.78Zm1.18-.43-.29-.78.66-.27.3.79Zm1.17-.46-.32-.79.65-.28.33.78Zm1.16-.5-.35-.79.64-.31.36.79Zm1.14-.54-.38-.79.63-.33.39.8Zm1.12-.57-.4-.8.62-.34.41.8Zm1.1-.59-.41-.8.63-.34.42.81Zm1.11-.59L67,72.61l.62-.34.43.82Zm1.1-.59L68.06,72l.61-.35.45.82Zm1.1-.61-.46-.83.61-.36.47.83Zm1.07-.7-.48-.82.6-.38.49.83Zm1-.68L71.2,70l.59-.4.53.82Zm1-.75-.55-.8.56-.43.58.8Zm1-.76-.62-.77.54-.47.63.77Zm1-.8-.62-.78.56-.46.62.8Zm.93-.78-.61-.81.57-.45.61.83Zm1-.76L76,66.16l.55-.44.64.83Zm1-.8L77,65.37l.53-.46.68.81ZM78,64.65l.51-.49.33.36.19.62-.33.3Z" style="fill: #252d31"/>
      <path d="M75.33,53.4,78.6,63.47c-5.31,4.62-9.38,8.06-17.92,11.81a44.77,44.77,0,0,1-7.09,2.38,45.92,45.92,0,0,1-17,1.66,33.93,33.93,0,0,1-10.48-2.44c-8.7-3.46-12.6-7-15.81-10.25a28.67,28.67,0,0,1-4.56-6.5,41.82,41.82,0,0,1-1.71-3.91l-.89-3.57S8.29,63,22,68.08c11.83,4.38,21.5,2.31,31.32-.19,0,0,7.13-2.58,8.61-3.66s7.35-4.81,9.75-7.11S75.33,53.4,75.33,53.4Z" style="fill: #fff"/>
      <path d="M7.69,63.3a4.6,4.6,0,0,1-.37-1c-.19-.61-.4-1.46-.59-2.41s-.34-1.81-.43-2.44a5.85,5.85,0,0,1-.12-1,7.39,7.39,0,0,1,.24,1c.13.67.29,1.51.47,2.43s.39,1.79.55,2.41A9.93,9.93,0,0,1,7.69,63.3Z" style="fill: #263238"/>
      <path d="M11.69,70a8.43,8.43,0,0,1-.27-1.07c-.14-.66-.32-1.58-.49-2.6s-.3-2-.38-2.62a8.18,8.18,0,0,1-.1-1.09,6.69,6.69,0,0,1,.22,1.07c.11.72.26,1.62.43,2.61l.44,2.61A6.55,6.55,0,0,1,11.69,70Z" style="fill: #263238"/>
      <path d="M22.3,76.13a1.08,1.08,0,0,1-.14-.31c-.08-.2-.18-.5-.31-.87-.25-.74-.58-1.77-.91-2.92s-.58-2.2-.75-3c-.09-.38-.16-.69-.19-.91a1.59,1.59,0,0,1-.05-.33,1.19,1.19,0,0,1,.11.32l.24.89c.2.76.48,1.8.8,2.95s.64,2.18.86,2.92c.11.35.19.65.27.89A1.92,1.92,0,0,1,22.3,76.13Z" style="fill: #263238"/>
      <path d="M35.05,79.57a1.89,1.89,0,0,1-.19-.35c-.12-.22-.28-.56-.48-1-.39-.83-.9-2-1.44-3.27s-1-2.48-1.29-3.34c-.16-.43-.28-.78-.35-1a2,2,0,0,1-.11-.39,2.47,2.47,0,0,1,.17.36l.4,1c.34.85.81,2,1.34,3.31s1,2.45,1.39,3.29l.43,1C35,79.43,35.07,79.56,35.05,79.57Z" style="fill: #263238"/>
      <path d="M49.76,79s-1.09-2.09-2.34-4.72-2.22-4.77-2.18-4.79,1.09,2.09,2.34,4.72S49.8,78.94,49.76,79Z" style="fill: #263238"/>
      <path d="M63.15,74.66a3.09,3.09,0,0,1-.16-.38l-.39-1c-.33-.87-.8-2.07-1.36-3.37s-1.12-2.45-1.53-3.29l-.49-1a2.74,2.74,0,0,1-.16-.37,1.45,1.45,0,0,1,.22.33c.13.23.32.56.54,1,.43.82,1,2,1.57,3.28s1,2.5,1.33,3.38c.15.44.26.8.34,1.05A1.26,1.26,0,0,1,63.15,74.66Z" style="fill: #263238"/>
      <path d="M76.38,65.81s-1-2.06-2.14-4.65-2-4.71-2-4.73,1,2.07,2.14,4.66S76.42,65.79,76.38,65.81Z" style="fill: #263238"/>
      <g style="opacity: 0.2">
        <path d="M36.37,70.6a72.63,72.63,0,0,1-9.48,7.13,30.5,30.5,0,0,0,4.45,1.14,108.61,108.61,0,0,0,11.5-8.77S38.23,70.5,36.37,70.6Z" style="fill: #fff"/>
      </g>
      <g style="opacity: 0.2">
        <path d="M34.66,79.32a98.59,98.59,0,0,0,11-9.79l1.7-.3a118.17,118.17,0,0,1-11.31,10.2Z" style="fill: #fff"/>
      </g>
    </g>
    <g>
      <path d="M72.05,29a27.61,27.61,0,0,0-2-13.29,26.44,26.44,0,0,0-12-12.48C51-.44,42.31-1,33,1.63A45,45,0,0,0,17.21,9.71a48.08,48.08,0,0,0-10,10.71,43.51,43.51,0,0,0-6.85,16,24.62,24.62,0,0,0,3,16.73l.56,1L3.85,53A44.47,44.47,0,0,1,5.33,40.74,39.21,39.21,0,0,1,19.42,19a44.66,44.66,0,0,1,5-3.23l1-.57c6.18-3.62,11.75-5.58,17-6a29.43,29.43,0,0,1,13.42,2.21A26,26,0,0,1,68.29,22a28.48,28.48,0,0,1,3.24,7l.34,1.26ZM42.66.55l0,.68-.7,0L42,.6ZM38.84.89l.11.68-.7.12L38.14,1Zm-1.25.2.12.69L37,1.91l-.13-.68Zm-1.21.23.14.68-.69.16-.15-.69Zm-1.2.26.16.69-.68.17-.17-.68ZM34,1.91l.18.68-.68.2-.19-.69Zm-1.23.35.2.68-.68.21L32,2.47Zm-1.11.38.21.68-.67.23-.22-.68Zm-1.18.47.24.68L30,4l-.24-.68Zm-1.17.44.25.68-.66.26-.26-.67ZM28.1,4l.28.67L27.73,5l-.28-.67ZM27,4.54l.29.66-.64.3-.3-.66Zm-1.14.54.31.65L25.5,6l-.32-.64Zm-1.11.57.32.64-.63.33L24.07,6Zm-1.11.6.34.63-.62.35L23,6.61Zm-1.08.63.35.62-.61.36-.36-.6Zm-1.07.66.36.6-.6.39-.37-.59Zm-1.05.7.37.58-.58.4-.39-.58Zm-1,.71.39.58-.58.41-.39-.56Zm-1,.75.4.56-.57.43-.4-.55Zm-1,.73.41.55-.55.45-.42-.54Zm-1,.82.43.53-.55.46-.42-.52Zm-1,.81.44.51-.53.48-.44-.51Zm-.94.84.45.5-.52.49-.45-.49Zm-.9.88.46.48-.51.5L13,14.29Zm-.91.9.46.47-.49.52-.47-.47Zm-.86.93.48.45-.48.53-.48-.45ZM5.21,37.75l.22-.69.44.15-.23.69Zm.26.7-.21.69L4.84,39l.2-.7Zm.15-1.91.24-.68.45.17-.25.68ZM6,35.34l.27-.68.45.19-.26.67Zm-1.86,8L4,44,3.69,44l.13-.72Zm-.25,1.26-.1.72-.32-.05.09-.72ZM7,34.35l-.46-.2.28-.67.47.21Zm4-17.8.48.44-.46.54-.49-.43Zm-1.59,2,.5.41-.44.57-.5-.4Zm-.78,1,.51.39-.42.58-.51-.38Zm-.73,1,.52.37-.41.59-.51-.36Zm-.7,1,.51.35-.39.61-.51-.35Zm-.67,1.1.52.33-.38.61-.51-.32Zm-.62,1.08.5.31L6,24.74l-.5-.3Zm-.61,1.13.5.29-.34.64-.51-.29Zm-.66,1.11.5.27L4.73,27l-.5-.26ZM4,27.2l.5.25-.31.65-.5-.25Zm-.54,1.13.49.23-.29.66L3.18,29ZM3,29.55l.49.22-.28.66-.48-.2Zm-.47,1.17.48.19-.25.68-.48-.19Zm-.46,1.22.47.18-.23.68-.47-.16Zm.06,1.37L1.91,34l-.47-.14.21-.7ZM1.24,34.4l.46.13-.18.7-.46-.12ZM1,35.65l.46.1-.16.71-.45-.1ZM.72,36.9l.45.08-.12.71-.44-.07Zm-.2,1.27.45,0-.09.72-.43,0ZM.41,39.44l.42,0,0,.72-.42,0Zm0,1.28h.4v.72H.36ZM.36,42H.74l0,.72-.37,0Zm.12,1.29.37,0L.92,44l-.36,0Zm.16,1.31L1,44.58l.11.72-.33.06ZM.85,45.9l.32-.07.14.71-.3.07Zm.47,2-.2-.7.3-.08.18.7ZM9.67,18.07l.46-.57.49.43-.45.55ZM1.73,49l-.24-.69.27-.09.23.69Zm3.43-9.39-.2.7-.4-.11.19-.71Zm-.37,1.21-.18.7-.39-.09.17-.72Zm-.36,1.21-.15.71-.37-.08L4.06,42ZM2.16,50.21l-.28-.68.25-.1.26.68Zm.48,1.08-.31-.66.22-.1.29.66Zm.83,1.21-.34-.64.19-.1.33.65Zm0-1H3.29l0-.09-.06-.64h.21Zm0-1.25H3.25l0-.73h.24Zm0-1.26H3.23V48.3H3.5Zm.09-2,0,.73-.28,0,0-.73Zm.07-.51-.3,0,.06-.73.32,0ZM7.47,33.22,7,33l.3-.66.47.23ZM8,32.16l-.47-.25.32-.65.48.25Zm.55-1.11L8,30.79l.35-.65.48.28ZM9.13,30l-.48-.29L9,29l.48.3Zm.63-1-.48-.32L9.67,28l.48.33Zm.72-1L10,27.53l.41-.6.48.36Zm.67-1-.48-.38.44-.58.48.39Zm.73-.93-.48-.41.45-.56.48.41Zm.7-1-.47-.42.47-.55.47.43Zm.74-.84-.46-.44.49-.53.46.45Zm.77-.82-.46-.46.51-.52.45.47Zm.77-.82L14.41,22l.52-.5.44.49Zm.86-.83-.43-.49.53-.49.43.5Zm.9-.87-.42-.51.54-.47.42.51Zm1-.85-.42-.52.55-.46.42.53Zm1-.82-.4-.53.56-.45.4.54Zm1.09-.85-.39-.55.57-.43.4.56Zm.95-.73L20.27,17l.59-.41.38.57Zm1.06-.74-.37-.58.59-.4.37.58Zm1-.67-.37-.59.61-.38.36.59Zm1.06-.64-.35-.61.61-.37.35.61Zm1.09-.63-.34-.62.62-.35.33.62ZM26,14.22l-.33-.63.63-.34.32.64Zm1.16-.59L26.79,13l.64-.33.31.65Zm1.1-.56-.3-.65.65-.31.29.66Zm1.11-.52L29,11.89l.65-.29.29.67ZM30.51,12l-.27-.67.66-.28.27.67Zm1.22-.54-.26-.67.67-.26.25.67ZM32.94,11l-.23-.67.67-.24.23.67Zm1.14-.43-.22-.67.68-.22.21.67Zm1.13-.37L35,9.5l.68-.21.2.67Zm1.13-.36-.18-.67L36.85,9l.17.68Zm3-9L40.1.72l.09.68-.7.09ZM37.54,9.48l-.16-.68.7-.16.14.68ZM40.63.67,41.34.6l.07.68-.71.07ZM38.86,9.09l-.13-.67.7-.14.12.68Zm1.21-.22L40,8.2l.71-.11.09.68ZM43.91.5l0,.68-.7,0,0-.68ZM41.28,8.71,41.21,8,41.92,8l.06.67ZM45.17.5v.67h-.7V.5ZM42.5,8.59l0-.67.71,0,0,.68Zm3.92-8,0,.66-.7,0,0-.66Zm-2.69,8,0-.67h.72v.66Zm4-7.89-.06.66-.7-.06,0-.66ZM45,8.56V7.89l.71,0,0,.66Zm4-7.77-.08.65-.7-.08L48.21.7ZM46.17,8.61l0-.66.72.06,0,.65ZM49.46.87l.71.12-.11.65-.7-.12ZM47.4,8.71l.06-.65.71.08-.07.65Zm3.3-7.62.7.16-.14.63-.69-.15ZM48.63,8.84l.09-.65.7.12L49.33,9Zm3.29-7.47.7.19-.16.62L51.78,2Zm-2.08,7.7L50,8.43l.7.14-.12.63Zm22,15.51-.24,0-.1-.72.26,0Zm-1-5-.32.11L70.23,19l.33-.11Zm-3.44-7.64.41.61-.37.26L67,12.2Zm-.74-1,.43.59-.37.28-.43-.57Zm-.81-1,.46.56-.37.31-.45-.55ZM53.15,1.68l.68.22-.18.6L53,2.29ZM51.07,9.34l.14-.62.69.17-.14.61ZM54.34,2.1l.67.25-.21.59-.66-.24Zm-2.1,7.51.15-.6.69.21-.16.59Zm1.79.53-.67-.22.17-.58.68.24Zm2-6.76-.66-.27.22-.57.67.28ZM56.68,3l.65.31-.25.54-.64-.3Zm-1.5,7.55-.66-.25.2-.56.67.27Zm2.64-7,.63.35-.27.51-.63-.33Zm-1.49,7.5-.65-.28.21-.54.66.3ZM58.92,4.2l.62.37-.29.49-.61-.36Zm-1.49,7.38-.63-.31.23-.51.64.32ZM60,4.87l.6.4-.3.47-.59-.39Zm-1.44,7.31L58,11.84l.25-.49.63.36Zm2.5-6.6.58.44-.32.44L60.77,6Zm-1.41,7.23-.61-.37.26-.46.61.39Zm2.42-6.43.56.46-.33.41-.55-.45ZM60.7,13.49l-.59-.39.28-.44.59.41ZM63,7.22l.53.49-.34.39-.53-.48Zm-1.35,7-.57-.42.28-.41.58.44ZM64,8.09l.51.51L64.15,9l-.51-.5ZM62.69,15l-.55-.45.29-.38.56.46ZM64.9,9l.49.54L65,9.85l-.48-.53Zm-1.26,6.81-.54-.47.3-.36.54.48Zm.9.86-.51-.5.3-.33.51.51Zm.87.9L64.92,17l.3-.31.49.54Zm.84.93-.48-.54.3-.27.47.55Zm1.42-5.2L68,13l.37.63-.37.23ZM67,19.44l-.45-.56.29-.25.45.58Zm1.26-5.09.37-.22.34.65-.36.2Zm-.5,6.09-.43-.58.28-.21.42.59Zm1.37-4.34-.32-.65.36-.19.31.67Zm-.66,5.38-.4-.6.27-.19.39.61Zm1.16-4.21-.28-.66.35-.16.28.68Zm.54.39.25.68-.33.13-.26-.68Zm-1,4.89-.38-.62.26-.16.37.62Zm.62,1.1L69.45,23l.25-.14.34.65Zm.82-3.46.31-.09.19.71-.3.08Zm-.25,4.58-.32-.64.23-.12.31.66Zm.76-2.65L71,21.41l.29-.07.16.71Zm.39.47.13.72-.27.05-.14-.71ZM70.75,26l0-.09c0-.18-.11-.35-.17-.51l0-.08.22-.08,0,.08c.06.17.11.34.16.53l0,.09Zm.41,1.08h0L71,26.46l.17-.05,0,.09.15.52Zm.47-1.93.23,0,0,.73h-.22Zm.12,2,0-.09v-.73h.21v.09h0v.18h0v.55Z" style="fill: #252d31"/>
      <path d="M3.05,51a33.47,33.47,0,0,1,.46-8.16A42.2,42.2,0,0,1,9.77,26.91c4.71-7,14-14.64,26.4-18.18a30.2,30.2,0,0,1,14.6-.48c10.71,2.22,16.39,9.27,19.37,15.17a15,15,0,0,1,1,2.51l.62,3A27.41,27.41,0,0,0,69.3,17.32c-3.62-8.44-14.56-20-35.52-14.07A46.63,46.63,0,0,0,8.15,21.93a43.3,43.3,0,0,0-6.8,15.9A24.65,24.65,0,0,0,3,51" style="fill: #fff"/>
      <path d="M16.22,18.67a33.42,33.42,0,0,1-.55-3.33A31.52,31.52,0,0,1,15.29,12s.29,1.48.55,3.33S16.27,18.66,16.22,18.67Z" style="fill: #263238"/>
      <path d="M11.47,24.58a23.92,23.92,0,0,1-.65-2.88,25.31,25.31,0,0,1-.48-2.91A26.46,26.46,0,0,1,11,21.67,27.79,27.79,0,0,1,11.47,24.58Z" style="fill: #263238"/>
      <path d="M8.1,30.51a3,3,0,0,1-.44-.63c-.24-.4-.56-1-.88-1.63S6.17,27,6,26.61a3.87,3.87,0,0,1-.33-.69,3.39,3.39,0,0,1,.44.63c.24.41.56,1,.88,1.63s.61,1.23.83,1.64A3.87,3.87,0,0,1,8.1,30.51Z" style="fill: #263238"/>
      <path d="M5.3,35.56a16.93,16.93,0,0,1-1.36-1.88,15.94,15.94,0,0,1-1.21-2,16.2,16.2,0,0,1,1.36,1.87A14.82,14.82,0,0,1,5.3,35.56Z" style="fill: #263238"/>
      <path d="M4.1,40.86a13.61,13.61,0,0,1-1.4-1.71,13.48,13.48,0,0,1-1.25-1.81,15.33,15.33,0,0,1,1.39,1.71A15.58,15.58,0,0,1,4.1,40.86Z" style="fill: #263238"/>
      <path d="M22.51,15.18S22.25,13.76,22,12a28.68,28.68,0,0,1-.31-3.21A30.23,30.23,0,0,1,22.2,12,28.68,28.68,0,0,1,22.51,15.18Z" style="fill: #263238"/>
      <path d="M29.28,11.35a31.1,31.1,0,0,1-.53-3.2,29.9,29.9,0,0,1-.35-3.23,30.23,30.23,0,0,1,.52,3.2C29.16,9.9,29.32,11.34,29.28,11.35Z" style="fill: #263238"/>
      <path d="M38.17,8.3a29.76,29.76,0,0,1-.48-3.18,28.89,28.89,0,0,1-.31-3.21s.26,1.42.48,3.19A28.83,28.83,0,0,1,38.17,8.3Z" style="fill: #263238"/>
      <path d="M47.85,7.87a28.64,28.64,0,0,1-.49-3.19c-.21-1.76-.35-3.2-.31-3.2a29.76,29.76,0,0,1,.48,3.18C47.75,6.42,47.89,7.86,47.85,7.87Z" style="fill: #263238"/>
      <path d="M56.58,10.06s-.26-1.42-.48-3.18a28.89,28.89,0,0,1-.31-3.21,30.23,30.23,0,0,1,.48,3.19A28.83,28.83,0,0,1,56.58,10.06Z" style="fill: #263238"/>
      <path d="M62.84,14.51a5.46,5.46,0,0,1-.17-.94c-.07-.59-.16-1.4-.23-2.3S62.3,9.61,62.25,9a6.07,6.07,0,0,1,0-1,5,5,0,0,1,.17.94c.07.59.16,1.4.23,2.3s.14,1.65.19,2.29A6.19,6.19,0,0,1,62.84,14.51Z" style="fill: #263238"/>
      <path d="M68.29,20.43a4.28,4.28,0,0,1-.17-.93c-.08-.57-.17-1.37-.26-2.24s-.15-1.62-.21-2.25a5.94,5.94,0,0,1-.05-.94,4.26,4.26,0,0,1,.17.92c.08.58.17,1.37.26,2.25s.15,1.62.21,2.25A5.91,5.91,0,0,1,68.29,20.43Z" style="fill: #263238"/>
      <g style="opacity: 0.2">
        <path d="M18.69,10.88l-2.94,9.19c1.06-1,2.17-1.89,3.31-2.77l2.83-8.72A30.75,30.75,0,0,0,18.69,10.88Z" style="fill: #fff"/>
      </g>
      <g style="opacity: 0.2">
        <polygon points="22.51 8.21 20.05 16.55 20.93 16 23.43 7.64 22.51 8.21" style="fill: #fff"/>
      </g>
    </g>
  </g>
</svg>
