<svg xmlns="http://www.w3.org/2000/svg" viewBox="0 0 110.57 46.2">
  <g style="isolation: isolate">
    <g>
      <path d="M98.73,45.18c-.14,0-.24-.13-.27-.34l-.07-1c0-.2.07-.35.21-.37l.23,0,.22,0,.23,0,.22,0c.14,0,.24.13.26.33l.09,1c0,.21-.07.36-.21.38l-.23,0-.22,0-.23,0-.23,0m2.09-.22c-.13,0-.23-.12-.26-.33l-.09-1c0-.2.07-.35.2-.38l.22,0,.22,0,.21,0,.22,0c.13,0,.23.12.25.33l.1,1c0,.21-.07.36-.2.39l-.21,0-.22,0-.22,0-.22,0m2-.27c-.12,0-.22-.12-.25-.33l-.09-1c0-.21,0-.36.18-.39l.2,0,.2,0,.21,0,.19,0c.13,0,.22.11.25.31l.1,1c0,.22,0,.37-.17.4l-.2,0-.21,0-.2,0-.21,0m1.85-.33c-.11,0-.21-.12-.24-.33l-.1-1c0-.2.05-.36.16-.39l.19,0,.18,0,.18,0,.18,0c.11,0,.2.11.23.31l.11,1c0,.21,0,.37-.15.41l-.18,0-.18,0-.19,0-.19,0m1.66-.38c-.1,0-.18-.11-.21-.32l-.12-1c0-.21,0-.37.14-.41l.16,0,.16,0,.16,0,.16,0c.09,0,.17.1.2.31l.12,1c0,.21,0,.38-.12.41l-.16.05-.16,0-.16,0-.17,0m1.44-.42c-.09,0-.17-.11-.2-.32l-.12-1c0-.21,0-.37.11-.41l.13,0,.14-.05.13,0,.13,0c.07,0,.14.1.17.31l.12,1c0,.21,0,.37-.08.41l-.13.05-.13,0-.14,0-.13.05m1.15-.44c-.07,0-.13-.11-.16-.32l-.13-1c0-.21,0-.37.07-.41l.11,0,.1,0,.09-.05.1,0s.11.1.14.3l.13,1c0,.22,0,.38,0,.42l-.09,0-.1.05a.31.31,0,0,0-.1,0l-.11,0m.83-.47h0s-.06,0-.1-.31l-.13-1a.67.67,0,0,1,0-.41l.07-.06.06-.05.06,0,.06-.05h0s0,0,.09.31l.13,1a.9.9,0,0,1,0,.43l0,0-.06,0-.06.05-.07,0m.46-.48h0a2,2,0,0,1-.06-.31l-.14-1a1.61,1.61,0,0,1,0-.41l0,0s0,0,0,0,0,0,0,0a.08.08,0,0,0,0,0h0v0a1.76,1.76,0,0,1,0,.32l.14,1a2.48,2.48,0,0,1,0,.41h0v0h0a.08.08,0,0,1,0,0,0,0,0,0,1,0,0l0,0s0,0,0,0M96.8,43l-.87-12.55c.89-.07,1.76-.16,2.61-.28s1.69-.25,2.48-.4,1.56-.32,2.26-.5,1.37-.38,2-.58c.33-.05.46.37.51.73L107,40.33c.06.58-.07,1-.32,1.11-.62.19-1.32.36-2.08.53s-1.56.31-2.41.44-1.73.25-2.64.35-1.84.17-2.78.23M110,39.45v.09a.41.41,0,0,1,0,.09.9.9,0,0,1-.19.36,2.55,2.55,0,0,1-.41.35,5.35,5.35,0,0,1-.6.34A8,8,0,0,1,108,41c-.24,0-.4-.26-.5-.84l-1.31-10.94c0-.54,0-.87.25-1a8,8,0,0,0,.72-.37,3.5,3.5,0,0,0,.55-.37,1.71,1.71,0,0,0,.38-.38,1.05,1.05,0,0,0,.18-.37.41.41,0,0,1,0-.09.67.67,0,0,1,0-.1L110,39.45M97.52,29.6c-.13,0-.22-.11-.24-.28l-.07-.87c0-.17.07-.3.2-.33l.21,0,.21,0,.21,0,.21,0c.12,0,.22.1.24.27l.07.86c0,.18-.07.32-.19.34l-.21,0-.21,0-.21,0-.22,0m1.94-.27c-.12,0-.22-.09-.24-.27l-.07-.87c0-.17.06-.31.18-.33l.21,0,.2,0,.19,0,.2,0c.12,0,.21.09.24.27l.08.86c0,.18-.06.32-.18.35l-.2,0-.2,0-.2,0-.21,0M101.3,29c-.11,0-.2-.09-.23-.27l-.08-.86c0-.18.06-.32.17-.35l.19,0,.19,0,.18,0,.19,0c.11,0,.19.08.22.26l.09.87c0,.19,0,.32-.17.36l-.18,0-.19,0-.19,0-.19,0m1.71-.38c-.11,0-.19-.09-.22-.27l-.09-.86c0-.18,0-.32.15-.36l.17,0,.18-.05.16,0,.17-.05c.1,0,.18.08.21.26l.09.87c0,.18,0,.32-.14.36l-.17,0-.17,0-.17,0-.17,0m1.53-.43c-.09,0-.17-.08-.2-.26l-.09-.88c0-.18,0-.32.12-.35l.15-.05.15,0,.15-.05.14-.05c.09,0,.16.07.19.25l.1.87c0,.19,0,.33-.11.37L105,28l-.14.05-.16.05-.15.05m1.32-.47c-.08,0-.15-.08-.17-.26l-.11-.87c0-.18,0-.33.1-.37l.13,0,.12-.05.12-.06.12,0c.07,0,.13.08.15.25l.11.88c0,.18,0,.33-.08.37l-.12,0-.12.06-.12.05-.13,0m1.06-.5c-.06,0-.12-.07-.14-.25l-.11-.88c0-.18,0-.32.06-.37l.1,0,.09-.06.09-.05.09-.06c.05,0,.09.08.12.25l.11.88c0,.19,0,.33,0,.38l-.09,0-.09.06-.09.05-.1,0m.76-.51h0s-.07,0-.1-.26l-.11-.88a.75.75,0,0,1,0-.37l.07-.06,0,0,.06-.06,0-.05h0s0,0,.07.26l.12.88a.84.84,0,0,1,0,.37l-.05.06,0,.05-.06.06-.06.05m.41-.51h0s0-.05-.06-.26l-.11-.88a1.31,1.31,0,0,1,0-.37l0,0s0,0,0,0a.09.09,0,0,0,0-.05s0,0,0,0h0s0,0,0,.26l.12.88c0,.21,0,.33,0,.36v0h0a.06.06,0,0,1,0,0v0s0,0,0,.05,0,0,0,0m2.3,16.56q-1.27-9.57-2.54-19.15c0,.12,0,.14,0,.15a.09.09,0,0,0,0,0c-.07.39-.49.79-1.17,1.19a14.21,14.21,0,0,1-2.75,1.1,35,35,0,0,1-3.8.91c-1.39.25-2.88.45-4.4.58l0,.7h.38l.12,0c.24.08.24.08.31,1.15,0,.23-.06.25-.2.33h-.51l1,13.84h.54c.25.09.25.09.34,1.34,0,.22,0,.22-.16.36l-.19,0H97l.06.9c1.67-.09,3.3-.25,4.82-.45s3-.47,4.19-.76a17.82,17.82,0,0,0,3-1c.76-.35,1.23-.72,1.32-1.08,0-.1,0-.12,0-.13v-.05" style="fill: #252d31"/>
      <path d="M105.23,28.68c-.58.2-1.24.4-2,.58s-1.46.35-2.26.5-1.62.29-2.48.4-1.72.21-2.61.28L96.8,43c.94-.06,1.87-.13,2.78-.23s1.8-.22,2.64-.35,1.66-.28,2.41-.44,1.46-.34,2.08-.53c.35-.19.35-.78.32-1.11l-1.29-10.92c-.09-.62-.33-.78-.51-.73" style="fill: #fff"/>
      <path d="M110,39.45v.09a.41.41,0,0,1,0,.09.9.9,0,0,1-.19.36,2.55,2.55,0,0,1-.41.35,5.35,5.35,0,0,1-.6.34A8,8,0,0,1,108,41c-.39,0-.39,0-1.81-11.78,0-.54,0-.87.25-1a8,8,0,0,0,.72-.37,3.5,3.5,0,0,0,.55-.37,1.71,1.71,0,0,0,.38-.38,1.05,1.05,0,0,0,.18-.37.41.41,0,0,1,0-.09.67.67,0,0,1,0-.1L110,39.45" style="fill: #fff"/>
    </g>
    <path d="M107.85,23.61q1.28,9.59,2.54,19.15v.14a.06.06,0,0,0,0,0c-.09.36-.56.73-1.32,1.08a18.12,18.12,0,0,1-3,1c-1.23.29-2.66.55-4.2.76s-3.17.36-4.84.45L95.69,27.6c1.52-.13,3-.33,4.41-.59a33.77,33.77,0,0,0,3.82-.9A14.16,14.16,0,0,0,106.67,25c.69-.4,1.11-.8,1.18-1.19v-.15A.11.11,0,0,0,107.85,23.61Z" style="fill: none"/>
    <g>
      <path d="M47.63,32.89a1.15,1.15,0,0,1,0-.48l.16-1c0-.23.07-.25.08-.26s0,0,0,0h0a.35.35,0,0,0,0,.08l.07.07.08.08.1.08a.59.59,0,0,1,.07.44l-.17,1c0,.2-.11.31-.18.27a.39.39,0,0,1-.1-.08l-.08-.07L47.7,33l-.06-.08h0m1.14.76c-.11-.06-.17-.22-.14-.44l.16-1c0-.21.13-.31.25-.27l.21.08.21.08.23.08.25.08a.39.39,0,0,1,.22.44l-.16,1c0,.2-.17.31-.33.27l-.24-.08-.24-.08L49,33.73a1.31,1.31,0,0,1-.21-.08m2.45.74a.38.38,0,0,1-.28-.44l.15-1a.31.31,0,0,1,.38-.27l.33.08.34.08.35.07.37.08a.41.41,0,0,1,.34.43l-.13,1a.36.36,0,0,1-.45.28l-.37-.08-.36-.07-.34-.08-.33-.08m3.54.71a.43.43,0,0,1-.4-.43l.13-1c0-.21.23-.31.49-.28l.2,0,.2,0,.2,0,.2,0,.12,0,.12,0,.12,0,.13,0c.13,0,.21.19.19.39l-.12,1c0,.21-.14.33-.28.32l-.13,0-.12,0-.12,0-.13,0-.2,0-.2,0-.2,0-.2,0m2.54.41a.33.33,0,0,1-.21-.39l.12-1c0-.21.15-.33.29-.32l.24,0,.24,0,.25,0,.24,0a.35.35,0,0,1,.22.39l-.11,1c0,.21-.15.34-.3.33l-.25,0-.25,0-.24,0-.24,0m2.33.34a.34.34,0,0,1-.23-.4l.1-1c0-.21.15-.33.31-.32l.26,0,.26,0,.26,0,.26,0a.35.35,0,0,1,.25.39l-.1,1c0,.21-.16.34-.32.33l-.27,0-.26,0-.26,0-.26,0m2.49.32c-.17,0-.26-.18-.25-.4l.09-1c0-.21.15-.33.32-.32l.28,0,.27,0,.28,0,.28,0a.35.35,0,0,1,.27.39l-.09,1c0,.21-.16.34-.33.33l-.28,0-.28,0-.28,0-.28,0m2.64.31a.35.35,0,0,1-.27-.39l.08-1c0-.2.15-.32.33-.31l.29,0,.29,0,.29,0,.29,0a.36.36,0,0,1,.29.39l-.08,1a.33.33,0,0,1-.34.33l-.29,0-.3,0-.29,0-.29,0m2.76.31a.36.36,0,0,1-.29-.4l.07-1a.32.32,0,0,1,.34-.32l.3,0,.3,0,.3,0,.31,0a.36.36,0,0,1,.29.38l-.06,1a.33.33,0,0,1-.34.33l-.31,0-.3,0-.31,0-.3,0m2.86.3a.38.38,0,0,1-.31-.4l.06-1a.32.32,0,0,1,.34-.32l.31,0,.31,0,.31,0,.31,0a.37.37,0,0,1,.31.39l0,1a.32.32,0,0,1-.34.33l-.32,0-.31,0-.31,0-.31,0m2.93.28A.37.37,0,0,1,73,37l0-1a.34.34,0,0,1,.35-.33l.31,0,.32,0,.31,0,.32,0a.37.37,0,0,1,.32.39l0,1a.33.33,0,0,1-.35.33l-.32,0-.32,0-.31,0-.32,0m3,.27a.37.37,0,0,1-.33-.39l0-1a.32.32,0,0,1,.34-.33l.32,0L77,36l.32,0,.32,0a.36.36,0,0,1,.33.38l0,1a.33.33,0,0,1-.34.34l-.32,0-.33,0-.32,0-.32,0m3,.27a.4.4,0,0,1-.33-.4v-1a.33.33,0,0,1,.34-.33l.33,0,.32,0,.32,0,.32,0a.38.38,0,0,1,.33.38v1a.32.32,0,0,1-.34.33l-.33,0-.32,0-.32,0-.33,0m3,.24a.39.39,0,0,1-.34-.39v-1a.31.31,0,0,1,.34-.33l.32,0,.32,0,.32,0,.32,0a.37.37,0,0,1,.33.38v1a.32.32,0,0,1-.33.34l-.32,0-.32,0-.32,0-.33,0m3,.24A.39.39,0,0,1,85,38l0-1a.31.31,0,0,1,.33-.33l.32,0,.31,0,.32,0,.31,0a.41.41,0,0,1,.34.39l0,1a.31.31,0,0,1-.32.34l-.32,0-.31,0-.32,0-.32,0m2.94.22a.4.4,0,0,1-.34-.39l0-1a.31.31,0,0,1,.31-.34l.31,0,.31,0,.31,0,.31,0a.41.41,0,0,1,.33.38l0,1a.3.3,0,0,1-.31.34l-.31,0-.31,0-.31,0-.31,0m2.86.2a.39.39,0,0,1-.33-.39l0-1a.3.3,0,0,1,.3-.34l.3,0,.29,0,.3,0,.3,0a.39.39,0,0,1,.33.38l0,1c0,.22-.11.35-.29.35l-.3,0-.3,0-.31,0-.3,0m2.77.19a.39.39,0,0,1-.33-.39l0-1c0-.21.1-.34.28-.34l.29,0,.28,0,.29,0h.28a.39.39,0,0,1,.32.38l.07,1c0,.21-.1.35-.28.35l-.28,0-.29,0-.29,0-.29,0m2.64.17a.38.38,0,0,1-.31-.38l-.07-1c0-.21.1-.34.26-.34h.27l.28,0,.26,0h.27a.4.4,0,0,1,.31.38l.08,1c0,.21-.09.35-.26.35h-.27l-.27,0-.27,0-.28,0m2.5.16a.4.4,0,0,1-.31-.39l-.08-1c0-.2.09-.34.24-.34h1.2a.45.45,0,0,1,.4.39l.09,1a.3.3,0,0,1-.33.34H99m3,.2a.44.44,0,0,1-.38-.39l-.09-1c0-.21.11-.35.3-.34l.31,0,.31,0,.3,0,.3,0a.44.44,0,0,1,.34.4l.11,1c0,.21-.1.35-.27.34l-.3,0-.31,0-.31,0-.31,0m2.72.29a.43.43,0,0,1-.32-.4l-.11-1c0-.21.08-.34.24-.32l.26,0,.25,0,.25,0,.25,0a.45.45,0,0,1,.29.4l.11,1c0,.22-.06.35-.21.34l-.24,0-.25,0-.26,0-.26,0m2.83.48a.58.58,0,0,1-.43-.45l-.12-1a.26.26,0,0,1,.33-.29l.34.09.32.08.29.08.28.09a.55.55,0,0,1,.31.46l.14,1c0,.22-.07.32-.23.28l-.28-.09-.29-.08-.32-.09-.34-.08m2.36.83a.69.69,0,0,1-.22-.47l-.14-1c0-.21,0-.31.13-.26l.14.1.12.1.1.1a.76.76,0,0,1,.08.11,1.52,1.52,0,0,1,.11.48l.14,1c0,.23,0,.26,0,.28l0,0-.08-.1a.94.94,0,0,0-.1-.1l-.13-.11-.14-.1M48.34,29.81c-.12.61-.22.67-.32.73l0,0a.24.24,0,0,1,0-.11V30.3l2.09-12.56a.09.09,0,0,1,0,.05s0,0,0,.06v.06s0,0,0,.05a3.32,3.32,0,0,1,0,1.12L48.34,29.81M49,31.27c-.29-.19-.39-.59-.31-1.2l1.75-10.72c.05-.29.2-.76.57-.61a9.77,9.77,0,0,0,1.1.43c.43.14.91.28,1.46.42s1.14.27,1.79.4l2.07.39,1.58.25,1.68.25,1.77.25,1.87.23a.86.86,0,0,1,.69.95L64.1,33.08a.87.87,0,0,1-.9.87l-2-.25-1.89-.25-1.79-.26-1.67-.27c-.79-.13-1.53-.26-2.22-.4s-1.33-.27-1.91-.4-1.1-.28-1.56-.42A8.94,8.94,0,0,1,49,31.27m16.75,3A1,1,0,0,1,65,33.18l.88-10.77a.81.81,0,0,1,.86-.77c1.14.13,2.33.25,3.53.37s2.43.24,3.67.36l3.76.32,3.78.31a1,1,0,0,1,.87.93l0,10.9a.87.87,0,0,1-.92.9l-4-.34-4-.36-3.91-.38-3.76-.4M84.3,36a1.06,1.06,0,0,1-.93-1.05L83.29,24a.8.8,0,0,1,.86-.81l3.7.26,3.58.23,3.39.2,3.15.17a1,1,0,0,1,.92.92l1,11c0,.22,0,1-.81.93-1.07-.06-2.19-.12-3.36-.2l-3.61-.23-3.82-.27L84.3,36m25.82,3.47a.85.85,0,0,0-.32-.52,3.65,3.65,0,0,0-.83-.47,11,11,0,0,0-1.33-.43c-.52-.13-1.12-.25-1.81-.37L105,37.5l-1-.13-1-.11-1.09-.1a1.21,1.21,0,0,1-1-1.07l-1-11a.72.72,0,0,1,.79-.82l1,.1,1,.1.88.12.82.13c.64.11,1.2.24,1.7.37a7.38,7.38,0,0,1,1.24.43,2.62,2.62,0,0,1,.79.49.89.89,0,0,1,.31.54l.87,6.49c.28,2.14.57,4.28.85,6.42M50.21,17.32a1,1,0,0,1,0-.42l.14-.86c0-.18.05-.19.06-.2l0,0h0s0,0,0,.08l.06.08.08.08.09.08a.5.5,0,0,1,.06.39l-.14.86c0,.17-.1.26-.16.22l-.09-.08-.08-.08-.06-.08-.05-.09h0m1,.8a.37.37,0,0,1-.13-.39l.14-.86c0-.17.12-.26.23-.21l.18.08.2.08.21.08.23.08a.38.38,0,0,1,.21.39l-.14.85c0,.18-.15.27-.3.23l-.22-.08-.22-.09-.2-.08-.19-.08m2.26.74a.36.36,0,0,1-.27-.38l.13-.86a.27.27,0,0,1,.35-.22l.31.08.31.07.33.08.33.08a.38.38,0,0,1,.33.38l-.12.85a.32.32,0,0,1-.41.23l-.34-.07L54.13,19l-.32-.08-.3-.08m3.27.7c-.24,0-.39-.2-.38-.38l.12-.85c0-.18.21-.27.45-.23l.18,0,.18,0,.19,0,.19,0,.11,0,.11,0,.11,0,.12,0a.29.29,0,0,1,.18.34l-.1.85c0,.18-.13.29-.26.27l-.12,0h-.11l-.12,0-.11,0-.19,0-.18,0-.19,0-.18,0m2.35.4c-.14,0-.21-.17-.2-.35l.1-.85c0-.18.13-.28.27-.27l.22,0,.22,0,.23,0,.23,0a.29.29,0,0,1,.2.34l-.09.85c0,.18-.14.29-.28.28l-.23,0-.22,0-.23,0-.22,0m2.15.32a.3.3,0,0,1-.22-.35l.09-.86c0-.17.14-.28.29-.26l.23,0,.25,0,.24,0,.24,0a.3.3,0,0,1,.23.34l-.09.85a.28.28,0,0,1-.29.28l-.24,0-.25,0-.24,0-.24,0m2.31.3a.3.3,0,0,1-.24-.34l.08-.86a.28.28,0,0,1,.3-.27l.25,0,.26,0,.25,0,.26,0a.31.31,0,0,1,.25.34l-.08.86a.28.28,0,0,1-.3.28l-.26,0-.26,0-.26,0-.25,0m2.44.29a.32.32,0,0,1-.26-.34l.08-.86a.28.28,0,0,1,.3-.27l.27,0,.27,0,.27,0,.27,0a.32.32,0,0,1,.26.34l-.06.86a.3.3,0,0,1-.32.27l-.27,0-.27,0-.27,0-.27,0m2.55.28a.32.32,0,0,1-.27-.34l.06-.86a.29.29,0,0,1,.31-.27l.28,0,.28,0,.28,0,.28,0a.33.33,0,0,1,.28.34L70,21a.29.29,0,0,1-.32.28l-.28,0-.28,0-.29,0-.28,0m2.65.27a.32.32,0,0,1-.29-.34l0-.86a.3.3,0,0,1,.32-.28l.29,0,.28,0,.29,0,.29,0a.32.32,0,0,1,.29.33l0,.86a.29.29,0,0,1-.32.28l-.29,0-.29,0-.29,0-.29,0m2.71.26a.33.33,0,0,1-.29-.34l0-.86A.29.29,0,0,1,74,20.2l.29,0,.3,0,.29,0,.29,0a.34.34,0,0,1,.3.34l0,.86a.28.28,0,0,1-.32.28l-.29,0-.3,0-.29,0-.3,0m2.76.24a.33.33,0,0,1-.3-.34l0-.86a.28.28,0,0,1,.32-.28l.29,0,.3,0,.3,0,.29,0a.34.34,0,0,1,.31.33l0,.87a.28.28,0,0,1-.32.28l-.29,0-.3,0L77,22l-.3,0m2.78.23a.34.34,0,0,1-.31-.33V21a.29.29,0,0,1,.32-.28l.3,0,.29,0,.3,0,.3,0a.34.34,0,0,1,.31.33V22a.29.29,0,0,1-.31.29l-.3,0-.3,0-.3,0-.3,0m2.79.22A.36.36,0,0,1,82,22v-.87a.28.28,0,0,1,.31-.28l.3,0,.3,0,.29,0,.3,0a.35.35,0,0,1,.31.33v.87a.29.29,0,0,1-.31.29l-.3,0-.3,0-.29,0-.3,0m2.76.2a.34.34,0,0,1-.31-.34l0-.87a.28.28,0,0,1,.3-.28l.3,0,.29,0,.29,0,.29,0a.34.34,0,0,1,.31.33l0,.87a.28.28,0,0,1-.3.29l-.29,0-.29,0-.3,0-.29,0m2.72.19a.35.35,0,0,1-.31-.34l0-.87a.27.27,0,0,1,.29-.29l.29,0,.28,0,.29,0,.28,0a.35.35,0,0,1,.31.32l0,.88a.27.27,0,0,1-.28.29l-.29,0-.29,0H88l-.29,0m2.65.17a.35.35,0,0,1-.31-.33l0-.88a.27.27,0,0,1,.28-.29l.28,0,.28,0h.27l.28,0a.35.35,0,0,1,.3.33l0,.87a.27.27,0,0,1-.27.3l-.28,0L91,23h-.28l-.28,0m2.56.16a.34.34,0,0,1-.3-.34l0-.87a.26.26,0,0,1,.26-.3l.27,0,.26,0h.27l.26,0a.33.33,0,0,1,.29.32l.06.88a.26.26,0,0,1-.26.3l-.26,0h-.27l-.27,0H93m2.44.14a.34.34,0,0,1-.29-.33L95.05,22a.25.25,0,0,1,.25-.3l.25,0h.5l.25,0a.33.33,0,0,1,.28.32l.06.88c0,.18-.08.3-.23.3h-.25l-.25,0H95.4m2.3.12a.35.35,0,0,1-.27-.33l-.07-.88c0-.18.08-.3.22-.3h1.11a.38.38,0,0,1,.36.33l.08.88c0,.19-.11.3-.31.3H97.7m2.76.17a.38.38,0,0,1-.34-.34L100,22.3a.27.27,0,0,1,.28-.29l.29,0,.29,0,.28,0,.27,0a.39.39,0,0,1,.32.34l.09.89c0,.18-.09.29-.25.28l-.28,0-.28,0-.29,0-.29,0m2.52.26a.39.39,0,0,1-.3-.35l-.09-.88c0-.18.07-.29.22-.28l.24,0,.24,0,.23,0,.23,0a.39.39,0,0,1,.26.35l.1.88c0,.19-.06.29-.19.28l-.23,0-.23,0-.24,0-.24,0m2.61.47a.54.54,0,0,1-.39-.4l-.1-.88c0-.18.11-.27.31-.23l.31.08.3.08.27.08.26.09a.57.57,0,0,1,.29.41l.11.88c0,.19-.06.27-.21.23l-.26-.09-.28-.09-.29-.08-.32-.08m2.2.85a.78.78,0,0,1-.21-.43l-.11-.88c0-.18,0-.26.12-.21l.13.11a1.27,1.27,0,0,1,.12.1l.09.11L108,24a2,2,0,0,1,.1.43l.11.88c0,.18,0,.2,0,.22h0v0l-.08-.11-.09-.1-.12-.11-.13-.1m2.77,17.64q-1.28-9.59-2.54-19.16a1,1,0,0,0-.32-.54,2.84,2.84,0,0,0-.77-.49,8.66,8.66,0,0,0-1.23-.43c-.49-.13-1-.26-1.67-.37-.4-.07-.82-.13-1.27-.19l-1.43-.16-1.58-.14L98,21.16c-2.89-.15-6.23-.34-9.76-.57s-7.25-.5-10.92-.8-7.29-.65-10.62-1-6.39-.78-8.92-1.22c-1-.18-1.94-.36-2.77-.54s-1.57-.38-2.19-.57a9.84,9.84,0,0,1-1.51-.6,1.79,1.79,0,0,1-.74-.63,1.78,1.78,0,0,1,0-.3l-3.1,18.63c0,.24,0,.26.07.28a1.78,1.78,0,0,0,.82.61A11.51,11.51,0,0,0,50,35c.69.19,1.5.38,2.41.57s1.94.38,3.05.56c2.78.46,6.13.9,9.79,1.31s7.63.8,11.65,1.16,8.12.68,12,1,7.55.52,10.72.71l1.91.14c.61,0,1.19.1,1.75.15l1.57.18,1.38.21c.69.11,1.31.24,1.84.37a9.35,9.35,0,0,1,1.34.42,3.17,3.17,0,0,1,.84.47.82.82,0,0,1,.33.52" style="fill: #263238"/>
      <path d="M48.34,29.81c-.12.61-.22.67-.32.73s0-.06,0-.08a.58.58,0,0,1,0-.1V30.3l2.09-12.56a.36.36,0,0,0,0,.11.42.42,0,0,0,0,.11c.07.31.22,1-1.74,11.85" style="fill: #fff"/>
      <path d="M64.33,21.36l-1.87-.23-1.77-.25L59,20.63l-1.58-.25L55.36,20c-.65-.13-1.25-.27-1.79-.4s-1-.28-1.46-.42a9.77,9.77,0,0,1-1.1-.43c-.12,0-.43-.14-.57.61L48.69,30.07c-.08.61,0,1,.31,1.2a8.94,8.94,0,0,0,1.17.43q.69.21,1.56.42c.58.13,1.22.27,1.91.4s1.43.27,2.22.4l1.67.27,1.79.26,1.89.25,2,.25a.87.87,0,0,0,.9-.87L65,22.31a.85.85,0,0,0-.69-.95" style="fill: #fff"/>
      <path d="M81.47,23l-3.78-.31-3.76-.32c-1.24-.12-2.47-.23-3.67-.36s-2.39-.24-3.53-.37a.8.8,0,0,0-.86.77L65,33.18a1,1,0,0,0,.76,1.07l3.76.4,3.91.38,4,.36,4,.34a.87.87,0,0,0,.92-.9l0-10.9a1,1,0,0,0-.87-.93" style="fill: #fff"/>
      <path d="M98,24.06l-3.15-.17-3.39-.2-3.58-.23-3.7-.26a.8.8,0,0,0-.86.81l.08,10.89A1.06,1.06,0,0,0,84.3,36l3.94.3,3.82.27,3.61.23c1.17.08,2.29.14,3.36.2.8,0,.81-.77.81-.93l-1-11a1,1,0,0,0-.92-.92" style="fill: #fff"/>
      <path d="M110.12,39.42a.85.85,0,0,0-.32-.52,3.65,3.65,0,0,0-.83-.47,11,11,0,0,0-1.33-.43c-.52-.13-1.12-.25-1.81-.37L105,37.5l-1-.13-1-.11-1.09-.1a1.22,1.22,0,0,1-1-1.07c-.55-3.28-.7-7.73-1-11a.72.72,0,0,1,.79-.82l1,.1,1,.1.88.12.82.13c.64.11,1.2.24,1.7.37a7.38,7.38,0,0,1,1.24.43,2.62,2.62,0,0,1,.79.49.89.89,0,0,1,.31.54l.87,6.49c.28,2.14.57,4.28.85,6.42" style="fill: #fff"/>
    </g>
    <path d="M47.43,33.53l3.1-18.63v.15s0,0,0,.07l0,.08a1.79,1.79,0,0,0,.74.63,9.84,9.84,0,0,0,1.51.6c.62.19,1.36.38,2.19.57s1.76.36,2.77.54c2.53.44,5.59.85,8.92,1.22s7,.72,10.62,1,7.4.57,10.92.8,6.87.42,9.76.57l1.74.1,1.58.14,1.43.16c.45.06.87.12,1.27.19.63.11,1.18.24,1.67.37a7.57,7.57,0,0,1,1.23.43,2.84,2.84,0,0,1,.77.49.89.89,0,0,1,.31.54l2.55,19.16a.82.82,0,0,0-.33-.52,3.17,3.17,0,0,0-.84-.47,9.35,9.35,0,0,0-1.34-.42c-.53-.13-1.15-.26-1.84-.37l-1.38-.21-1.57-.18c-.56,0-1.14-.11-1.75-.15l-1.91-.14c-3.17-.19-6.84-.43-10.72-.71s-8-.6-12-1-8-.75-11.65-1.16-7-.85-9.79-1.31c-1.11-.18-2.13-.37-3.05-.56S50.68,35.2,50,35a11.51,11.51,0,0,1-1.67-.59,1.78,1.78,0,0,1-.82-.61.16.16,0,0,1,0-.07.14.14,0,0,1,0-.07.15.15,0,0,1,0-.07Z" style="fill: none"/>
    <g>
      <path d="M47.55,32.05a2.16,2.16,0,0,1-.1.43v0s0,0,0,0v0a.06.06,0,0,1,0,0l.29-1.72a0,0,0,0,1,0,0v0l0,0v0s0,0,0,.28l-.17,1m.22.08h0s0-.05,0-.3l.17-1a.79.79,0,0,1,.15-.42.22.22,0,0,1,.09-.07l.1-.07.11-.06.13-.07c.08,0,.11.09.08.29l-.16,1a.71.71,0,0,1-.2.43l-.13.07L48,32l-.11.07-.09.07m1.28-.61c-.12,0-.17-.09-.14-.3l.17-1a.54.54,0,0,1,.24-.43l.19-.06.2-.07.22-.07.22-.06c.14,0,.21.08.19.29l-.16,1a.56.56,0,0,1-.3.43l-.23.06-.21.07-.2.06-.19.07m2-.58c-.13,0-.2-.09-.18-.3l.16-1a.56.56,0,0,1,.28-.42l.22-.06.21-.06L52,29,52.2,29c.13,0,.19.09.17.29l-.15,1a.53.53,0,0,1-.27.43l-.22.06-.21.07-.22.06-.22.06m2-.59c-.12,0-.19-.09-.16-.3L53,29a.56.56,0,0,1,.27-.43l.2-.07.21-.07.2-.06.19-.07c.13,0,.19.08.16.29l-.14,1a.52.52,0,0,1-.26.43l-.2.07-.2.07-.2.06-.21.07m1.86-.63c-.12,0-.18-.08-.16-.29l.14-1a.54.54,0,0,1,.25-.43l.19-.07.19-.07.18-.07.19-.08c.11,0,.16.08.14.29l-.13,1a.61.61,0,0,1-.24.45l-.19.07-.18.07-.19.07-.19.07m1.71-.66c-.11,0-.16-.09-.14-.3l.13-1a.58.58,0,0,1,.23-.44l.17-.08.17-.07.17-.08.17-.07c.1,0,.15.08.13.28l-.13,1a.64.64,0,0,1-.22.45l-.17.07-.17.08L56.8,29l-.17.08m1.55-.7c-.1,0-.15-.08-.13-.29l.13-1a.61.61,0,0,1,.2-.44l.16-.08.15-.08.15-.07.15-.08c.09,0,.13.07.11.28l-.12,1a.64.64,0,0,1-.19.46l-.15.07-.15.08-.16.08-.15.07m1.37-.71c-.08,0-.13-.08-.11-.29l.12-1a.7.7,0,0,1,.18-.44l.14-.08.13-.08.13-.08.13-.08c.08,0,.11.07.09.28l-.11,1a.77.77,0,0,1-.17.46l-.13.07-.13.08-.14.08-.13.08m1.17-.73c-.07,0-.1-.08-.08-.29l.11-1a.85.85,0,0,1,.16-.45l.11-.08.11-.08.11-.07.11-.08c.06,0,.08.07.07.28l-.11,1a.83.83,0,0,1-.15.46l-.11.08-.1.08-.12.07-.11.08m1-.73h0s0-.05,0-.3l.11-1a.85.85,0,0,1,.13-.45l.09-.08.08-.08.09-.08.08-.08h0s.06,0,0,.3l-.1,1a1.15,1.15,0,0,1-.12.46l-.08.08-.09.08-.08.08-.09.07m.72-.72h0s0,0,0-.3l.1-1.05a1.24,1.24,0,0,1,.11-.45l.06-.08.06-.07a.56.56,0,0,1,0-.08.35.35,0,0,0,0-.08h0s0,0,0,.3l-.1,1.05a1.76,1.76,0,0,1-.09.46l-.05.07-.06.08-.06.08-.06.07m.46-.7h0a1.6,1.6,0,0,1,0-.3l.1-1A2.69,2.69,0,0,1,63,23l0-.08,0-.07,0-.07a.24.24,0,0,1,0-.08s0,0,0,.3L63,24a4.5,4.5,0,0,1-.06.45l0,.07a.24.24,0,0,1,0,.08l0,.07s0,0,0,.08m.19-.73,0-.26.1-1.05,0-.29L63.05,24M48.72,28.57a2.23,2.23,0,0,1-.48,1.17,1.4,1.4,0,0,0-.18.13l-.13.14-.08.13a.39.39,0,0,0-.05.14l2.1-12.57a.48.48,0,0,1,.05-.14,1,1,0,0,1,.08-.14l.13-.15.16-.14h.1c.08.14.12.21.07.67L48.72,28.57m.8.57c-.12,0-.47.08-.35-.78l1.74-10.79a1.48,1.48,0,0,1,.62-1.07l.24-.08.24-.09.26-.09.28-.09c.8-.24,1.56-.5,2.3-.77s1.45-.55,2.13-.84,1.32-.59,1.92-.89,1.17-.61,1.69-.92c.09,0,.36-.1.3.64l-1.24,11a1.81,1.81,0,0,1-.53,1.22q-.82.44-1.8.87c-.63.28-1.32.56-2,.83s-1.47.53-2.26.78-1.59.48-2.44.71l-.29.08L50,29l-.26.08-.24.08M63.28,21.7a2.17,2.17,0,0,1-.25.77,4.34,4.34,0,0,1-.59.81,9.46,9.46,0,0,1-.91.82,14.3,14.3,0,0,1-1.19.83l-.09,0c-.09-.06-.23-.14-.17-.79L61.3,13.1A1.74,1.74,0,0,1,61.75,12a13.66,13.66,0,0,0,1.12-.87,8.55,8.55,0,0,0,.85-.86,4,4,0,0,0,.56-.85,2.09,2.09,0,0,0,.24-.8L63.28,21.7M50.15,16.51c0,.24-.08.34-.09.39l0,0s0,0,0,0,0,0,0,0v0l.24-1.46v0a0,0,0,0,1,0,0v0s0,0,0,0h0a.88.88,0,0,1,0,.24l-.14.85m.21,0h0s0,0,0-.24l.14-.86a1,1,0,0,1,.13-.38l.09-.07.1-.07.1-.07.12-.08c.07,0,.1.06.08.23l-.14.86a.71.71,0,0,1-.18.39l-.12.07-.11.07-.1.07-.08.07m1.19-.66c-.1,0-.15-.06-.13-.24l.14-.86a.56.56,0,0,1,.23-.38l.17-.07.19-.07.2-.07.21-.07c.13,0,.2.05.18.23l-.13.86a.52.52,0,0,1-.28.38l-.21.07-.2.07-.19.08-.18.07m1.9-.65c-.13,0-.19-.06-.17-.24l.13-.86a.5.5,0,0,1,.26-.38l.2-.06.2-.07.2-.07.2-.07c.12,0,.18,0,.16.23l-.12.87a.5.5,0,0,1-.26.38l-.2.07-.2.07-.2.07-.2.06m1.84-.65c-.11,0-.18-.05-.16-.23l.13-.87a.49.49,0,0,1,.24-.38l.19-.07.19-.08.19-.07.18-.07c.11,0,.17.05.15.22l-.12.87a.53.53,0,0,1-.23.39l-.19.08-.19.07-.19.07-.19.07M57,13.87c-.11,0-.17,0-.15-.23l.12-.87a.57.57,0,0,1,.22-.39l.18-.07.17-.08.18-.08.17-.08c.1,0,.16,0,.14.23l-.11.87a.55.55,0,0,1-.22.39l-.18.08-.17.08-.18.08-.17.07m1.59-.72c-.1,0-.15-.06-.14-.23l.11-.88a.57.57,0,0,1,.21-.39.8.8,0,0,0,.16-.08l.16-.08.16-.08.16-.08c.09,0,.14.05.12.22l-.1.88a.58.58,0,0,1-.2.39l-.16.09-.16.08-.16.08-.16.08m1.44-.76c-.09,0-.14-.05-.12-.22l.1-.88a.57.57,0,0,1,.19-.39l.15-.09.14-.08.14-.08.14-.09c.08,0,.12,0,.11.23l-.1.87a.65.65,0,0,1-.18.4l-.14.09-.14.08-.15.08-.14.08m1.27-.77c-.07,0-.11,0-.1-.22l.1-.88a.68.68,0,0,1,.17-.4.57.57,0,0,1,.13-.08l.12-.09.12-.08L62,9.79c.07,0,.1,0,.09.22l-.1.88a.68.68,0,0,1-.15.4l-.12.08-.13.09-.12.08-.13.08m1.1-.78c-.07.05-.1,0-.08-.22l.09-.88a.73.73,0,0,1,.14-.4l.11-.09.1-.08.1-.08L63,9c.05,0,.09,0,.07.22L63,10.1a.77.77,0,0,1-.14.41l-.09.08-.11.09-.1.08-.1.08m.89-.77h0s-.05,0,0-.24L63.34,9a.85.85,0,0,1,.12-.4l.08-.09a.3.3,0,0,0,.08-.08l.08-.08.07-.09h0s0,0,0,.24l-.09.88a.88.88,0,0,1-.11.4l-.07.09-.08.08a.6.6,0,0,1-.08.08l-.08.09M64,9.3h0s0-.05,0-.24L64,8.18a1.06,1.06,0,0,1,.1-.39l.06-.08a.41.41,0,0,1,0-.09.22.22,0,0,0,.05-.08.22.22,0,0,0,0-.08h0s0,0,0,.24l-.08.88A1.5,1.5,0,0,1,64.2,9a.22.22,0,0,0,0,.08l-.06.08,0,.08L64,9.3m.44-.74h0s0,0,0-.25l.08-.88a1.83,1.83,0,0,1,.07-.4l0-.08,0-.08,0-.07a.19.19,0,0,1,0-.08h0s0,0,0,.24l-.09.89a3.35,3.35,0,0,1,0,.4.19.19,0,0,1,0,.07s0,0,0,.08l0,.08,0,.08m.18-.75a1.49,1.49,0,0,1,0-.21l.08-.88,0-.26L64.6,7.81M63,25.09,64.8,5.66a3.46,3.46,0,0,1-1,1.92,12.49,12.49,0,0,1-2.5,2,29.13,29.13,0,0,1-3.69,2A44,44,0,0,1,53,13.29c-.41.14-.78.27-1.1.4a5.41,5.41,0,0,0-.8.4,2.41,2.41,0,0,0-.5.39.75.75,0,0,0-.21.39L47.26,33.51a.77.77,0,0,1,.22-.37,2.38,2.38,0,0,1,.55-.36,6.89,6.89,0,0,1,.86-.35q.53-.18,1.2-.36a49,49,0,0,0,5-1.54,31.76,31.76,0,0,0,4-1.78,13.52,13.52,0,0,0,2.73-1.86,3.16,3.16,0,0,0,1.1-1.8" style="fill: #263238"/>
      <path d="M48.72,28.57a2.23,2.23,0,0,1-.48,1.17,1.4,1.4,0,0,0-.18.13l-.13.14-.08.13a.39.39,0,0,0-.05.14l2.1-12.57a.48.48,0,0,1,.05-.14,1,1,0,0,1,.08-.14l.13-.15.16-.14h.1c.26.45-1.24,8.87-1.7,11.44" style="fill: #fff"/>
      <path d="M60.59,12.73c-.52.31-1.08.62-1.69.92s-1.25.6-1.92.89-1.39.57-2.13.84-1.5.53-2.3.77l-.28.09-.26.09-.24.09-.24.08a1.48,1.48,0,0,0-.62,1.07L49.17,28.36c0,.28-.08.9.35.78l.24-.08L50,29l.28-.08.29-.08c.85-.23,1.66-.47,2.44-.71s1.54-.51,2.26-.78,1.4-.55,2-.83,1.25-.58,1.8-.87a2,2,0,0,0,.53-1.22l1.24-11c.06-.67-.16-.72-.3-.64" style="fill: #fff"/>
      <path d="M63.28,21.7a2.17,2.17,0,0,1-.25.77,4.34,4.34,0,0,1-.59.81,9.46,9.46,0,0,1-.91.82,14.3,14.3,0,0,1-1.19.83l-.09,0c-.24-.15-.24-.15,1-11.85A1.74,1.74,0,0,1,61.75,12a13.66,13.66,0,0,0,1.12-.87,8.55,8.55,0,0,0,.85-.86,4,4,0,0,0,.56-.85,2.09,2.09,0,0,0,.24-.8L63.28,21.7" style="fill: #fff"/>
    </g>
    <path d="M47.26,33.51l3.12-18.64a.75.75,0,0,1,.21-.39,2.41,2.41,0,0,1,.5-.39,5.41,5.41,0,0,1,.8-.4c.32-.13.69-.26,1.1-.4a44,44,0,0,0,4.6-1.73,29.13,29.13,0,0,0,3.69-2,12.49,12.49,0,0,0,2.5-2,3.46,3.46,0,0,0,1-1.92L63,25.09a3.16,3.16,0,0,1-1.1,1.8,13.13,13.13,0,0,1-2.73,1.86,30.39,30.39,0,0,1-4,1.78,51.57,51.57,0,0,1-5,1.55c-.45.11-.85.23-1.2.35a6.89,6.89,0,0,0-.86.35,2.38,2.38,0,0,0-.55.36A.77.77,0,0,0,47.26,33.51Z" style="fill: none"/>
    <g>
      <path d="M2.3,19.08a.44.44,0,0,1-.12-.53l.42-1c.09-.2.25-.27.41-.19l.26.15.26.15.27.14.27.14a.39.39,0,0,1,.14.5l-.4,1a.35.35,0,0,1-.44.22l-.27-.14-.27-.15-.27-.14-.26-.15m2.59,1.26a.37.37,0,0,1-.16-.49l.4-1a.36.36,0,0,1,.45-.23l.29.12.31.12.3.11.31.11a.34.34,0,0,1,.19.46l-.39,1a.4.4,0,0,1-.47.25l-.31-.11-.31-.11-.31-.12-.3-.11m3,1a.34.34,0,0,1-.22-.46l.39-1a.42.42,0,0,1,.48-.26l.34.09.34.09.35.08.35.08a.32.32,0,0,1,.24.43l-.37,1a.45.45,0,0,1-.51.28l-.36-.08-.35-.08-.34-.09-.34-.08m3.29.69a.3.3,0,0,1-.21-.41l.37-1a.47.47,0,0,1,.46-.3l.21,0,.22,0,.21,0,.22,0c.13,0,.17.19.1.39l-.36,1c-.08.21-.22.34-.36.33l-.21,0-.22,0-.22,0-.21,0m2,.3c-.14,0-.18-.18-.11-.4l.35-1c.08-.21.22-.34.36-.33l.23,0,.22,0,.23,0,.23,0c.14,0,.19.18.12.38l-.34,1c-.08.21-.23.34-.37.34l-.24,0-.23,0-.23,0-.22,0m2.17.22c-.14,0-.19-.18-.12-.39l.34-1c.08-.2.22-.33.37-.33l.24,0,.24,0,.25,0h.24c.15,0,.2.17.14.38l-.34,1a.44.44,0,0,1-.38.34l-.24,0h-.25l-.24,0-.25,0m2.32.15c-.16,0-.21-.16-.15-.38l.33-1a.46.46,0,0,1,.38-.34h.26l.25,0h.52c.15,0,.21.16.16.36l-.33,1a.49.49,0,0,1-.39.35H18.2l-.26,0h-.25m2.44.09c-.16,0-.23-.16-.17-.37l.32-1a.49.49,0,0,1,.4-.35h1.08c.16,0,.23.15.18.36l-.32,1a.47.47,0,0,1-.4.36H20.13m2.58,0c-.17,0-.24-.15-.19-.36l.31-1a.47.47,0,0,1,.41-.35h1.14c.17,0,.25.15.2.36l-.3,1a.51.51,0,0,1-.42.37H22.71m2.72,0c-.18,0-.26-.15-.21-.36l.3-1a.49.49,0,0,1,.41-.36h1.21c.18,0,.26.14.21.35l-.28,1a.51.51,0,0,1-.43.37H25.43m2.86-.08c-.18,0-.27-.14-.23-.35l.29-1a.51.51,0,0,1,.42-.37h.63l.32,0H30c.19,0,.28.14.24.34l-.28,1a.51.51,0,0,1-.43.38h-.32l-.32,0h-.64m3-.13c-.2,0-.29-.14-.25-.35l.27-1a.5.5,0,0,1,.44-.37l.32,0,.34,0,.33,0,.33,0a.25.25,0,0,1,.26.34l-.25,1a.55.55,0,0,1-.45.39l-.34,0-.33,0h-.34l-.33,0m3.16-.18a.26.26,0,0,1-.27-.35l.25-1a.52.52,0,0,1,.45-.39l.34,0,.35,0,.35,0,.35,0a.25.25,0,0,1,.28.33l-.24,1a.53.53,0,0,1-.46.39l-.35,0-.35,0-.35,0-.35,0m3.31-.22a.27.27,0,0,1-.3-.35l.24-1a.55.55,0,0,1,.46-.39l.36,0,.36,0,.37,0,.36,0a.27.27,0,0,1,.31.33l-.22,1a.57.57,0,0,1-.47.4l-.37,0-.37,0-.37,0-.36,0m3.46-.27a.28.28,0,0,1-.32-.34l.22-1a.55.55,0,0,1,.47-.4l.38,0,.38,0,.38,0,.38,0c.24,0,.37.12.34.33l-.21,1a.55.55,0,0,1-.48.41l-.39,0-.38,0-.39,0-.38,0m3.62-.31c-.24,0-.37-.12-.34-.34l.2-1a.55.55,0,0,1,.48-.4l.4,0,.39,0,.4,0,.4,0c.25,0,.39.12.36.33L47,21a.57.57,0,0,1-.49.42l-.4,0-.41,0-.4,0-.4,0m3.75-.33c-.24,0-.38-.12-.35-.34l.18-1.05a.55.55,0,0,1,.48-.4l.38,0,.39,0,.38,0,.37,0c.23,0,.36.13.33.35l-.16,1a.5.5,0,0,1-.46.4l-.38,0-.38,0-.39,0-.39,0m3.48-.18a.3.3,0,0,1-.31-.37l.16-1.05a.47.47,0,0,1,.43-.38h1.36a.31.31,0,0,1,.29.37l-.16,1.06a.44.44,0,0,1-.4.38H52.08m3.07,0c-.18,0-.29-.16-.27-.38L55,19.62a.4.4,0,0,1,.37-.36h.89l.29,0c.16,0,.26.17.24.39l-.14,1.06a.38.38,0,0,1-.34.36l-.29,0h-.29l-.3,0h-.31m2.63.17c-.16,0-.24-.18-.23-.4l.14-1.06c0-.21.16-.35.31-.34l.26,0,.24,0,.24,0,.24,0c.14,0,.21.19.19.42L59.05,21c0,.22-.14.35-.29.34l-.23,0-.25,0-.25,0-.25,0m2.8.52a.47.47,0,0,1-.33-.48l.12-1.06a.31.31,0,0,1,.41-.27l.32.1.31.11.29.12.26.12a.54.54,0,0,1,.22.51L62.07,22c0,.22-.14.31-.29.24l-.27-.12L61.22,22l-.31-.11-.33-.1M62.83,23a.79.79,0,0,1-.12-.54l.1-1.06c0-.2.11-.29.2-.2l.05.06,0,.07,0,.06.05.07,0,.07,0,.06,0,.07a.64.64,0,0,1,0,.07,2,2,0,0,1,0,.49l-.1,1.05a.79.79,0,0,1-.06.28,0,0,0,0,1,0,0l0-.07s0,0,0-.06l0-.07,0-.06a.43.43,0,0,0,0-.07l0-.07,0-.06L62.83,23m.4,1.18v0c0-.16,0-.33,0-.5l.1-1.05a1.24,1.24,0,0,1,0-.27v0h0l-.17,1.81M1.43,15.45,6.79,2.86A13.66,13.66,0,0,0,8.73,4.35,15.91,15.91,0,0,0,11,5.53a21.64,21.64,0,0,0,2.58.9,28.39,28.39,0,0,0,2.91.66l.68.11.7.1.72.1.73.08c.5.12.43.62.34.91L16,19.16c-.22.56-.61.91-1,.9s-.53,0-.78-.09l-.77-.09-.75-.11c-.25,0-.49-.07-.73-.12A29.64,29.64,0,0,1,8.79,19,25.18,25.18,0,0,1,6,18.08a19.85,19.85,0,0,1-2.45-1.17,15.67,15.67,0,0,1-2.13-1.46m15.64,4.79c-.55-.12-.47-.69-.37-1L20.34,8.45a1.12,1.12,0,0,1,.95-.81c1,.06,2,.1,3,.12s2.12,0,3.24,0,2.27,0,3.47-.11,2.43-.12,3.71-.21a.61.61,0,0,1,.67.8l-2.8,10.93a1.44,1.44,0,0,1-1.2,1c-1.36.07-2.68.12-4,.16s-2.51.06-3.7.07-2.33,0-3.44,0-2.17-.09-3.2-.16M34.34,20c-.58,0-.82-.33-.73-.93L36.35,8.17a1.36,1.36,0,0,1,1.14-.94L40.36,7l3-.29,3.12-.34L49.72,6l1.42-.15,1.36-.12,1.31-.1,1.24,0a.72.72,0,0,1,.77.86L54.2,17.59a1.19,1.19,0,0,1-1.11,1l-1.33.05-1.39.07-1.46.1L47.4,19l-3.48.32-3.33.29-3.19.25L34.34,20m29.12,1.65a1.85,1.85,0,0,0,0-.23l0-.23a1.55,1.55,0,0,0-.07-.23,1.51,1.51,0,0,0-.11-.22,2.42,2.42,0,0,0-.53-.59,4.05,4.05,0,0,0-.83-.5,6.59,6.59,0,0,0-1.12-.41A13.54,13.54,0,0,0,59.37,19l-.77-.11-.83-.1-.89-.07-.94-.05c-.53-.08-.77-.42-.74-1L56.76,6.4a1,1,0,0,1,.94-.88l.89,0,.83.06.77.09.72.11a12.68,12.68,0,0,1,1.31.31,6.83,6.83,0,0,1,1,.41,3.43,3.43,0,0,1,.77.51,2.08,2.08,0,0,1,.48.6,2.29,2.29,0,0,1,.1.23,1.55,1.55,0,0,1,.07.23,1.94,1.94,0,0,1,0,.24,2.08,2.08,0,0,1,0,.25L63.46,21.69M8.74,3.49A.39.39,0,0,1,8.63,3L9,2.17C9.06,2,9.2,2,9.34,2l.24.15.23.15.24.14.24.15a.34.34,0,0,1,.14.44l-.34.85a.27.27,0,0,1-.39.16l-.24-.14L9.21,3.8,9,3.65l-.23-.16m2.34,1.28a.33.33,0,0,1-.16-.43l.34-.85a.29.29,0,0,1,.4-.17l.27.11.27.12.28.11.28.11a.31.31,0,0,1,.18.41L12.61,5a.34.34,0,0,1-.42.2l-.28-.11L11.63,5l-.28-.12-.27-.12m2.69,1a.3.3,0,0,1-.2-.4l.32-.85a.36.36,0,0,1,.44-.2l.31.08.31.09.32.08.32.07a.3.3,0,0,1,.23.38l-.32.85a.38.38,0,0,1-.45.23L14.72,6l-.32-.09-.31-.08-.32-.09m3,.68a.27.27,0,0,1-.2-.36l.31-.85A.4.4,0,0,1,17.32,5l.19,0,.2,0,.19,0,.2,0c.12,0,.16.16.11.33l-.31.86c-.07.17-.19.28-.32.27l-.2,0-.2,0-.2,0-.19,0m1.88.28c-.12,0-.17-.16-.11-.33l.3-.86c.07-.17.19-.28.32-.27l.21,0,.21,0,.21,0,.21,0c.13,0,.18.15.12.33l-.29.85a.4.4,0,0,1-.33.29l-.22,0-.21,0-.21,0-.21,0m2,.2c-.14,0-.19-.15-.13-.33l.29-.85c.07-.17.2-.29.33-.28h.22l.23,0h.22l.23,0c.13,0,.18.14.13.32l-.28.85a.4.4,0,0,1-.34.29h-.23l-.23,0H20.9l-.22,0M22.81,7c-.14,0-.2-.14-.15-.32l.28-.86a.41.41,0,0,1,.35-.29h.94c.15,0,.21.14.16.31l-.28.86a.4.4,0,0,1-.35.3h-1m2.25.06c-.15,0-.21-.13-.16-.31l.27-.86a.41.41,0,0,1,.36-.3h1c.15,0,.21.13.17.31l-.27.85a.42.42,0,0,1-.36.31h-1m2.39,0c-.16,0-.23-.12-.18-.3l.26-.86a.42.42,0,0,1,.36-.31H29c.16,0,.23.12.19.29l-.25.87a.45.45,0,0,1-.38.31H27.45M30,7c-.16,0-.24-.12-.2-.3L30,5.86a.46.46,0,0,1,.38-.32h.83l.28,0c.17,0,.25.12.21.29l-.24.87a.46.46,0,0,1-.39.32h-.56l-.28,0H30m2.65-.13c-.17,0-.26-.11-.22-.29l.24-.87A.46.46,0,0,1,33,5.41h.29l.3,0,.29,0,.29,0a.21.21,0,0,1,.23.29l-.23.86a.46.46,0,0,1-.39.33l-.3,0-.29,0-.3,0h-.29m2.78-.18a.22.22,0,0,1-.24-.29l.23-.86a.46.46,0,0,1,.39-.33l.31,0,.3,0,.31,0,.31,0c.19,0,.28.11.25.28L37,6.28a.49.49,0,0,1-.4.34l-.31,0-.31,0-.31,0-.31,0m2.92-.23c-.19,0-.3-.1-.26-.28l.21-.87A.49.49,0,0,1,38.67,5L39,5l.32,0,.32,0a3.16,3.16,0,0,0,.32,0c.2,0,.31.1.27.28L40,6a.51.51,0,0,1-.42.35l-.32,0-.33,0-.32,0-.32,0m3-.28c-.2,0-.31-.1-.27-.28l.19-.87a.49.49,0,0,1,.42-.34l.34,0,.33,0,.34,0,.34,0c.2,0,.32.09.29.27l-.19.87a.51.51,0,0,1-.43.35l-.34,0-.34,0-.34,0-.34,0m3.2-.33c-.21,0-.33-.09-.3-.28l.19-.87a.49.49,0,0,1,.42-.35l.35,0,.36,0,.35,0,.35,0c.22,0,.34.09.31.27l-.17.88a.51.51,0,0,1-.44.35l-.36,0-.35,0-.35,0-.36,0m3.35-.38c-.22,0-.35-.09-.33-.27l.17-.87A.54.54,0,0,1,48.19,4l.36,0,.37-.05.37,0,.37,0c.22,0,.36.09.33.27L49.84,5a.54.54,0,0,1-.45.36l-.38,0-.37,0-.37,0-.36,0m3.45-.39c-.22,0-.35-.1-.33-.28l.15-.88a.51.51,0,0,1,.44-.35l.36,0,.35,0,.35,0,.35,0c.2,0,.32.11.3.28l-.14.89a.45.45,0,0,1-.41.34l-.35,0-.35,0-.36,0-.36,0m3.2-.24a.26.26,0,0,1-.29-.3l.13-.89a.43.43,0,0,1,.39-.33H56a.25.25,0,0,1,.27.3l-.12.89a.39.39,0,0,1-.37.32h-.94l-.32,0m2.82-.05a.27.27,0,0,1-.25-.33l.12-.88a.37.37,0,0,1,.34-.31h.82l.26,0a.26.26,0,0,1,.23.32l-.11.89a.33.33,0,0,1-.32.3H57.38M59.79,5c-.14,0-.22-.16-.21-.35l.11-.89c0-.18.15-.29.29-.28l.23,0,.23,0,.22,0,.21,0c.13,0,.2.16.19.35L61,4.78c0,.19-.12.3-.26.29l-.21,0-.23,0L60,5l-.24,0m2.57.49A.42.42,0,0,1,62.05,5l.1-.88a.27.27,0,0,1,.37-.22l.3.1.28.11.26.12.25.13a.48.48,0,0,1,.2.45l-.09.88c0,.19-.13.25-.27.19l-.24-.13-.27-.11-.28-.11-.3-.11m2,1.24a.88.88,0,0,1-.12-.49l.09-.89c0-.18.09-.24.17-.15l0,.07.05.07,0,.07,0,.07,0,.06,0,.07,0,.07,0,.07a1.62,1.62,0,0,1,0,.44L64.76,7a.64.64,0,0,1,0,.22h0l0,0a.19.19,0,0,0,0-.07l0-.07s0,0,0-.07l0-.06a519021983730.64,519021983730.64,0,0,0-.08-.14l0-.07,0-.06m.35,1.21h0l0-.45.09-.89a1.5,1.5,0,0,1,0-.2v0h0l-.15,1.52M63.15,25.08,65,5.66a1.72,1.72,0,0,0,0-.49,2.16,2.16,0,0,0-.16-.46,2.22,2.22,0,0,0-.47-.61,4.18,4.18,0,0,0-.76-.51,5.71,5.71,0,0,0-1-.4,10.18,10.18,0,0,0-1.29-.31,17.77,17.77,0,0,0-2.14-.25c-.78,0-1.64-.07-2.57-.06s-1.91.06-3,.14-2.16.19-3.33.34c-3.6.44-7,.83-10.17,1.13s-6.09.51-8.81.64-5.21.15-7.51.06a47.54,47.54,0,0,1-6.26-.62,28,28,0,0,1-2.86-.65A19.78,19.78,0,0,1,12.1,2.7,15,15,0,0,1,9.89,1.52,13.23,13.23,0,0,1,8,0L7.7.72l.24.22.24.21a2.22,2.22,0,0,1-.26,1.34l-.31.15L7.32,2.4l-.24-.22L1.17,16.06l.27.22.27.2c0,.1.1.22.14.31L1.39,18l-.24.22a1,1,0,0,1-.31-.14L.57,17.9l-.14-.11L0,18.7a15.87,15.87,0,0,0,2.18,1.45,19.84,19.84,0,0,0,2.5,1.17,26.3,26.3,0,0,0,2.84.9c1,.27,2.06.49,3.18.68a59.13,59.13,0,0,0,6.91.69c2.53.13,5.28.15,8.25.08s6.23-.22,9.68-.45,7.24-.53,11.21-.89c1.29-.11,2.52-.2,3.68-.26S52.73,22,53.75,22s2,0,2.85.1,1.67.16,2.38.28c.52.09,1,.19,1.43.31a9.27,9.27,0,0,1,1.14.41,4.14,4.14,0,0,1,.84.5,2.28,2.28,0,0,1,.54.59,2.45,2.45,0,0,1,.19.44,4.06,4.06,0,0,1,0,.46" style="fill: #263238"/>
      <path d="M19.3,7.48l-.73-.08-.72-.1-.7-.1-.68-.11a28.39,28.39,0,0,1-2.91-.66A21.64,21.64,0,0,1,11,5.53,15.91,15.91,0,0,1,8.73,4.35,13.66,13.66,0,0,1,6.79,2.86L1.43,15.45a15.67,15.67,0,0,0,2.13,1.46A19.85,19.85,0,0,0,6,18.08a25.18,25.18,0,0,0,2.78.9,29.64,29.64,0,0,0,3.13.67c.24.05.48.08.73.12l.75.11.77.09c.25,0,.52.06.78.09.61,0,.91-.64,1-.9L19.64,8.39c.18-.57,0-.87-.34-.91" style="fill: #fff"/>
      <path d="M34.7,7.44c-1.28.09-2.52.16-3.71.21s-2.36.09-3.47.11-2.2,0-3.24,0-2-.06-3-.12a1.14,1.14,0,0,0-.95.81L16.7,19.22c-.1.33-.18.9.37,1,1,.07,2.09.13,3.2.16s2.25,0,3.44,0,2.43,0,3.7-.07,2.6-.09,4-.16a1.44,1.44,0,0,0,1.2-1l2.8-10.93a.61.61,0,0,0-.67-.8" style="fill: #fff"/>
      <path d="M55.05,5.54l-1.24,0-1.31.1-1.36.12L49.72,6l-3.25.38-3.12.34-3,.29-2.87.26a1.36,1.36,0,0,0-1.14.94L33.61,19.11c-.09.6.15.91.73.93l3.06-.21,3.19-.25,3.33-.29L47.4,19l1.51-.14,1.46-.1,1.39-.07,1.33-.05a1.19,1.19,0,0,0,1.11-1L55.82,6.4c0-.79-.53-.87-.77-.86" style="fill: #fff"/>
      <path d="M63.46,21.69a1.85,1.85,0,0,0,0-.23l0-.23a1.55,1.55,0,0,0-.07-.23,1.51,1.51,0,0,0-.11-.22,2.42,2.42,0,0,0-.53-.59,4.05,4.05,0,0,0-.83-.5,6.59,6.59,0,0,0-1.12-.41A13.54,13.54,0,0,0,59.37,19l-.77-.11-.83-.1-.89-.07-.94-.05c-.53-.08-.78-.43-.74-1,.23-3.38,1.09-7.84,1.56-11.19a1,1,0,0,1,.94-.88l.89,0,.83.06.77.09.72.11a12.68,12.68,0,0,1,1.31.31,6.83,6.83,0,0,1,1,.41,3.43,3.43,0,0,1,.77.51,2.08,2.08,0,0,1,.48.6,2.29,2.29,0,0,1,.1.23,1.55,1.55,0,0,1,.07.23,1.94,1.94,0,0,1,0,.24,2.08,2.08,0,0,1,0,.25L63.46,21.69" style="fill: #fff"/>
    </g>
    <path d="M65,5.66,63.15,25.08v-.23l0-.23a2.09,2.09,0,0,0-.08-.23,1.06,1.06,0,0,0-.11-.21,2.28,2.28,0,0,0-.54-.59,4.14,4.14,0,0,0-.84-.5,9.27,9.27,0,0,0-1.14-.41c-.43-.12-.91-.22-1.43-.31-.71-.12-1.51-.22-2.38-.28S54.78,22,53.75,22s-2.12,0-3.28.08-2.39.15-3.68.26q-6,.54-11.21.89t-9.68.45q-4.45.1-8.25-.07a61.25,61.25,0,0,1-6.91-.7c-1.13-.19-2.19-.42-3.2-.68a26.48,26.48,0,0,1-2.85-.91,19.23,19.23,0,0,1-2.5-1.18A15.44,15.44,0,0,1,0,18.67L8,0a13.35,13.35,0,0,0,1.9,1.5,15,15,0,0,0,2.21,1.19,19.55,19.55,0,0,0,2.55.91,28.18,28.18,0,0,0,2.87.66,47.54,47.54,0,0,0,6.26.62q3.45.12,7.51-.06c2.72-.13,5.66-.35,8.81-.64s6.57-.69,10.17-1.13c1.17-.15,2.29-.26,3.33-.34s2-.12,3-.14,1.79,0,2.57.06a17.77,17.77,0,0,1,2.14.25,12.34,12.34,0,0,1,1.29.3,6.56,6.56,0,0,1,1,.41,4.18,4.18,0,0,1,.76.51,2.22,2.22,0,0,1,.47.61,2.14,2.14,0,0,1,.1.22,1.05,1.05,0,0,1,.06.24,1,1,0,0,1,0,.24A2.18,2.18,0,0,1,65,5.66Z" style="fill: none"/>
    <path d="M97,46.2c1.67-.09,3.31-.24,4.84-.45s3-.47,4.2-.76a18.12,18.12,0,0,0,3-1c.76-.35,1.23-.72,1.32-1.08a.54.54,0,0,0-.08-.41,1.44,1.44,0,0,0-.57-.49,6.55,6.55,0,0,0-1.29-.5,19.9,19.9,0,0,0-2.27-.5l-1.29-.19c-.47-.06-1-.12-1.52-.17l-1.77-.17c-.62,0-1.3-.09-2-.13L93.93,40c-3.13-.21-7.29-.51-11.82-.87s-9.41-.8-14-1.28-9-1-12.57-1.61c-1.12-.19-2.16-.38-3.09-.57s-1.77-.39-2.47-.59a11.1,11.1,0,0,1-1.73-.62,2,2,0,0,1-.87-.64.45.45,0,0,1,0-.45,1.18,1.18,0,0,1,.45-.44,5.37,5.37,0,0,1,.92-.43,13.77,13.77,0,0,1,1.42-.43A51.07,51.07,0,0,0,55.7,30.3a27.63,27.63,0,0,0,4.3-2,8.65,8.65,0,0,0,2.52-2.11,1.68,1.68,0,0,0,.23-1.94,2,2,0,0,0-.51-.55,4.21,4.21,0,0,0-.82-.47,9.27,9.27,0,0,0-1.1-.39q-.62-.16-1.38-.3c-.7-.12-1.49-.21-2.36-.28s-1.82-.09-2.83-.1-2.11,0-3.26.08-2.37.14-3.64.25q-6,.54-11.21.89T26,23.78c-3,.07-5.73,0-8.26-.08a59.56,59.56,0,0,1-6.94-.7c-1.14-.19-2.22-.42-3.24-.68a27.59,27.59,0,0,1-2.87-.93,19.31,19.31,0,0,1-2.5-1.21A13.9,13.9,0,0,1,0,18.67a15.44,15.44,0,0,0,2.19,1.46,19.23,19.23,0,0,0,2.5,1.18,26.48,26.48,0,0,0,2.85.91c1,.26,2.07.49,3.2.68a61.25,61.25,0,0,0,6.91.7q3.8.18,8.25.07t9.68-.45q5.25-.34,11.21-.89c1.29-.11,2.52-.2,3.68-.26S52.73,22,53.75,22s2,0,2.85.1,1.67.16,2.38.28c.52.09,1,.19,1.43.31a9.27,9.27,0,0,1,1.14.41,4.14,4.14,0,0,1,.84.5,2.28,2.28,0,0,1,.54.59,1.72,1.72,0,0,1-.22,2,8.61,8.61,0,0,1-2.53,2.14,27,27,0,0,1-4.33,2.08,49.93,49.93,0,0,1-5.66,1.79,12.9,12.9,0,0,0-1.37.41,4.87,4.87,0,0,0-.9.41,1.26,1.26,0,0,0-.44.41.38.38,0,0,0,0,.41,1.78,1.78,0,0,0,.82.61A11.51,11.51,0,0,0,50,35c.69.19,1.5.38,2.41.57s1.94.38,3.05.56c2.78.46,6.13.9,9.79,1.31s7.63.8,11.65,1.16,8.12.68,12,1,7.55.52,10.72.71l1.91.14c.61,0,1.19.1,1.75.15l1.57.18,1.38.21a20.24,20.24,0,0,1,2,.41,8.59,8.59,0,0,1,1.39.47,2.25,2.25,0,0,1,.79.53.61.61,0,0,1,.17.57c-.08.38-.56.76-1.32,1.12a16.27,16.27,0,0,1-3.06,1,39.76,39.76,0,0,1-4.25.75C100.37,46,98.7,46.13,97,46.2Z" style="fill: #8e8e8e"/>
  </g>
</svg>
