<svg xmlns="http://www.w3.org/2000/svg" viewBox="0 0 499.89 337.4">
  <g>
    <g>
      <path d="M217.06,16.7H231a4.5,4.5,0,0,1,4.5,4.5V41.25A4.49,4.49,0,0,1,231,45.74h-13.9a4.5,4.5,0,0,1-4.5-4.5V21.19A4.5,4.5,0,0,1,217.06,16.7Z" style="fill: none"/>
      <path d="M119.89,16.7h13.9a4.5,4.5,0,0,1,4.5,4.5V41.25a4.49,4.49,0,0,1-4.49,4.49h-13.9a4.5,4.5,0,0,1-4.5-4.5V21.19A4.5,4.5,0,0,1,119.89,16.7Z" style="fill: none"/>
      <path d="M168.48,16.7h13.9a4.49,4.49,0,0,1,4.49,4.49V41.25a4.49,4.49,0,0,1-4.49,4.49H168.48a4.5,4.5,0,0,1-4.5-4.5V21.19A4.5,4.5,0,0,1,168.48,16.7Z" style="fill: none"/>
      <path d="M73.44,16.7h13.9a4.5,4.5,0,0,1,4.5,4.5V41.25a4.49,4.49,0,0,1-4.49,4.49H73.44a4.49,4.49,0,0,1-4.49-4.49V21.19A4.5,4.5,0,0,1,73.44,16.7Z" style="fill: none"/>
      <path d="M24.09,291H38a4.5,4.5,0,0,1,4.5,4.5v20.05A4.49,4.49,0,0,1,38,320.08H24.09a4.49,4.49,0,0,1-4.49-4.49V295.53A4.49,4.49,0,0,1,24.09,291Z" style="fill: none"/>
      <path d="M24.85,16.7h13.9a4.5,4.5,0,0,1,4.5,4.5V41.25a4.49,4.49,0,0,1-4.49,4.49H24.85a4.49,4.49,0,0,1-4.49-4.49V21.19A4.5,4.5,0,0,1,24.85,16.7Z" style="fill: none"/>
      <path d="M411.41,16.7h13.9a4.5,4.5,0,0,1,4.5,4.5V41.25a4.49,4.49,0,0,1-4.49,4.49h-13.9a4.49,4.49,0,0,1-4.49-4.49V21.19A4.5,4.5,0,0,1,411.41,16.7Z" style="fill: none"/>
      <path d="M460,16.7h13.9a4.5,4.5,0,0,1,4.5,4.5V41.25a4.49,4.49,0,0,1-4.49,4.49H460a4.49,4.49,0,0,1-4.49-4.49V21.19A4.5,4.5,0,0,1,460,16.7Z" style="fill: none"/>
      <path d="M314.23,16.7h13.9a4.5,4.5,0,0,1,4.5,4.5V41.25a4.49,4.49,0,0,1-4.49,4.49h-13.9a4.5,4.5,0,0,1-4.5-4.5V21.19A4.5,4.5,0,0,1,314.23,16.7Z" style="fill: none"/>
      <path d="M265.65,16.7h13.9a4.5,4.5,0,0,1,4.5,4.5V41.25a4.49,4.49,0,0,1-4.49,4.49h-13.9a4.49,4.49,0,0,1-4.49-4.49V21.19A4.5,4.5,0,0,1,265.65,16.7Z" style="fill: none"/>
      <path d="M362.82,16.7h13.9a4.49,4.49,0,0,1,4.49,4.49V41.25a4.49,4.49,0,0,1-4.49,4.49h-13.9a4.5,4.5,0,0,1-4.5-4.5V21.19A4.5,4.5,0,0,1,362.82,16.7Z" style="fill: none"/>
      <path d="M167.72,291h13.9a4.5,4.5,0,0,1,4.5,4.5v20.05a4.49,4.49,0,0,1-4.49,4.49h-13.9a4.49,4.49,0,0,1-4.49-4.49V295.53A4.49,4.49,0,0,1,167.72,291Z" style="fill: none"/>
      <rect x="454.74" y="291.04" width="22.88" height="29.04" rx="4.49" style="fill: none"/>
      <rect x="406.15" y="291.04" width="22.89" height="29.04" rx="4.49" style="fill: none"/>
      <rect x="68.19" y="291.04" width="22.88" height="29.04" rx="4.49" style="fill: none"/>
      <path d="M376,291h-13.9a4.49,4.49,0,0,0-4.49,4.49v20.05a4.5,4.5,0,0,0,4.49,4.5H376a4.5,4.5,0,0,0,4.49-4.5V295.53A4.49,4.49,0,0,0,376,291Z" style="fill: none"/>
      <path d="M313.48,291h13.9a4.5,4.5,0,0,1,4.5,4.5v20.05a4.49,4.49,0,0,1-4.49,4.49h-13.9a4.5,4.5,0,0,1-4.5-4.5v-20A4.49,4.49,0,0,1,313.48,291Z" style="fill: none"/>
      <path d="M216.3,291h13.9a4.5,4.5,0,0,1,4.5,4.5v20.05a4.49,4.49,0,0,1-4.49,4.49h-13.9a4.5,4.5,0,0,1-4.5-4.5v-20A4.49,4.49,0,0,1,216.3,291Z" style="fill: none"/>
      <path d="M119.13,291H133a4.49,4.49,0,0,1,4.49,4.49v20.05a4.49,4.49,0,0,1-4.49,4.49h-13.9a4.5,4.5,0,0,1-4.5-4.5v-20A4.49,4.49,0,0,1,119.13,291Z" style="fill: none"/>
      <path d="M264.89,291h13.9a4.5,4.5,0,0,1,4.5,4.5v20.05a4.49,4.49,0,0,1-4.49,4.49h-13.9a4.5,4.5,0,0,1-4.5-4.5v-20A4.49,4.49,0,0,1,264.89,291Z" style="fill: none"/>
      <path d="M491.3,0H8.59A8.6,8.6,0,0,0,0,8.59V328.81a8.6,8.6,0,0,0,8.59,8.59H491.3a8.59,8.59,0,0,0,8.59-8.59V8.59A8.59,8.59,0,0,0,491.3,0ZM455.5,21.19A4.49,4.49,0,0,1,460,16.7h13.9a4.49,4.49,0,0,1,4.49,4.49V41.25a4.49,4.49,0,0,1-4.49,4.49H460a4.49,4.49,0,0,1-4.49-4.49Zm-48.59,0a4.49,4.49,0,0,1,4.5-4.49H425.3a4.49,4.49,0,0,1,4.5,4.49V41.25a4.49,4.49,0,0,1-4.5,4.49H411.41a4.49,4.49,0,0,1-4.5-4.49Zm-48.59,0a4.5,4.5,0,0,1,4.5-4.49h13.9a4.49,4.49,0,0,1,4.49,4.49V41.25a4.49,4.49,0,0,1-4.49,4.49h-13.9a4.5,4.5,0,0,1-4.5-4.49Zm-48.58,0a4.49,4.49,0,0,1,4.5-4.49h13.89a4.5,4.5,0,0,1,4.5,4.49V41.25a4.5,4.5,0,0,1-4.5,4.49H314.24a4.49,4.49,0,0,1-4.5-4.49Zm-48.59,0a4.5,4.5,0,0,1,4.5-4.49h13.89a4.49,4.49,0,0,1,4.5,4.49V41.25a4.49,4.49,0,0,1-4.5,4.49H265.65a4.5,4.5,0,0,1-4.5-4.49Zm-48.58,0a4.49,4.49,0,0,1,4.49-4.49H231a4.5,4.5,0,0,1,4.5,4.49V41.25a4.5,4.5,0,0,1-4.5,4.49h-13.9a4.49,4.49,0,0,1-4.49-4.49Zm-48.59,0a4.5,4.5,0,0,1,4.5-4.49h13.9a4.49,4.49,0,0,1,4.49,4.49V41.25a4.49,4.49,0,0,1-4.49,4.49h-13.9a4.5,4.5,0,0,1-4.5-4.49Zm-48.58,0a4.49,4.49,0,0,1,4.49-4.49h13.9a4.49,4.49,0,0,1,4.49,4.49V41.25a4.49,4.49,0,0,1-4.49,4.49h-13.9a4.49,4.49,0,0,1-4.49-4.49Zm-46.46,0a4.49,4.49,0,0,1,4.5-4.49H87.33a4.49,4.49,0,0,1,4.5,4.49V41.25a4.49,4.49,0,0,1-4.5,4.49H73.44a4.49,4.49,0,0,1-4.5-4.49Zm-48.58,0a4.49,4.49,0,0,1,4.49-4.49h13.9a4.49,4.49,0,0,1,4.49,4.49V41.25a4.49,4.49,0,0,1-4.49,4.49H24.85a4.49,4.49,0,0,1-4.49-4.49ZM42.48,315.58a4.5,4.5,0,0,1-4.49,4.5H24.09a4.5,4.5,0,0,1-4.49-4.5V295.53A4.49,4.49,0,0,1,24.09,291H38a4.49,4.49,0,0,1,4.49,4.49Zm48.59,0a4.5,4.5,0,0,1-4.49,4.5H72.68a4.5,4.5,0,0,1-4.49-4.5V295.53A4.49,4.49,0,0,1,72.68,291h13.9a4.49,4.49,0,0,1,4.49,4.49Zm46.46,0a4.5,4.5,0,0,1-4.5,4.5h-13.9a4.5,4.5,0,0,1-4.49-4.5V295.53a4.49,4.49,0,0,1,4.49-4.49H133a4.49,4.49,0,0,1,4.5,4.49Zm48.58,0a4.5,4.5,0,0,1-4.49,4.5h-13.9a4.51,4.51,0,0,1-4.5-4.5V295.53a4.5,4.5,0,0,1,4.5-4.49h13.9a4.49,4.49,0,0,1,4.49,4.49Zm48.59,0a4.5,4.5,0,0,1-4.5,4.5H216.31a4.5,4.5,0,0,1-4.5-4.5V295.53a4.49,4.49,0,0,1,4.5-4.49H230.2a4.49,4.49,0,0,1,4.5,4.49Zm48.58,0a4.5,4.5,0,0,1-4.49,4.5h-13.9a4.5,4.5,0,0,1-4.49-4.5V295.53a4.49,4.49,0,0,1,4.49-4.49h13.9a4.49,4.49,0,0,1,4.49,4.49Zm48.59,0a4.5,4.5,0,0,1-4.5,4.5H313.48a4.5,4.5,0,0,1-4.5-4.5V295.53a4.49,4.49,0,0,1,4.5-4.49h13.89a4.49,4.49,0,0,1,4.5,4.49Zm48.58,0a4.5,4.5,0,0,1-4.49,4.5h-13.9a4.5,4.5,0,0,1-4.49-4.5V295.53a4.49,4.49,0,0,1,4.49-4.49H376a4.49,4.49,0,0,1,4.49,4.49Zm48.59,0a4.5,4.5,0,0,1-4.49,4.5h-13.9a4.51,4.51,0,0,1-4.5-4.5V295.53a4.5,4.5,0,0,1,4.5-4.49h13.9a4.49,4.49,0,0,1,4.49,4.49Zm48.59,0a4.51,4.51,0,0,1-4.5,4.5h-13.9a4.5,4.5,0,0,1-4.49-4.5V295.53a4.49,4.49,0,0,1,4.49-4.49h13.9a4.5,4.5,0,0,1,4.5,4.49Zm1-43a5.13,5.13,0,0,1-5.13,5.13H26a5.13,5.13,0,0,1-5.13-5.13V64.8A5.13,5.13,0,0,1,26,59.67H473.48a5.13,5.13,0,0,1,5.13,5.13Z" style="fill: #c1c1c1"/>
    </g>
    <g>
      <g>
        <g>
          <path d="M27.86,11.51H26.48l2.27-2.27H20.88v-1h7.87L26.48,6h1.38l2.75,2.76Z" style="fill: #f9db5d"/>
          <path d="M34.92,6.69h0l-1.67.79L32.89,6l2.33-1.08h1.69v8.76h-2Z" style="fill: #f9db5d"/>
        </g>
        <g>
          <path d="M462.82,10.85h-1.38l2.27-2.27h-7.87v-1h7.87l-2.27-2.27h1.38l2.75,2.76Z" style="fill: #f9db5d"/>
          <path d="M467.28,13V11.72l1.12-1C470.33,9,471.26,8,471.27,7c0-.71-.42-1.28-1.43-1.28a3.25,3.25,0,0,0-1.87.72L467.39,5a4.8,4.8,0,0,1,2.86-.9c2,0,3.07,1.16,3.07,2.75s-1.05,2.64-2.33,3.77l-.81.67v0h3.31V13Z" style="fill: #f9db5d"/>
        </g>
        <g>
          <path d="M220.33,10.38H219l2.27-2.27h-7.87v-1h7.87L219,4.87h1.38l2.75,2.75Z" style="fill: #f9db5d"/>
          <path d="M227.39,5.56h0l-1.67.79-.34-1.54,2.33-1.07h1.68v8.75h-2Z" style="fill: #f9db5d"/>
          <path d="M234.68,10.16l-.63,2.33h-2.13l2.77-9.08h2.69l2.82,9.08H238l-.7-2.33ZM237,8.63l-.56-1.93c-.15-.54-.31-1.23-.45-1.75h0c-.12.54-.27,1.22-.4,1.75L235,8.63Z" style="fill: #f9db5d"/>
        </g>
      </g>
      <g>
        <g>
          <path d="M27.86,287.75H26.48l2.27-2.27H20.88v-1h7.87l-2.27-2.27h1.38L30.61,285Z" style="fill: #f9db5d"/>
          <path d="M34.92,282.92h0l-1.67.8-.34-1.54,2.33-1.08h1.69v8.76h-2Z" style="fill: #f9db5d"/>
        </g>
        <g>
          <path d="M461.43,287.35h-1.37l2.27-2.26h-7.88v-1h7.88l-2.27-2.27h1.37l2.76,2.76Z" style="fill: #f9db5d"/>
          <path d="M465.9,289.47v-1.24l1.12-1c1.93-1.73,2.85-2.71,2.87-3.73,0-.72-.42-1.28-1.43-1.28a3.24,3.24,0,0,0-1.87.71l-.58-1.45a4.79,4.79,0,0,1,2.85-.91c2,0,3.08,1.16,3.08,2.75s-1.06,2.64-2.34,3.77l-.8.68v0h3.31v1.69Z" style="fill: #f9db5d"/>
        </g>
        <g>
          <path d="M222.92,286.61h-1.37l2.27-2.26h-7.88v-1h7.88l-2.27-2.27h1.37l2.76,2.76Z" style="fill: #f9db5d"/>
          <path d="M230,281.79h0l-1.67.79-.33-1.53,2.33-1.08H232v8.76h-2Z" style="fill: #f9db5d"/>
          <path d="M237.28,286.4l-.63,2.33h-2.13l2.77-9.08H240l2.83,9.08h-2.21l-.7-2.33Zm2.3-1.54-.56-1.93c-.15-.54-.31-1.22-.45-1.75h0c-.12.54-.27,1.23-.4,1.75l-.55,1.93Z" style="fill: #f9db5d"/>
        </g>
      </g>
    </g>
  </g>
</svg>
